<?xml version="1.0" encoding="utf-8" ?>
<svg baseProfile="full" height="300mm" version="1.1" viewBox="0,0,200,300" width="200mm" xmlns="http://www.w3.org/2000/svg" xmlns:ev="http://www.w3.org/2001/xml-events" xmlns:xlink="http://www.w3.org/1999/xlink"><defs /><rect fill="#222222" height="300" width="200" x="0" y="0" /><text fill="#FFFFFF" style="font-size:12px; font-family:Arial; font-weight:bold;" x="10" y="20">Jianqing Running Records</text><text fill="#FFFFFF" style="font-size:4px; font-family:Arial" x="10" y="280">ATHLETE</text><text fill="#FFFFFF" style="font-size:9px; font-family:Arial" x="10" y="290">Jianqing</text><text fill="#FFFFFF" style="font-size:4px; font-family:Arial" x="120" y="280">STATISTICS</text><text fill="#FFFFFF" style="font-size:3px; font-family:Arial" x="120" y="285">Number: 25</text><text fill="#FFFFFF" style="font-size:3px; font-family:Arial" x="120" y="290">Weekly: 1.1</text><text fill="#FFFFFF" style="font-size:3px; font-family:Arial" x="141" y="285">Total: 315.1 km</text><text fill="#FFFFFF" style="font-size:3px; font-family:Arial" x="141" y="290">Avg: 12.6 km</text><text fill="#FFFFFF" style="font-size:3px; font-family:Arial" x="167" y="285">Min: 10.0 km</text><text fill="#FFFFFF" style="font-size:3px; font-family:Arial" x="167" y="290">Max: 20.9 km</text><polyline fill="none" points="44.19999999998254,40.92902812036482 43.851746641041245,40.587081141085946 43.62786948171561,40.579805654939264 43.58433781185886,40.80534536703635 43.07439539342886,41.44558309330023 42.7883301343245,41.48923544812715 42.452514395379694,41.751148994182586 41.46994241839275,42.813343687907036 40.29458733202773,43.81004568179924 37.90034548941185,45.48330846586032 35.77351247597835,47.120156517506985 35.089443378092255,47.79670898231416 33.055892514355946,50.364637782549835 32.91285988478921,50.37918668064958 32.353166986547876,49.99363983910007 31.700191938551143,50.75745694999205 30.51861804217333,49.6662870481523 30.164145873277448,49.75358127830259 29.990019193821354,49.98636534959951 29.523608445277205,50.270069869635336 29.23754318614374,50.124580518575385 28.652975047938526,50.350088881343254 25.71769673700328,52.23414594391943 24.772437619947596,52.728793286398286 24.461497120879358,53.08522813361196 23.2363915546739,53.558047015510965 22.564760076755192,53.99449232532788 21.432936660246924,54.37274268396868 20.904337811894948,54.4236608423962 19.927984644891694,54.92556638439419 19.629481765790842,54.86010065213486 19.442917466367362,55.06377161433193 19.026257197692757,55.2092505032997 18.441689059487544,55.18015475016 17.65190019190777,55.31108554227103 16.893205374246463,55.08559346730908 15.425566218793392,55.398372598363494 15.189251439500367,55.20197656617529 12.906948176561855,55.08559346730908 12.589788867509924,54.91101844930381 11.974126679444453,54.9764841330325 11.799999999988358,55.10014136545942 12.154472168855136,54.983758094051154 13.57236084449687,55.17288080995786 14.828560460620793,55.17288080995786 15.139500959659927,55.22379837525659 15.413128598826006,55.42019434506801 16.756391554692527,55.10741531338135 17.173051823367132,55.121963206882356 17.608368522051023,55.318359467848495 19.00760076774168,55.2092505032997 19.467792706331238,55.04194975441351 19.68545105564408,54.81645679594658 20.332207293628016,54.75826494454668 20.929213051800616,54.40911280098226 21.457811900181696,54.35819463176449 22.881919385748915,53.849010863530566 23.311017274449114,53.514402331988094 24.560998080589343,53.01976064730843 24.921689059468918,52.63422862869629 26.8930518233974,51.5139912383529 27.5709021112998,50.80110338546365 28.018656429921975,50.77928017118393 28.677850287873298,50.3064421592353 29.218886756221764,50.1173060429428 29.554702495166566,50.26279540941323 29.965143953915685,50.03728676000901 30.17036468326114,49.768130305878 30.51861804217333,49.680836094223196 31.51362763909856,50.80837778867135 31.824568138166796,50.77200576489122 32.35938579647336,50.3064421592353 32.99370441457722,50.83020099368878 34.48621880993596,51.65947764612065 34.72875239921268,51.33213279527263 37.09811900186469,49.113421013738844 40.139117082522716,46.66911783778778 42.297044145845575,45.27233410048939 42.71992322453298,45.141384168375225 43.19877159304451,44.76308296155912 43.08061420341255,44.66123228053766" stroke="#4dd2ff" stroke-linecap="round" stroke-linejoin="round" stroke-width="0.5"><title>2022-07-10 12.0km</title><desc>1657452397000</desc></polyline><polyline fill="none" points="63.549821911379695,34.41232152606244 64.4501780886203,33.148297124542296 67.00718963169493,31.800000000017462 70.06840063375421,34.033114627585746 75.6866231795866,40.52171614518738 79.86427584127523,47.47367168861092 74.57018151972443,52.15037338962429 71.6530275058467,52.82448801770806 67.76348882028833,56.48996630506008 61.92918079253286,59.523440023564035 53.42981848004274,46.925946269358974 59.516226237639785,38.962776094995206 61.89316654531285,37.23529484550818 62.649465734139085,35.76060979117756 66.35893318406306,32.34774625831051 67.83551731449552,32.01067172718467 74.2460532959085,38.79424166932586 77.9195064988453,44.14517480798531 79.6481903588865,48.189926867809845 74.57018151972443,52.192505587328924 71.68904175283387,52.99301649618428 67.36733210249804,56.5320980429824 54.29416041029617,64.15786907461006 48.49586662952788,53.7935257932113 48.17173840571195,52.27676996943774 51.34099214919843,48.189926867809845 56.95921469456516,42.75478178384947 59.62426897906698,38.709974429773865 61.85715229832567,37.48809744845494 64.3061210999731,34.875796132924734 64.8823490536306,33.4011023263738 66.82711839629337,31.884268704190617 69.63622966874391,33.52750486708828 74.35409603710286,38.87850889109541 79.6481903588865,46.79954798845574 79.79224734706804,48.27419209809159 76.15480839158408,51.22346390984603 71.68904175283387,53.11941280809697 67.6554460793268,56.57422977639362 54.186117669101804,64.20000000001164 48.13572415849194,52.31890215384192 50.83679268998094,48.8219156601117 56.851171953370795,43.00758087722352 60.23651117947884,38.457172603782965 67.1152323728893,32.17920902845799 68.59181650355458,32.22134334265138 74.7142385081388,39.21557759947609 79.68420460587367,46.715282445482444 79.75623310008086,48.31632470662589 66.43096167827025,57.332600214809645 60.95679612108506,59.86049123038538 55.446616317145526,63.652297621098114 54.150103421881795,63.82082151045324 50.33259323099628,57.332600214809645 48.20775265269913,52.3610343336768 51.521063384599984,47.979263713699766 53.645903962664306,46.50461851025466 60.48861090908758,38.120103252411354 65.49459125404246,33.27469974561245 67.58341758488677,31.926403049728833 68.8439162329305,32.72695476436638 73.02156889485195,36.94035827225889" stroke="#4dd2ff" stroke-linecap="round" stroke-linejoin="round" stroke-width="0.5"><title>2022-06-06 10.1km</title><desc>1654522760000</desc></polyline><polyline fill="none" points="100.66734441323206,52.00147240824299 101.33468882599846,51.123165950586554 100.45879928418435,48.732212105591316 96.37131475517526,42.24241765707848 93.45168294850737,39.21706868498586 100.20854512928054,31.946390669443645 101.08443467132747,31.79999999998836 107.7578788001556,38.094756753125694 115.09866734198295,49.805703122750856 112.34587163897231,53.17254507925827 109.25940372934565,55.612270244950196 105.04679212276824,57.32007016992429 99.6663277936168,62.00428888120223 94.20244541298598,64.00482610214385 89.4893254970666,56.051419402007014 84.65107850334607,49.51293309353059 100.16683610342443,32.82473370828666 102.04374226462096,32.38556239823811 106.67344412906095,36.82605301446165 112.72125287121162,45.2677467513422 115.09866734198295,49.51293309353059 114.93183123879135,50.39124262268888 109.67649398744106,55.12432624591747 101.62665200675838,60.58926950182649 94.4526995678898,64.20000000001164 90.99085042602383,57.954394243017305 84.73449655482545,49.61052312399261 100.41709025832824,32.92232727564988 101.87690616142936,32.28796871684608 109.17598567763343,39.802621650276706 114.97354026488028,48.82980230150861 115.14037636807188,50.147267921536695 112.80467092292383,52.87977719074115 109.67649398744106,55.85624205056229 105.88097263895907,57.46645272572641 104.62970186467282,58.97906974630314 97.28891332284547,63.224129684240324 94.9949169033207,63.80965212167939 84.94304168410599,49.805703122750856 101.66836103238165,32.28796871684608 109.05085860006511,39.802621650276706 115.09866734198295,49.268957926979056 115.26550344540738,50.68401209334843 112.76296189706773,53.56290197445196 105.54730043257587,57.56404107052367 102.50254154857248,60.24771244835574 94.57782664545812,63.80965212167939 84.98475070972927,49.61052312399261 100.66734441323206,32.82473370828666 101.87690616142936,32.53195288134157 109.00914957444184,40.095397853758186 115.34892149688676,50.34244769270299 111.2197279422544,54.977942945377436 105.63071848405525,57.36886436032364 100.54221733566374,61.51635165527114 99.58290974213742,61.760320332978154 101.66836103238165,59.71097942398046 105.79755458747968,57.07609913972556" stroke="#4dd2ff" stroke-linecap="round" stroke-linejoin="round" stroke-width="0.5"><title>2022-01-19 10.0km</title><desc>1642597644000</desc></polyline><polyline fill="none" points="149.86099930290948,31.909141576201364 149.5426710670581,31.799999999999272 149.04322504191077,31.99260264889017 147.53939854854252,33.01980644007199 145.58552179072285,34.10477154086402 145.35500824067276,34.40650394596378 145.17937886915752,34.45144268630247 145.09156418344355,34.37440482533202 142.5065193718474,35.30527242308017 141.54604624648346,35.54280186581309 137.33094133081613,36.17834904135816 135.74478856954374,36.19118830957086 134.2903578369005,35.93440242856377 131.0960986429418,35.79316973036475 130.30576647128328,35.838107442756154 128.57142642780673,36.22328646821552 128.29700553487055,36.37093777910923 127.64388380965102,36.46081231401695 127.13894936660654,36.42229467250945 125.66256496254937,36.9872176285171 125.18507260881597,37.42374539814409 124.07641220130608,37.91162565639388 123.2147305974213,38.502212295155914 122.27621114355861,39.49079009858542 122.15546595063643,40.184068812741316 122.52318994718371,41.60911683205268 123.02812439022819,41.84662157923958 124.15325005131308,43.059806992208905 124.08190061917412,43.21386054604227 124.56488139077555,43.64392464590492 124.74051076226169,43.93277195603878 125.43753983033821,44.62599988731017 125.5912155303813,44.74153710546307 125.7448912304244,44.72228091772922 125.76684490186744,44.93409864656496 126.04675421267166,44.850655387152074 128.2585866098816,47.475853691077646 129.23552498876234,49.06118736942153 129.7404594318068,49.459118872200634 129.85022778896382,49.90839323786349 130.031345578318,50.03675673116231 130.45944217132637,50.84544049290707 130.55274527493748,51.564261453178915 130.6954441392736,51.62844148187651 131.13451756798895,52.597551661765465 131.75470878602937,54.52289019598902 131.61749833956128,54.58064940803524 131.71628986104042,55.15182087801804 131.41442687879317,55.524042088276474 131.249774343014,56.21713756763711 131.41442687879317,56.55084738222649 131.13451756798895,56.95514719890707 130.93144610719173,56.987234370561055 130.71739781065844,57.23751372714105 130.24539387482218,58.03326687391018 129.6910636710527,59.534901644667116 129.08184928871924,60.77981853919118 129.06538403514423,60.927410085983865 129.32882809234434,61.37018257287855 129.0763608708512,61.9541239568498 129.1696639744623,62.35197091268128 129.03794194583315,62.50597548575024 128.15430667053442,62.92306924220247 128.17626034197747,63.37224392837015 127.82500159897609,63.61608022310611 127.26518297736766,64.20000000000073 128.1652835062705,63.37224392837015 128.1652835062705,62.897402016893466 129.0763608708512,62.4482238166529 129.14771030301927,62.34555404697312 129.05440719943726,61.92845632177705 129.32882809234434,61.27392795920241 129.07087245301227,60.86965691477599 129.7404594318068,59.44506129315778 130.27283596413326,57.98192827611274 130.71739781065844,57.218261505593546 130.93693452505977,56.97439950393891 131.1729364929779,56.91664257051889 131.35405428236118,56.54442990310781 131.233309089439,56.255642639913276 131.28819326803205,55.973271542487055 131.4199152966321,55.47911895993093 131.68884777172934,55.094062209685944 131.57907941457233,54.80526804333931 131.58456783241127,54.13140964271588 131.39796162521816,53.79768652086932 131.40893846092513,53.508886183746654 131.06865655365982,52.501283131136006 130.71739781065844,51.641277479448036 130.51432634991943,51.461573266053165 130.43748849985423,50.88394897454782 130.05878766759997,50.088102052435715 129.82278569968184,49.94048413664859 129.7843667746638,49.62599259646231 129.62520265675266,49.362845360912615 128.93915042438312,48.70818143186261 128.76352105286787,48.21396966787506 128.2421213562775,47.430924602478626 127.70974482398015,46.91744694042427 125.7613564839994,44.55539370121187 125.68451863399241,44.52329995308901 125.61316920182435,44.65809358109618 125.7613564839994,44.61316240505039 125.4046093231882,44.17026760265071 125.31679463741602,44.131754858284694 125.0807926694979,44.292224465152685 124.44413619782426,43.573317316375324 124.29046049778117,43.55406075769133 124.06543536557001,43.28446829409222 124.14227321560611,43.104739319180226 122.9842170473712,41.87871674400594 122.5835625436448,41.72465979823028 122.5067246936087,41.60911683205268 122.20486171136145,40.57563939828833 122.23230380067253,40.107038235946675 122.13900069709052,39.93371908037079 122.26523430785164,39.4586936698106 123.0610548973782,38.7204711187951 123.75259554761578,38.23901678632683 123.86785232264083,38.32246914454299 123.81845656191581,38.23259736939144 124.07641220130608,38.00791734872473 125.28386413029511,37.5136183723007 126.01931212338968,37.02573491109797 129.58129531386658,36.04995620961563 130.15209077121108,36.03069726140893 130.2947896355472,35.92156310595601 130.76130515357363,35.89588445258778 134.7349196834839,36.04353656090461 135.76674224095768,36.25538460988173 136.29911877331324,36.12057230071878 137.66024640231626,36.20402757507327 141.49665048578754,35.59415946079025 141.82046713947784,35.65193670313238 142.99498856128776,35.388728819834796 145.45928817996173,34.34230568767816 145.5635681193089,34.111191394898924 147.01799885195214,33.3472239898183" stroke="#ff0200" stroke-linecap="round" stroke-linejoin="round" stroke-width="0.5"><title>2021-12-31 20.9km</title><desc>1640918307000</desc></polyline><polyline fill="none" points="188.19999999998254,36.63547319282952 187.97351456305478,36.92984318530944 187.558291262103,37.15061986118235 187.23743689319235,37.010794714602525 186.5768543689046,37.27572633274394 184.9725825242349,38.21769723804027 184.05405825239723,38.916808012945694 182.68885436889832,39.52760430084163 182.54415533976862,39.84403882056358 182.32396116500604,40.00593499434035 182.05972815532004,39.96914044251753 178.41079611648456,41.2642969393637 176.83168932035915,41.6027997718993 173.45957281554,42.08111618057592 172.15099029123667,42.13262698206381 170.6536699028802,42.02224664641108 169.96792233004817,41.83827903071506 165.74648543688818,41.735256953164935 164.21141747568618,41.91922484161478 163.56341747569968,42.154703028150834 162.047223300935,42.46376693704951 161.58166990289465,42.375463103358925 160.04031067958567,42.89056721815723 159.25390291260555,43.574913921904226 157.9012815533788,44.20038619756815 156.3410485436616,45.34093879678403 155.9321165048459,45.90017065180291 155.85033009707695,46.61392056179466 155.85662135918392,47.01126269647648 156.2215145631053,48.29892993172689 156.33475728152553,48.43873236741638 156.73739805823425,48.50495447564026 157.72512621356873,49.5865733126775 158.0459805825085,50.050119090672524 157.9956504854199,50.18256017376552 159.27906796112075,51.39659167751233 159.66283495142125,51.720329831041454 159.9899805825262,51.74240283208201 160.01514563104138,52.08085463678435 160.2730873786204,51.97049009890907 160.68831067960127,52.323656003361975 161.24823300968274,53.04469748753036 161.38664077667636,53.38314295212331 161.86477669898886,53.80987618954532 162.1919223300647,54.42054161111446 162.77700970869046,54.92819914368738 163.51937864074716,56.37757778715604 164.4693592232943,57.1353627149947 164.62664077666705,57.73128486696078 164.79650485437014,57.826926218178414 165.36271844655857,58.908400035928935 165.3123883494991,59.36452680717048 165.2620582524105,58.790689415727684 164.80908737861319,57.87842535281379 164.60147572815185,57.723927834456845 164.45677669902216,57.12800561948097 163.72069902913063,56.4511495013503 162.8902524271689,54.95762845217541 162.19821359222988,54.26603640890244 160.25421359221218,51.90427129207819 160.01514563104138,52.03670884267922 159.99627184463316,51.74976049752877 159.82640776698827,51.77919115154509 159.44264077665866,51.52903019525547 158.05856310678064,50.145771009338205 158.1151844659762,49.8661727233266 156.75627184464247,48.497596466724644 156.27813592232997,48.35043612495792 155.79999999998836,46.768442772976414 155.97615533979842,45.7603631098973 156.963883495162,44.81113604641723 157.62446601939155,44.318121525793686 157.73770873784088,44.37698911512416 157.95790291260346,44.090009146224475 159.29794174755807,43.52340418948006 159.73833009708324,43.089249213502626 161.4684271844162,42.39753907229897 162.17304854365648,42.41961503423954 163.19223300967133,42.08111618057592 165.7150291261787,41.69110458745854 167.50174757279456,41.676387125990004 170.30765048542526,41.82356160040217 170.6599611650454,41.97809446306201 171.05631067958893,41.94865965857025 171.60994174756343,42.08111618057592 173.64831067959312,42.05168141973263 174.25856310676318,41.87507259280392 177.9200776698708,41.367319715121994 181.96535922324983,40.16783079090965 182.48753398054396,39.902910200129554 182.6951456310635,39.60855280352553 184.53219417470973,38.62244643878512 185.27456310676644,37.96012833721761 186.20566990287625,37.43026931015629 186.19937864074018,37.29780392200337 185.89739805820864,37.54065694069868 186.08613592229085,37.52593860009074 186.05467961161048,37.40083257906372" stroke="#4dd2ff" stroke-linecap="round" stroke-linejoin="round" stroke-width="0.5"><title>2021-10-24 15.8km</title><desc>1635032014000</desc></polyline><polyline fill="none" points="44.19999999998254,92.46060651994048 44.04179687501164,92.6900800149815 43.567187500040745,92.9195527565389 43.22546874999534,92.8011153066036 42.64960937501746,93.05279464778869 41.99148437503027,93.55615061101707 41.3143750000163,93.7634137774221 40.06140625002445,94.71089471045707 38.69453125001746,95.44370318535948 38.45406250000815,95.81380555549549 38.20093750001979,95.75458930798777 35.979765625001164,96.56880831369199 34.08765625001979,97.13135408621747 30.271796874993015,97.59767149185063 29.765546875016298,97.76791357901675 28.575859375006985,97.81972630586824 26.626796875032596,97.68649350210035 26.342031250009313,97.5680641300205 21.71617187501397,97.43483084657782 19.267187500023283,97.83452993503306 18.938125000015134,98.01217324069876 18.064843749976717,98.22682496603375 17.514296875015134,98.1676107628009 16.381562499998836,98.57470739686687 15.584218750009313,98.98920335192815 15.280468750017462,99.32968033347424 14.027499999996508,99.85519589755859 12.989687499997672,100.54354129368585 11.901249999995343,101.71297277153644 11.799999999988358,102.53452369303704 12.160703125002328,104.01477125505335 12.287265624996508,104.19979999669886 12.749218749988358,104.34782263743546 13.768046874960419,105.53939348005952 12.635312500002328,104.31821813435818 12.14804687499418,104.13318970612454 11.812656249996508,102.90458852180018 11.856953124981374,102.19406232045003 11.964531250006985,102.00902827035316 11.882265624997672,101.69076855858293 13.160546874976717,100.41771522217459 13.96421875001397,99.89220388696413 15.274140624998836,99.36668860110512 15.495625000010477,99.05581854402408 15.90062499998021,98.76715225309454 17.60289062501397,98.1750125409526 18.05218749999767,98.2934408846777 18.919140625017462,98.09359293824673 19.115312499983702,97.94555705397943 20.37460937499418,97.67168984158343 21.020078125031432,97.64948434488906 21.05171875000815,97.53845675563934 21.311171875015134,97.50144752003689 23.28554687500582,97.49404567055899 26.310390625003492,97.64948434488906 26.664765624998836,97.80492267353839 28.227812500001164,97.95295885565429 29.67695312498836,97.86413718400581 30.240156249987194,97.70869898703677 31.62601562499185,97.59026965255907 34.587578125006985,97.04253137049818 36.06203125003958,96.59101415371697 36.46070312501979,96.57621026116249 38.45406250000815,95.8064035273128 38.770468749979045,95.41409491110971 38.93499999999767,95.36228040092101 38.97929687501164,95.28825960546237 38.890703125012806,95.3326720921541 38.88437499999418,95.24384709058359 40.80812500001048,94.12612283955241 41.54218750001746,93.54874834372458 42.13070312500349,93.3118753757808 42.26992187500582,93.11941549814946 42.76984375002212,92.88254107500688" stroke="#4dd2ff" stroke-linecap="round" stroke-linejoin="round" stroke-width="0.5"><title>2021-10-13 11.9km</title><desc>1634129307000</desc></polyline><polyline fill="none" points="80.19999999998254,92.53226418864506 79.83992855722317,92.40440160538128 79.23552292119712,92.6601265416466 76.71502282196889,94.28471050969529 75.26187735659187,95.00673589891085 75.10756102399318,95.33014072400692 74.89537606664817,95.47304006127524 74.55459416547092,95.44295601416525 72.32343718991615,96.29282543972658 70.7609843222599,96.76664203117252 68.72915260962327,97.15772636014299 65.24417543160962,97.59393326342251 62.91014090095996,97.45855899393064 62.46005159750348,97.30814283632208 57.476920023793355,97.19533050907194 57.18114705296466,97.38335095495859 56.52530263940571,97.3457469056084 55.99162532246555,97.52624616094545 55.38721968641039,97.55632932554727 55.072157173999585,97.83459799425327 54.840682675130665,97.78947341933235 54.223417344648624,97.95493005384196 53.760468346852576,97.87972254049964 51.79936495333095,98.60923205970175 51.32998610835057,99.13567757346755 50.62913276441395,99.33121348477289 49.53605874176719,99.97046174586285 48.84163524504402,100.51193812522979 48.01861480448861,101.4745526076731 47.86429847186082,102.36947155786766 48.23079976183362,103.89607198187878 48.79662631472456,104.15927563577134 50.12760468345368,105.595598394626 48.8030561619089,104.1968760781383 48.3143877753173,103.99383345285605 48.185790831485065,103.7757499867148 47.79999999998836,102.48227566741116 47.986465568537824,101.4745526076731 49.137408215901814,100.27128246623761 50.15332407222013,99.57939290466311 51.41357412180514,99.08303319769038 51.62575907915016,98.77468678450532 52.01154991067597,98.5039424886927 53.811907124414574,97.86468102825893 54.31986505255918,97.96245080079098 55.097876562795136,97.78947341933235 55.38721968641039,97.61649561657396 57.23258583046845,97.35326771705877 57.451200634997804,97.2178929888687 61.22552093665581,97.22541381386691 62.74939472114784,97.36078852771607 63.16090494141099,97.54128774484707 63.366660051600775,97.48864218725066 63.78460011901916,97.59393326342251 65.9578884699149,97.57889169066038 66.5687239531253,97.40591337501246 70.41377257389831,96.87945503937954 71.77047033139388,96.51845278227847 71.9826552887098,96.64630795818812 75.10756102399318,95.37526686158526 75.32617582852254,95.05938329637866 76.67001389164943,94.36744295795506" stroke="#4dd2ff" stroke-linecap="round" stroke-linejoin="round" stroke-width="0.5"><title>2021-10-04 11.9km</title><desc>1633352342000</desc></polyline><polyline fill="none" points="116.19999999998254,91.74865835740638 115.94285714285797,92.04211654160463 115.50383275261265,92.24020011303219 115.18397212543641,92.09347159598838 113.94216027873335,92.82711107285286 113.48432055747253,92.80510200159188 113.07038327524788,93.40668076531438 112.29895470381598,93.80283953693288 112.17351916374173,93.71480445013731 111.947735191643,94.08895279621356 111.39581881533377,94.426418198389 111.00069686409552,94.49244384563644 110.42369337976561,95.10134407052101 110.26689895469462,95.13802463603497 110.16027874563588,95.00597450930945 108.26620209059911,95.79093545221986 106.38466898954357,96.36314436596876 103.85714285710128,96.8399815168741 102.26411149825435,96.97936406415101 101.33588850175147,97.17009762174712 100.76515679442673,97.08940271916072 100.16306620207615,97.17743351731042 99.95609756096383,97.03071545823332 99.66132404180826,97.11874633097614 99.2473867595545,97.03071545823332 98.58257839718135,97.09673862327327 98.26898954703938,96.90600486371113 96.73240418118075,96.82530965350452 94.33031358884182,96.72994246568851 93.1198606271646,96.78129404466745 93.04459930313169,96.8766611617757 92.5616724738793,96.86198930615501 91.18188153309166,97.20677709184383 90.84320557492902,97.41218176550319 89.92752613240737,97.4635328387667 89.73310104530538,97.3681665295735 87.75121951216715,98.13109332734166 87.3372822299716,98.60791830946255 86.08919860626338,99.08474000979186 85.16724738676567,99.71560675460205 84.41463414634927,100.49317879226874 83.79999999998836,101.71820382674923 84.25783972127829,103.39799336280703 84.72195121951518,103.55203315959079 86.14564459930989,104.95304606713762 86.10174216030282,105.2171081546694 86.4717770034913,105.5251793183561 86.34006968641188,105.4811692359799 86.4529616724758,105.63520440204593 87.21184668989736,106.25134164259362 86.17700348433573,105.27578848191479 86.15818815332022,105.08507723668299 85.81951219512848,104.65230746410816 84.86620209060493,103.59604446721642 84.34564459932153,103.36865241031774 83.99442508711945,102.20967484860012 83.98815331011428,101.7255392407751 84.07595818815753,100.87462603528547 84.88501742159133,100.00169559451751 85.99512195124407,99.20944668234006 87.3372822299716,98.60058256537013 87.77630662021693,98.14576491420303 89.79581881532795,97.41951763544785 90.15958188154036,97.52955559131078 90.9435540069826,97.39751002332196 91.27595818814007,97.16276172540529 93.08850174216786,96.91334078726504 93.14494773521437,96.81063778699172 97.09616724739317,96.85465337718051 98.4195121951052,96.9353485531974 99.49198606269783,97.17009762174712 100.35121951220208,97.11874633097614 100.63972125435248,97.20677709184383 100.65226480836282,97.14075403167953 101.66829268293804,97.13341813220904 105.61324041811167,96.51719980440976 105.97700348432409,96.59055941657425 107.70174216025043,96.1944165879031 108.54843205574434,95.76159127794381 110.42996515679988,95.06466348560207 110.69337979092961,94.70519272534875 112.4682926829264,93.70746818787302 110.66202090593288,94.64650344447728" stroke="#4dd2ff" stroke-linecap="round" stroke-linejoin="round" stroke-width="0.5"><title>2021-07-19 12.7km</title><desc>1626697422000</desc></polyline><polyline fill="none" points="152.12682343563938,93.5821268309628 152.1999999999971,93.63752029167517 151.8900757273659,93.77852153668573 152.01921084098285,93.95477250460681 151.97186129931652,94.1209513899521 151.61889198882272,94.44827173734302 151.01626145874616,94.7000550858902 150.6417696293356,95.00219334335998 150.54276604224287,94.98708647612511 150.21562375446956,95.21368898074434 150.01331207652402,95.22376017809438 149.48816261459433,95.68199739991542 148.6918294141069,96.18554969145043 148.51104025509267,96.23086913601946 148.21833399760362,96.5229267421746 147.30577919491043,97.09696577240902 147.06903148663696,97.44944244330327 146.25117576723278,97.97311724226893 145.63132722198498,98.61763215191968 145.4763650856912,98.63273786531136 145.46345157433825,98.78882995589083 144.45189318453777,99.64480972764795 144.12475089676445,99.52396645895715 143.92243921880436,99.3225603284991 143.2509366281447,99.09094222356362 142.88074930250878,98.79890039574457 142.51056197690195,99.23696246467443 142.40294938223087,99.27220866256539 141.57218015144463,98.55720925036803 141.32682343562192,98.63273786531136 141.17616580308822,98.83414691844155 140.83180550020188,98.95499194072545 140.62088481466344,98.88953425845102 139.81594260662678,99.36284162286029 139.35966520528018,99.53403674309811 138.70968513352273,100.06272366373014 137.57329613392358,100.63671994916149 137.47859705062,100.82301549949625 137.2848943802237,100.95392544949937 137.20310880828765,100.91364550327125 136.73391789557354,101.04455520372358 136.17863690714876,101.30637352322083 134.78397768034483,101.7695870179814 133.35918692706036,102.06161059745136 131.79234754882054,102.2479005645364 131.38341968912573,102.37880659122675 130.69039457952022,102.36370206806896 130.41921084097703,102.42915496704154 129.71327222001855,102.31335362293612 129.26990833002492,102.34859754013087 129.11925069749122,102.23783085524337 127.88385811081389,102.16230796759555 125.58955759265518,102.13713364505384 124.68130729375116,102.39894594794532 123.34691111995198,102.65068718731345 123.00685532084026,102.61544349404721 122.55057791949366,102.76648770985048 121.74994021520251,103.11388758527755 121.52610601834022,103.41597237026508 120.60494220805413,103.80364503247984 119.80000000000291,104.41787316903356 120.66520526105887,103.76840219380028 121.56915105620283,103.35555556679537 121.68106815464853,103.1038180593896 123.05850936628121,102.58523459330172 123.46743722597603,102.6305479372204 124.94818652850518,102.23279599979651 125.41737744121929,102.22272628730207 125.50346751694451,102.1421685106252" stroke="#4dd2ff" stroke-linecap="round" stroke-linejoin="round" stroke-width="0.5"><title>2021-06-28 10.0km</title><desc>1624885571000</desc></polyline><polyline fill="none" points="188.20000000001164,92.89678266159535 187.86077738513995,93.17953575782667 187.48339222614595,93.29362862886046 186.79222614840546,93.79960235829276 186.02897526499873,94.17659883686429 185.70247349824058,94.48910677442109 184.7017667844484,94.98514683646863 184.4007067137718,95.30757005862688 183.66713780919963,95.85816458168847 183.5441696113121,95.88296598437591 183.4339222614799,95.81352202371272 183.4339222614799,96.0069728008275 183.29823321553704,96.17562154413099 182.58162544170045,96.71132528772068 182.43321554770228,96.66668354317153 181.60636042401893,95.92760847614045 181.60636042401893,95.75895883952035 181.36466431096778,95.72423678010455 181.22897526502493,95.95737011366145 180.63533568906132,96.60220094813121 180.39363957596652,96.99901550940194 179.97385159009718,97.40574694482348 179.6643109540746,97.87199570757002 179.1978798586788,97.5595103477026 178.76537102473958,98.06543798060375 177.91307420496014,97.36110586230643 177.65865724382456,97.3859064689641 177.49752650177106,97.58927094801038 177.2431095406355,97.74303374826923 177.01413427561056,97.65375218378904 176.56466431095032,97.82239499601928 176.15759717315086,98.15967879846721 175.0763250883465,98.73503967835131 174.59293286220054,99.13679610134204 173.93992932864057,99.41951151812464 173.77879858658707,99.67246597067424 172.0063604240422,100.38668293237788 169.9964664311119,100.83802275720518 169.6190812720888,101.14056679823261 169.1653710247483,101.1951237124049 168.71590106008807,101.05625144223814 168.34275618377433,101.06121117326984 167.59646643110318,101.28439852576776 167.35053003535722,101.11576817986497 166.39222614842583,101.11576817986497 165.6204946996586,100.92729825125934 162.36819787987042,100.82314349164153 162.06289752651355,100.85290201801763 161.99081272086187,100.92729825125934 161.5583038869372,100.9471372268199 161.24028268553957,101.06617090375948 161.04522968200035,101.05129171068256 160.53639575974375,101.23976114034667 160.0572438162635,101.2943179389913 159.74346289754612,101.24472085194793 158.43321554771683,101.72085071946276 158.174558303901,102.01346979914888 157.81837455832283,102.14737961572973 156.6565371024917,102.85659929820758 155.9060070671694,103.58564610060421 155.8000000000029,103.99232033927547 155.99081272086187,104.69655274362958 156.0035335689172,105.10321733840465 155.85936395759927,104.508097222184 155.94416961134993,104.0915086424211 155.9060070671694,103.61540287192474 156.58445229684003,102.95579000623184 157.27561837458052,102.46975352989466 159.37031802121783,101.46790732999943 160.54487632510427,101.25464027355702 160.75265017668426,101.13560707561555 161.51166077741073,100.94217748371739 162.64381625442184,100.95705671145697 162.91943462897325,101.03145277923613 164.1024734982493,100.9917748911248 164.64098939931137,100.87770077556706 166.36254416960583,101.09096954837878 167.18091872792866,101.09592927573613 167.35053003535722,101.12072790459206 167.56254416963202,101.2744791104742 168.4657243816182,101.05129171068256 168.8346289752808,101.076090363189 169.01272084805532,101.20008342871733 169.2756183745514,101.18024456028797 169.644522968214,101.076090363189 169.92862190812593,100.83306300253753 171.8706713781139,100.44620052087703 173.10459363959671,99.90061979516759 173.41837455829955,99.83614165308609 173.81272084805823,99.6327869312081 173.8763250883494,99.48895013133733 174.37243816256523,99.1814354911512" stroke="#4dd2ff" stroke-linecap="round" stroke-linejoin="round" stroke-width="0.5"><title>2021-06-13 14.0km</title><desc>1623589641000</desc></polyline><polyline fill="none" points="44.19999999998254,145.57833644844504 44.05226011102786,145.78121187117358 43.58977002379834,146.05922539699532 43.210785091185244,145.92397570970934 42.64551942903199,146.1869609759524 39.56225218079635,148.1555625762703 38.58588421886088,148.62140687031933 38.42529738301528,148.92946351357386 37.89214908800204,149.17741057189414 36.35693893732969,149.71086948690208 35.56685170499259,150.1241095512887 34.14084060266032,150.4171328657394 35.63108643933083,150.07902893395658 36.37620935763698,149.69584253012 37.847184773971094,149.16238350213825 38.30325138778426,148.95951774859714 38.60515463916818,148.57632529814146 39.253925455966964,148.20815805297752 38.64369547975366,148.53875729943684 38.483108643908054,148.8618414381781 37.94996034889482,149.1398428915054 36.44686756542069,149.66578860698064 35.605392545607174,150.09405580958264 32.64417129260255,150.72518171196862 32.059635210142005,151.13841586859053 31.250277557468507,151.23608904485445 30.614353687531548,150.99566252296063 29.021332275966415,151.3563020002839 28.63592386993696,151.1233892141463 27.184218873881036,151.07830923174333 25.79674861219246,150.8078287358221 20.754321966669522,150.73269508174417 20.574464710516622,150.84539553304785 19.848612212517764,150.89047566342197 17.65178429815569,151.44646158320393 16.816732751758536,151.48402804227953 15.512767644686392,151.96487696168333 14.99246629656409,152.25037946573866 14.774068199796602,152.60349939479056 13.566455194260925,153.0618013630592 12.692862807278289,153.61777026899654 11.799999999988358,154.42166355154768 12.217525773157831,154.00093549286248 13.367327517829835,153.1820112253481 14.793338620103896,152.55842035276874 15.416415543179028,151.97990343790298 16.41847739883815,151.5892140218566 17.279222838988062,151.38635520733806 17.491197462310083,151.5065679081672 18.441871530521894,151.3262487805332 18.718080888153054,151.1609558442724 20.580888183962088,150.8303688165397 20.670816812023986,150.72518171196862 21.994052339403424,150.66507472502417 25.98945281523629,150.86042224633275 26.374861221265746,151.01068920443504 27.184218873881036,151.09333589574817 27.826566217263462,151.01820254398626 28.501030927785905,151.09333589574817 29.03417922279914,151.37884190674959 29.535210150672356,151.18349581281655 30.62077716094791,151.00317586409074 31.29524187152856,151.22106241111032 32.04678826328018,151.15344251983333 32.55424266454065,150.7477218189306 33.26724821567768,150.67258810118074 35.56042823154712,150.1466498492009 36.928628072928404,149.50800530173 37.98207771606394,149.1849241056043 38.450991276768036,148.92946351357386 38.675812846951885,148.59135249205428 39.58794607454911,148.11048070805555 39.889849325903924,148.1405352900547 41.25162569389795,146.90077321269928" stroke="#4dd2ff" stroke-linecap="round" stroke-linejoin="round" stroke-width="0.5"><title>2021-05-16 11.9km</title><desc>1621158058000</desc></polyline><polyline fill="none" points="80.19999999998254,139.65706371717533 79.82598317350494,139.85727886521636 79.52803756599315,139.68672525670263 78.96384269220289,139.93143247843545 75.92733320285333,141.9409654916817 74.9447466249112,142.39328784828103 74.76724711403949,142.71213627808174 71.95261201326502,143.86887653186568 69.06824496181798,144.49914362718118 68.4469966737961,144.9217901486627 67.78137350807083,145.00335321879538 67.34396399918478,144.8031527861458 66.91923302676878,144.7660785691478 65.46754059867817,145.10716062517895 65.14423791816807,144.89213082687638 63.67352768534329,144.810567627188 62.77335159457289,144.6919300762238 62.53879866949865,144.57329232427583 61.004695754207205,144.56587745808793 60.69407161019626,144.71417463235412 59.22336137740058,144.51397337289382 58.48166699273861,144.6845152226233 56.79542163957376,144.57329232427583 55.254979456047295,144.87730116127204 54.995069458003854,145.07750138191477 53.12498532573227,145.40375236690306 50.03776169044431,146.84220449309942 49.7841909606359,147.10171590562095 49.48624535315321,147.1462034797878 47.94580316962674,148.58461981429718 47.88241048716009,149.65970551328064 48.09794560750015,150.29733475168905 48.07892780273687,150.7273604951988 48.199373899406055,151.0387567991129 48.32615926431026,151.19445443187578 48.78258657793049,151.33532342044782 50.10115437291097,152.77365371986525 50.08213656817679,153.00348726785887 51.62891801993828,154.48626622426673 51.83811387201422,154.61230098818487 52.05364899232518,154.50850766968506 52.497397769475356,154.90885247932601 53.258109958900604,155.9022908272309 53.53703776167822,156.45089999589254 54.874623361363774,157.7705098594888 55.07747994517558,158.24497025195888 55.3817648209224,158.60081343760248 55.54024652708904,159.1049215233652 55.95863823124091,159.65350561291416 56.503815300326096,160.06123424813995 56.59256505573285,160.34293628282467 56.54819017800037,160.03158133649413 55.98399530421011,159.64609234303498 55.92694189000758,159.46817363069567 55.59096067302744,159.18646807874757 55.36274701621733,158.60081343760248 54.830248483631294,157.8001637281559 53.353198982571485,156.19142322188418 52.91578947365633,155.50936540369003 52.02195265109185,154.60488718483248 51.69231070240494,154.6345423935636 51.5338289962383,154.53816291921976 49.96802973974263,152.94417545671604 50.08213656817679,152.7217557175536 48.68749755425961,151.32790927020687 48.199373899406055,151.17962610081304 48.059909998002695,150.93495818495285 47.79999999998836,149.6152195358154 47.88241048716009,148.68100748150755 48.92205047933385,147.5910776669116 49.98704754447681,146.86444836611918 51.337311680661514,146.34542282072653 51.73034631184419,146.034005646914 53.086949716263916,145.35184890279925 54.79855214242707,145.0404273101667 55.19158677360974,144.84022698352055 56.45310115432949,144.58812205424329 60.07282332223258,144.66227065709973 60.80817843863042,144.484313878369 62.39933476812439,144.5807071896561 63.48334963800153,144.84022698352055 64.8019174329529,144.84022698352055 65.1252201134339,144.91437531940755 65.32807669730391,145.08491619391862 65.82253962039249,144.8995456584962 66.74173351592617,144.7512488768407 67.10307180590462,144.7512488768407 67.572177656024,144.96627910779353 68.36458618662436,144.84764182065555 68.92878106044373,144.4472394925251 71.86386225782917,143.8318018201826 73.56278614749317,143.0680583916037 74.16501663078088,142.90492764751252 74.66581882210448,142.6528157499415 74.82430052821292,142.35621235523286 76.53590295440517,141.40707304829266" stroke="#4dd2ff" stroke-linecap="round" stroke-linejoin="round" stroke-width="0.5"><title>2021-04-25 14.9km</title><desc>1619340257000</desc></polyline><polyline fill="none" points="116.20000000001164,144.1229011894102 115.01359498276724,144.90504015460465 114.86283633418498,144.90504015460465 114.70552296176902,144.6596641342985 114.83006271492923,144.82069224146835 114.94804774428485,144.81302424447495 114.70552296176902,144.73634423001204 114.75140602869214,144.8667002062648 114.00416750958539,145.59515575139085 112.52279991906835,146.30826828820864 109.78292534899083,148.6239186114617 109.25199271697784,148.96129194565583 109.08812462069909,148.90761902039958 109.2126643738593,148.96129194565583 108.69484118954279,149.52868900695466 106.3285858790041,151.61421836596128 105.03730528015876,150.83981925692933 104.00821363541763,151.72922742809897 103.30030345942941,151.33819587132166 103.3134129071259,151.0621723242075 103.13643536312156,151.02383563719195 102.23188347156974,149.97340251346031 102.10078899454675,149.88139304662036 101.75338863037177,149.9350652498324 101.49119967629667,150.24943021225772 101.09136152133578,150.46411769471888 100.77018005258287,150.33377179916715 100.06882460042834,150.60213074007333 96.96188549461658,152.61095750091772 95.92623912604176,153.10932192204928 95.81480882054893,153.39300475257915 95.56572931419942,153.53867928760883 93.69763301635976,154.19037756595935 92.79308112483704,154.66573025713296 92.30803155977628,154.67339721042663 89.84345539147034,155.27141706737893 89.4108436171955,155.6164262763632 88.74226178432582,155.76976317486697 88.38175197248347,155.76976317486697 88.17855553308618,155.6164262763632 87.74594375886954,155.5244239813983 86.16625531052705,155.8770988105898 85.77297187939985,155.6317599808317 84.21294760267483,155.63942683186178 83.79999999998836,155.54742456610256 85.58288488772814,155.62409312900127 86.11381751971203,155.86176515807165 86.4612178838579,155.83876467323716 87.23467529838672,155.54742456610256 87.83115516891121,155.50909025417786 88.6898239935399,155.75442949962599 89.43706251264666,155.58575885769824 89.95488569696317,155.23308260933118 92.90451143030077,154.61972852018516 93.77628970259684,154.17504355620622 95.74926158203743,153.4313401849504 95.9655674691603,153.10932192204928 97.54525591744459,152.2582667605384 100.2261379729025,150.5484590314809 100.73085170949344,150.35677403307636 101.03892373052076,150.49478728309623 101.57641108639655,150.2187605199215 101.75994335423457,149.96573506234563 102.12045316607691,149.88906050666264 103.1167711915623,150.9931662729723 103.1102164677286,151.16951493980014 103.33963180254796,151.36119778608554 103.3789601456374,151.53754555634077 103.86400971069816,151.83656905456883 104.14586283633253,151.76756374153047 104.40805179040763,151.29985933049466 104.76200687841629,151.10817632182443 105.27327533887001,151.36886508936732 105.72555128464592,151.77523100179678 105.88941938095377,151.76756374153047 106.35480477442616,152.03591736715316 106.43346146066324,151.75222921858222 107.1151527412294,151.03150297621323 111.10042484322912,147.59645377030392 112.39170544201625,146.5919777738236 112.56868298602058,146.5919777738236 112.67355856767972,146.72999820254336 112.44414323286037,146.57664215438126 112.63423022456118,146.72233040786523 112.50313574753818,146.5996455823115 112.76532470161328,146.35427530737797 114.99393081123708,145.04306380040362 115.44620675701299,144.72867622410558 115.41343313775724,144.61365603785816" stroke="#4dd2ff" stroke-linecap="round" stroke-linejoin="round" stroke-width="0.5"><title>2021-02-19 11.5km</title><desc>1613725663000</desc></polyline><polyline fill="none" points="149.83852823995403,141.3573863515412 149.48924302784144,141.58835326956614 148.6919615654624,142.62769652539282 147.15814389497973,144.24442708752758 147.15055073818075,144.47538605109003 148.30471056947135,146.65169888402306 147.37834544174257,147.5222081987231 145.6395125380659,148.38382586471562 145.2370752284478,148.86348547090893 144.37904851179337,149.4053198734473 143.02746660413686,150.60444913454558 141.8353409889387,151.43050598281116 140.66599484413746,152.57631329959258 140.39264119984,152.65625276066567 140.27115069131833,152.54078462575126 140.31670963202487,152.91383495018817 138.64621513939346,154.41490162432456 137.94005155845662,154.1839700387427 135.98861026478698,152.7450742947185 135.28244668385014,153.62440240549768 134.5762831028551,153.33129405976797 133.57398640728206,152.42531633184262 133.12599015698652,152.57631329959258 132.95134755093022,152.86942428431212 132.4426060463884,153.16253424446768 131.99460979606374,153.0026562113926 131.33400515580433,153.23359105019335 130.5063510662876,153.86421756267373 129.74703538784524,154.15732404562732 127.90189828915754,155.42744030011818 126.57309585186886,156.10245929212397 126.31492852119845,156.51102077936957 126.03398172016023,156.67089212386782 123.7940004686534,157.4880075695546 122.79929692987935,158.02090465804213 122.22221701426315,158.0475494236016 119.79999999998836,158.64261364846607 122.9283805952582,157.94097031065758 123.68769627370057,157.51465250438196 126.22381063975627,156.54654777112592 126.49716428399552,156.1379864569899 128.68399343799683,155.01887353378697 129.99760956171667,154.03297596586344 130.4228263416444,153.89086364892137 131.2580735879601,153.30464779571776 132.08572767747683,152.97600984289602 132.2679634403321,153.16253424446768 132.45019920312916,153.14477003359934 133.2474806655373,152.53190245495352 133.63473166158656,152.48749158677674 134.6598078274692,153.62440240549768 135.1153972345346,154.317199877245 135.7228497773176,154.76129781026975 136.03416920552263,154.6103047769211 136.391047574376,153.91750972668524 136.70996015932178,153.80204332850553 138.30452308410895,154.90340865209146 138.72973986403667,155.01887353378697 138.38804780872306,154.82347133323492 138.6917740801291,154.49483933268493 141.6606983829115,151.67920967656391 143.60454651978216,150.0892697754316 143.72603702830384,150.11591706131003 143.9082727911591,149.80503153264726 145.53320834308397,148.60589083835657 145.88249355516746,148.91678081329883 145.85212092800066,148.39270847497392 147.9706116709276,147.02477541138796 148.28193109910353,147.15801662598096 148.13006796341506,147.06030642264523 149.46646355750272,146.0743152711657 152.13166158890817,144.47538605109003 152.19999999998254,144.4132048542524 152.04813686429407,144.36878968543897" stroke="#4dd2ff" stroke-linecap="round" stroke-linejoin="round" stroke-width="0.5"><title>2021-02-04 10.8km</title><desc>1612431040000</desc></polyline><polyline fill="none" points="187.38396131372428,144.08932769576495 187.51452750351746,143.9594921882017 186.74418698364752,142.72986196043348 186.27414870038047,142.2716093044146 186.05218617772334,142.38617274159333 184.0022969977872,144.6392166643127 183.89131573645864,144.73086441784108 183.68893814226612,144.57811809722625 183.37557928674505,144.82251205483772 182.97735240781913,145.26547399084666 182.85984283697326,145.70079599978635 182.63135200485704,145.8764515044968 181.704332057212,146.43396396657045 181.22776546442765,145.9910092117061 181.46931291557848,146.26594696619577 181.39750151117914,146.62489190066117 179.92210356637952,147.6482570074004 179.47165021157707,147.83154474612093 178.87104573848774,148.36613132206548 178.6360265968251,148.4195897615864 178.39447914567427,148.8548927220836 177.84610114851967,149.2290984291103 176.97783598629758,150.1073286836836 176.21402377594495,151.27574017555162 175.54160789845628,151.82557432515023 175.3914567801985,152.13867245315487 174.94753173485515,152.52049759829242 174.36651219023042,152.16158201888902 173.50477533749654,152.95577579710516 173.20447310098098,152.77250108634325 172.29050977231236,151.81030121095682 171.846584726969,151.8332108810282 171.60503727584728,152.12339940528182 171.16111223050393,152.3677677828964 170.85428168447106,152.22267415859824 170.33854523472837,152.41358676149684 167.1527302035247,154.4677743846696 166.05597420915728,154.96413064426451 165.83401168647106,155.2924875227036 163.89510376786347,156.03319405963703 163.08559339112253,156.46845105260581 160.08257102558855,157.06406162749772 159.49502317150473,157.49931239795114 158.84219222248066,157.60621569407522 158.5745315333479,157.61385163772502 157.92822889384115,157.39240894334944 156.91634092284949,157.5374921647599 156.35490630668937,157.72839069557813 155.79999999998836,157.4840404855713 156.4201894016005,157.69021102985425 156.84452951847925,157.51458430710773 158.07838001209893,157.3389571566222 158.84219222248066,157.56803596364625 159.44279669557,157.45349665110552 159.9977030022419,157.04878962294606 163.16393310498097,156.39972643889632 163.89510376786347,156.01028572406358 165.9123514003877,155.23139798411285 166.10820068509202,154.9259495148508 167.41386258311104,154.32268498647318 170.35160185373388,152.32194877519942 170.88692323194118,152.1768550586712 171.21986701592687,152.3143122710826 171.93145275031566,151.73393559143005 172.27745315333595,151.71866245780984 173.14571831555804,152.63504474751244 173.19794479146367,152.82595625844988 173.0934918396233,152.95577579710516 173.35462421920965,153.02450369353755 174.11843642959138,153.7041426975411 174.22288938143174,153.66596090087114 174.22941769091995,153.41396053576318 174.80390892605647,152.79541045067162 176.36417489423184,153.78814257904014 177.2128551279602,152.8717749458301 178.15293169452343,152.06230718145525 178.38142252669786,151.68047960964032 180.88176506143645,149.73312753557548 181.03844448921154,149.51166063495475 182.51384243401117,148.4348635941933 182.69010679025087,148.5188696155601 182.61176707636332,148.41195284409332 183.94354221236426,147.48024283748964 184.79222244609264,147.06784276011604 186.09135603468167,146.22012407993316 186.43735643761465,145.83062837060424 188.20000000001164,144.95998329183203 187.65162200279883,144.13515193673084" stroke="#4dd2ff" stroke-linecap="round" stroke-linejoin="round" stroke-width="0.5"><title>2021-01-10 11.9km</title><desc>1610268157000</desc></polyline><polyline fill="none" points="39.01045500706823,184.85382657323134 38.88774735898187,184.8000000000011 38.67300897480163,184.86877838091095 37.9495451329276,185.36816420851392 37.272096659071394,185.75092101883274 37.04457622823247,185.83763863769127 36.90397371479776,186.02004379425307 36.142163732874906,186.29813463400933 35.79704847262474,186.46857605299192 34.61087454104563,186.72573133448714 34.431925887576654,186.86626869632528 34.07147217130114,186.90514060908026 33.958990160535905,186.8393573407593 33.80049278175284,186.8184262686991 33.227857090649195,186.95896316917242 32.98244179447647,186.86028839730352 32.55552143548266,186.8812194383263 32.036570340409526,186.77656407802533 31.612206390753272,186.74666247525965 30.847839999507414,186.8184262686991 30.21385048434604,186.75264279835392 29.219407252923702,186.80347549343423 29.099256014160346,186.83636718855632 28.98166118473455,186.94999274962174 28.62376387779659,186.98886454712374 28.112482010750682,187.12043023392107 27.588418097016984,187.42841114921612 27.00555676856311,187.67957756432952 26.58886204691953,187.97260222523073 26.21306987463322,188.3762536668528 26.141490413239808,188.77989933914614 26.312769838710665,189.39283173619515 26.458485170820495,189.47056855312803 26.50450053885288,189.4526293066774 27.041346499259816,190.02667954194658 27.02856445258658,190.15823107769756 27.565410413008067,190.66948236521603 27.734133429126814,190.786082240209 27.79037443450943,190.77113356517475 27.89518721724744,190.83690767611915 28.04090254935727,190.96247600807874 28.378348581609316,191.41989878291497 28.96120991006319,192.05669070526346 28.994443231422338,192.24204528135306 29.150384200867848,192.37358650082024 29.17083547555376,192.49017934244148 29.296099532977678,192.68449967589913 29.395799497055123,192.80707027575954 29.485273823796888,192.8250073921172 29.56452251318842,192.9326298510896 29.646327611917513,192.97149341608383 29.700012207962573,193.2046736834527 29.77670448801655,193.26147371351 29.99655569085735,193.67700730229262 29.978660825494444,193.84740420142043 30.02467619354138,193.98192734331133 30.083473608247004,194.01481068059002 30.357009407132864,194.52599218427167 30.357009407132864,194.63958681818076 30.51806319525349,195.11787500462015 30.574304200621555,195.66789641182731 30.415806821838487,195.90404362266963 30.36212222580798,196.21790711460926 30.41325041251548,196.31057090768627 30.32888890443428,196.5048649713408 30.19339920967468,196.52877799455928 30.091142836259678,196.66029926059673 29.85850958674564,197.05784845751623 29.615650699895923,197.75728234390044 29.28331748630444,198.40588719115294 29.145271382207284,198.55832211525922 28.96887913806131,199.0126330919793 28.577748509764206,199.74489528557933 28.493387001697556,199.83455874059473 28.30165630155534,200.3097703049225 28.127820466761477,200.53093522754352 27.930976947929594,200.90750935849064 27.7290206104517,201.13165824581483 27.65232833038317,201.29005572137066 27.626764237036696,201.5590305339756 27.578192459681304,201.60087083042708 27.3404463914776,201.62776813117125 27.123151597988908,201.88179693189886 26.793374793734984,202.4406522610152 26.187505781272193,202.90984312659748 26.0878058172093,203.0682306422841 25.995775081129977,203.0742075122962 25.89863152639009,203.00547343085236 25.801487971650204,202.99650810356798 25.12403949777945,203.32822332036994 25.08313694842218,203.29833922607395 24.92719597897667,203.3491421676008 24.891406248279964,203.4358057983991 24.692006320139626,203.48959688394825 24.48749357330962,203.60614388499744 24.313657738515758,203.60614388499744 24.15516035973269,203.66889976355742 24.150047541043023,203.75257405170487 23.960873250252916,203.90498015475714 23.838165602152003,203.92888691993357 23.61320158065064,203.89302676458829 23.500719569885405,203.95578200661112 22.981768474841374,204.00359543087325 22.751691634650342,204.20680158229516 22.447478923757444,204.21576652594013 22.365673825028352,204.33828713761613 22.235296948929317,204.29047427913247 22.143266212864546,204.33828713761613 21.989881652742042,204.29047427913247 21.90552014466084,204.36518183500084 21.80326377126039,204.33828713761613 21.7214586725313,204.4219594454862 21.621758708453854,204.35322863932015 21.307320360225276,204.4219594454862 20.803707721162937,204.64608047928596 20.1978387087147,205.03156450343704 19.737685028347187,205.47381877354928 19.834828583087074,205.62920376754664 19.584300468239235,205.98180501108618 19.489713322836906,206.23579470915502 19.241741617312073,206.3045209413376 19.152267290570308,206.52265092018934 19.08835705718957,206.8812170938072 19.175274974593776,207.00970220005183 19.175274974593776,207.13519871725293 19.006551958460477,207.43399770817268 19.093469875850133,207.94493667120514 19.300539032017696,208.26763020986436 19.38234413076134,208.6739798014114 19.68144402297912,209.0444699315467 19.847610629774863,209.39404084863236 19.898738816482364,209.7256810603103 19.97543109652179,209.90195670803405 19.896182407130254,210.07823125776304 19.898738816482364,210.24255400173206 20.098138744622702,210.5950977604025 20.1978387087147,211.12689274890545 20.397238636855036,211.37187359531345 20.397238636855036,211.91261649459375 20.399795046192594,211.96041647493075 20.440697595549864,211.96340397101812 20.43302836753719,212.1097908931879 20.346110450147535,212.2442271956661 20.169718206016114,212.31592629591796 20.167161796664004,212.3607381413458 20.231072030059295,212.37567540739474 20.136484884656966,212.39061266554745 20.075131060599233,212.7610541463455 19.962649049863103,212.88055036410333 19.788813215054688,213.36450488773698 19.776031168396003,213.4242517860439 19.832272173764068,213.5288085546581 19.66099274829321,213.72298438614234 19.581744058887125,213.61245369150856 19.49226973215991,213.63635225664802 18.715121294226265,214.47577655804344 18.587300827464787,214.74761325664076 18.41857781134604,214.90294734119016 18.150154831149848,215.05230623420175 17.53917299999739,215.6736307732208 17.495714041302563,215.93052058919238 17.421578170586145,215.96935256789584 17.242629517102614,216.2202656081572 17.107139822343015,216.51598169422323 16.989544992917217,216.6145530366648 17.10969623166602,216.63247506206608 17.117365459678695,216.72507201261033 17.191501330395113,216.64143607051847 17.107139822343015,216.731045999024 17.066237272971193,216.91623895270823 17.15571159971296,217.11039155538674 17.22729106110637,217.18805222376614 17.29887052248523,217.20000000000073 17.15571159971296,217.11039155538674 17.073906500969315,216.9490956405789 17.089244956994662,216.76390290175914 17.18638851173455,216.65338407736272 17.168493646386196,216.495072577467 17.211952605095576,216.53689079553624 17.25796797312796,216.438319182751 17.347442299855174,216.41741000865477 17.511052497313358,216.10377054453238" stroke="#ff0000" stroke-linecap="round" stroke-linejoin="round" stroke-width="0.5"><title>2020-12-25 20.9km</title><desc>1608882820000</desc></polyline><polyline fill="none" points="65.56408780510537,202.95208806797746 65.77263284567744,202.46413807108183 64.14598152879626,202.02498263173038 57.347413203911856,193.24178588596988 62.68616624409333,186.94705848605372 65.39725177246146,185.2391718684812 73.07170926779509,193.5345618102292 78.86926139751449,202.46413807108183 79.3280604868196,204.36714013514575 68.6922634143848,211.68630554978154 59.05748253688216,217.20000000001164 54.678036683937535,212.6621854819823 48.379976456519216,202.70811313419836 53.4267664400395,197.48701856596745 56.38810601690784,193.29058188633644 65.35554276406765,185.0927812922455 71.31993092643097,190.89957179047633 78.9943884217646,202.26895792753203 79.45318751130253,204.1719607981795 78.16020825924352,205.7821878536779 73.98930744663812,208.41709270782303 71.23651291010901,209.1490080471558 68.6922634143848,211.3935411667917 58.8489374963101,216.85844562473358 48.46339447284117,203.58642229106044 49.13073860295117,201.92739247719874 56.4715240332298,193.24178588596988 65.23041573981754,184.9951875488041 65.98117788601667,185.0439844231878 73.69734438951127,193.97372534740134 78.91097040544264,202.26895792753203 79.16122445417568,204.46472977258964 74.8234876091592,208.36829831055366 71.36163993459195,209.29539097537054 60.14191674836911,216.02895537306904 58.473556423326954,216.7608586139395 56.68006907380186,214.85790776804788 54.59461866761558,210.66162939509377 48.88048455421813,202.46413807108183 63.68718243925832,186.16631110419985 66.02288689441048,184.84879689503578 73.40538133261725,193.48576583582326 79.3280604868196,202.85449810998398 79.28635147865862,204.46472977258964 58.64039245597087,216.41930391301867 48.75535752973519,203.293652758206 48.92219356237911,201.8298023021198 55.971015935530886,193.6809497025679 64.9801616910845,184.80000000001746 65.93946887808852,184.9951875488041 72.02898406446911,191.53392261790577 79.20293346233666,202.41534304289962 79.62002354371361,203.97678137864568 74.36468851962127,208.02673738455633 70.90284084528685,209.2465966711461 60.058498732047155,215.9313681863714 58.431847415398806,216.41930391301867 56.846905106445774,214.46755790468887 48.63023050525226,202.5617281117593 56.88861411460675,192.46104917800403 64.43794458545744,184.84879689503578 66.02288689441048,185.0439844231878 72.61291017825715,192.363456996507 79.49489651923068,203.48883246743935 77.11748305615038,206.02616115871933 70.90284084528685,208.95383073706762" stroke="#4dd2ff" stroke-linecap="round" stroke-linejoin="round" stroke-width="0.5"><title>2020-12-16 11.9km</title><desc>1608123652000</desc></polyline><polyline fill="none" points="101.34890861134045,207.23859631901723 101.77044255263172,206.15367809208692 101.22244842885993,205.06875733583 101.93905612896197,204.37835190139594 101.39106200542301,202.6523338338011 96.58557507698424,195.40298804285703 93.80345106590539,192.4933549114212 99.11477872356772,186.2301845762704 101.6439823701512,184.9972670994175 107.71407112199813,190.8166089117003 113.27831914415583,198.80575625310303 115.89182957913727,203.98383405033383 114.03708023834042,205.85779086392722 94.9837461009156,217.20000000001164 84.10817042086273,202.50438913033577 100.88522127619945,184.89863356016576 101.6439823701512,184.80000000001746 107.4611507570371,190.717976605898 115.21737527335063,202.15918463896378 115.68106260849163,204.181093017658 111.76079695648514,207.48516829076107 107.88268469832838,209.01391159868217 96.75418865354732,216.55892598442733 94.85728591843508,217.10137328592828 90.97917366074398,213.0576600098284 86.93244782602414,206.54819410358323 84.1503238149453,203.63863065635087 84.1503238149453,202.80027849052567 92.79176960722543,192.88788250397192 100.80091448803432,185.0465838611708 101.98120952304453,185.19453411523136 107.75622451584786,191.35908621986164 111.46572319744155,196.43861578439828 115.55460242624395,204.27972246985883 111.80295035033487,207.38653951775632 107.79837790993042,209.06322581524728 97.76587011199445,215.62197006554925 94.94159270706587,216.95343317554216 93.76129767205566,216.36167226356338 84.27678399742581,202.75096361030592 100.88522127619945,184.94795033236733 102.23412988777272,185.34248432214372 108.17775845713913,192.00019495049492 112.94109199149534,199.0523326927505 115.38598884968087,204.08246354447328 110.58050192147493,208.07694048955454 106.95531002804637,209.55636769428384 95.953274165513,216.65755281361635 94.39359858352691,217.1506866455893 92.79176960722543,215.32608885713853 88.1970496494323,208.02762616830296 84.36109078559093,203.63863065635087 84.48755096783862,202.55370403680718 93.50837730732746,192.44403893890558 101.55967558198608,184.9972670994175 107.79837790993042,191.70429872302338 113.4469327207189,200.08795231292606 115.17522187903523,204.32903718823218 110.45404173899442,208.27419772185385 105.85932178120129,210.29607953323284" stroke="#4dd2ff" stroke-linecap="round" stroke-linejoin="round" stroke-width="0.5"><title>2020-12-07 10.0km</title><desc>1607347269000</desc></polyline><polyline fill="none" points="152.19999999998254,190.0186227744707 152.0490683229873,190.24667096829944 151.56482919253176,190.5188565419885 151.26296583848307,190.37908570496074 150.66552795030293,190.60713271518762 149.9423136645928,191.17356882326567 149.28198757761857,191.43103825432627 148.458152173931,192.02689241997723 146.88594720495166,192.82135668917908 146.4142857142724,193.36570659022254 144.55279503104975,194.04981595671416 143.76669254657463,194.47646139757126 140.76692546581035,195.13113637488277 140.2638198757486,195.50628442365996 139.43998447203194,195.56513099258882 138.85512422359898,195.35181194306642 137.34580745341373,195.7122471967814 136.7986801242223,195.46950529277092 134.1951086956542,195.34445610209514 133.5096273291856,195.6901797860046 132.7423913043458,195.5504193550223 132.3273291925434,195.2046949755022 130.75512422359316,195.32974441779515 129.91871118012932,195.2046949755022 128.28990683227312,195.24147424659895 127.18936335403123,195.49157277363702 126.96925465838285,195.6313333230355 124.6927018633578,196.1168151518068 123.67391304348712,196.6170050024084 123.22111801241408,196.9627223530697 121.9947981366422,197.4923285748955 120.70559006213443,198.4485518049405 120.08299689440173,199.24294263324555 119.92577639751835,200.13294379071885 120.32197204968543,201.67754683557723 120.82507763974718,201.82465009661973 121.91933229813003,202.96468980993814 122.16459627327276,203.24418056212016 122.13315217391937,203.48689530326374 122.68656832296983,204.0532264022695 122.84378881985322,204.39890675261995 123.78082298135269,205.1123267197181 123.89402173910639,205.1123267197181 124.01350931677734,205.37709927694232 124.36568322978565,205.2888418699731 124.87507763976464,205.81838463045278 125.41591614903882,206.64946443786903 126.33408385096118,207.73794331197132 126.87492236023536,208.23069503439183 126.97554347827099,208.60577236187964 127.35287267083186,208.9734932668798 127.40947204967961,209.23089674277435 127.95031055898289,210.09870715093712 128.18299689440755,210.1722499078387 128.32135093165562,210.4002319596766 128.5100155279506,210.48112863702409 128.7175465838809,211.15036117471027 128.8936335403705,211.25331945472863 129.27096273293137,211.98137722553656 128.79301242236397,211.1871320065111 128.604347826069,211.0694652762395 128.47228260867996,210.53260829176725 127.89371118010604,210.09870715093712 126.7365683229873,208.25275846261502 124.99456521737739,206.24495780849975 124.87507763976464,205.97283384214825 124.23990683228476,205.31090623222553 124.08897515526041,205.42858271257137 123.98206521739485,205.39916361116775 123.95062111798325,205.11968152661575 123.81855590062332,205.16381035154336 123.54813664595713,205.00935934171866 122.0262422360247,203.61192983904039 121.9633540372597,203.52367019007215 122.12057453411398,203.28831057811476 120.75590062112315,201.89084646245465 120.27795031052665,201.72167784658086 119.79999999998836,200.01525834136555 120.03268633538391,199.16203287173994 120.85652173912968,198.30879692334565 122.0262422360247,197.43348363850964 123.42864906834438,196.8376758503873 124.43486024843878,196.25657444322133 125.24611801240826,195.93292091887997 126.95667701863567,195.6386891336224 127.2648291925725,195.45479363495542 128.40310559005593,195.23411839394248 132.10722049689502,195.2929651934246 132.93105590058258,195.67546817495895 133.62911490682745,195.7122471967814 134.30201863354887,195.32238857446646 135.62895962732728,195.48421694746503 136.94961180124665,195.49892859903048 137.33951863352559,195.7122471967814 138.86141304348712,195.34445610209514 139.5783385093382,195.60926588655275 140.345574534178,195.45479363495542 140.81723602482816,195.07964530810568 143.62204968943843,194.49117326259147 146.48346273292555,193.3362823803327 146.70357142854482,193.0052591599524 149.04301242233487,191.70321918644186 149.57756211180822,191.12207482252416 150.01149068324594,191.02644300555403 151.20636645963532,190.38644207180914 151.34472049688338,190.36437296892836 151.55854037267272,190.504143835562" stroke="#4dd2ff" stroke-linecap="round" stroke-linejoin="round" stroke-width="0.5"><title>2020-11-28 15.8km</title><desc>1606557059000</desc></polyline><polyline fill="none" points="188.19999999998254,196.05540112302697 187.9793345008511,196.320901288178 187.4560420314956,196.60115036414936 187.17232924691052,196.46102596715355 186.62381786340848,196.6601500258912 184.0577933450113,198.31212025713467 183.86865148859215,198.3268698148313 183.0490367776074,198.87997597235517 182.65814360769582,199.02009550142247 182.50683012258378,199.3445817493921 181.85113835375523,199.66906648531585 180.40105078808847,200.17053992126603 179.60665499122115,200.59088987209543 176.68756567424862,201.20297385956655 176.32189141854178,201.52744993609667 176.05078809105908,201.62331757844368 175.39509632223053,201.66756413810072 174.86549912433838,201.4537055059991 173.69281961469096,201.62331757844368 173.26409807353048,201.77818041423598 172.64623467597994,201.54957324988936 171.59334500873229,201.57907099067234 170.09281961468514,201.43158216175652 169.64518388788565,201.7191850888412 168.8823117337888,201.74868275777408 168.5229422066477,201.6528152880128 168.15096322240424,201.29146748493076 166.96567425565445,201.48320328741102 166.11453590192832,201.42420771208708 165.79929947460187,201.29146748493076 164.78423817863222,201.29146748493076 163.37197898424347,201.42420771208708 162.8360770577856,201.76343158759119 161.9029772329086,201.8371756896886 161.51838879156276,202.00678682818398 160.9131348511437,202.06578190994333 159.50718038526247,202.75159606819943 159.06584938702872,203.09818775118765 157.94360770576168,203.5332684860914 157.6409807355376,203.82823692981765 157.21856392294285,204.0052173964359 156.55656742557767,204.52140785525262 155.87565674254438,205.39154882579896 155.79999999998836,205.94459887697303 155.9134851138515,205.199823782983 156.95376532396767,204.1969457277446 158.58038528898032,203.20880175501225 159.25499124344788,202.98019928679423 160.143957968452,202.41237700607599 160.93835376531933,202.11002818848647 162.09211908932775,201.9035453148026 163.01260945707327,201.56432212184882 164.44378283713013,201.25459515468538 168.18248686514562,201.42420771208708 168.8633975481498,201.77818041423598 169.61366024517338,201.72655950723856 170.14956217163126,201.40945881045627 171.45464098072262,201.54957324988936 172.7281961471017,201.52007549658447 173.2514886164281,201.76343158759119 174.77723292468,201.4537055059991 175.4455341506109,201.66756413810072 176.20210157617112,201.5716965566462 176.61821366020013,201.22509727646684 179.57513134850888,200.58351533340465 182.31768826616462,199.44782705664693 182.5635726795008,199.11596659569477 184.2028021015576,198.2604967806692 184.91523642733227,197.75900958889542 185.18003502624924,197.44189082406956" stroke="#4dd2ff" stroke-linecap="round" stroke-linejoin="round" stroke-width="0.5"><title>2020-11-27 10.6km</title><desc>1606470584000</desc></polyline><polyline fill="none" points="26.06870801304467,249.5375391113339 22.322001557564363,245.33498367440188 26.686721448786557,239.73151199315907 29.12014935282059,237.92392477428075 36.381807224592194,245.83206228379277 39.62637776322663,250.57687439009896 41.67354726977646,254.50825013953727 41.78942478913814,255.90907641829108 40.9396563146729,257.4906489441928 38.58348009013571,259.2529657064006 34.9140253146179,260.5182142749545 32.944107487332076,262.32570571810356 29.04289767332375,263.99762848220416 26.454966410296038,266.2117863789026 22.824137474410236,267.29626768489834 21.201852205209434,265.8954788118135 13.747065134346485,254.01118164413492 20.85421964735724,245.56092856870964 29.27465271158144,237.78835542398156 33.83250180166215,242.03617458353983 41.94392814789899,253.604488807905 40.70790127594955,257.35508581472095 38.467602571006864,258.25883919742773 37.88821497466415,259.61446568046813 34.41188939777203,260.7893384798663 31.36044805776328,263.3198227462999 28.772516794968396,263.99762848220416 28.15450335922651,265.8502919973107 26.87985064741224,266.7540273766208 23.635280109010637,267.6577608407242 14.133323531830683,254.46306211833144 14.403704409953207,253.1977955836046 18.382165903691202,249.49235056337784 23.789783467771485,242.57844632395427 29.236026871949434,238.01430431718472 30.819686301751062,238.7373399710341 39.85813280171715,250.30574369212263 41.94392814789899,254.5986261671933 41.01690799416974,257.94252573134145 38.42897673114203,260.0211527849897 34.373263557907194,261.24121177149937 32.40334573108703,263.6813192727859 28.733890955336392,265.21767609208473 27.729619121877477,266.6636539248575 23.5966542691458,267.9740671008185 13.669813454849645,253.6496769199439 28.927020153962076,237.92392477428075 30.858312141150236,239.05366768405656 35.995548827107996,244.74752638896462 41.71217310940847,253.55930069088936 42.02117982762866,255.1408819319622 41.24866303266026,257.7617750739737 37.92684081452899,260.5182142749545 35.184406192740425,260.608589029056 33.253114205319434,261.73827183936373 24.987184499856085,267.52220094320364 23.1717700320296,267.9288805065444 13.824316813843325,254.05636971304193 28.772516794968396,238.24025309071294 30.201672865543514,238.55658117253915 36.459058904089034,245.38017266290262 41.94392814789899,253.55930069088936 42.330186545383185,255.1408819319622 41.78942478913814,256.3609548813547 38.11997001315467,259.79521555258543 34.41188939777203,260.92490051756613 32.32609405159019,263.27463565886137 28.424884237349033,264.72062007989734 23.519402589881793,268.20000000001164 13.824316813843325,253.9208054918563 21.317729724338278,246.23876253311755 26.686721448786557,242.8495819355594 23.210395871661603,235.80000000001746 26.06870801304467,240.00264941513888 29.622285269200802,238.1046838410257 36.61356226331554,245.83206228379277 41.48041807115078,253.83042932031094 41.364540551789105,256.2705792270717 39.39462272473611,258.3040268163604 34.68227027589455,260.5634016544791 31.669454775750637,263.4553839797736 29.04289767332375,264.133189500164 30.510679583530873,263.0938872616389" stroke="#4dd2ff" stroke-linecap="round" stroke-linejoin="round" stroke-width="0.5"><title>2020-11-20 12.1km</title><desc>1605876426000</desc></polyline><polyline fill="none" points="65.88177154585719,255.90071684200666 63.95909192296676,251.73707039255532 60.68644575588405,246.42477608690388 58.02742074523121,243.74467596467002 62.159136531176046,237.47509391006315 65.14542615832761,235.80000000001746 72.63160426542163,244.3668434820429 78.44055121182464,253.31638908176683 78.80872390582226,255.13499163993401 76.8042281283997,258.00645445333794 74.71791619691066,259.3464641851315 70.1771196401678,260.54289808595786 68.00899155437946,263.74932531104423 64.5727130791638,263.9886100120493 58.76376613276079,266.8600165361131 48.986735708778724,253.07709872629493 56.595638046972454,243.457521436736 65.39087462099269,235.84785991229 74.22701927181333,245.99404678298743 78.60418352019042,253.45996323417057 79.01326429122128,254.99141801992664 76.886044282699,257.09715987107484 76.84513620566577,258.5328873221297 75.49516966170631,259.4900364205532 70.79074079659767,260.0164675600827 68.00899155437946,263.0793274738244 64.49089692509733,263.74932531104423 62.527309224708006,265.902883056493 58.76376613276079,267.0992995891138 49.02764378604479,253.36424713770975 59.991008445387706,240.82526308886008 63.26365461223759,237.4272341701144 65.34996654395945,236.32645875556045 69.64531463803723,240.39452844389598 76.8042281283997,249.96631256715045 77.90874620969407,252.59851763490587 76.14969889493659,258.34145725914277 69.56349848373793,260.54289808595786 69.2362338672392,261.4043285320513 64.44998884783126,264.13218077196507 63.01820614980534,266.62073335639434 58.55922574736178,267.3385825153964 49.1503680171445,253.65139536638162 60.9318942183163,240.05951232492225 65.55450692935847,236.23073902755277 72.59069618838839,244.03183030997752 76.76332005136646,249.8705957302882 78.3996431347914,253.12495680749998 77.45875736186281,255.66142785569536 74.96336465957575,258.48502981403726 70.87255695066415,260.20789691325626 68.6635207880754,262.5050428221002 59.09103074949235,267.9607175302517 50.21397802140564,255.56571222582716 49.1503680171445,253.69925338675966 49.76398917334154,252.74209201565827 65.43178269802593,236.613617818075 69.31805002130568,240.15523124142783 74.92245658230968,247.28623346277163 78.9314481371548,253.89068541757297 78.9314481371548,255.94857462393702 76.2315150492359,258.2457421969739 70.74983271933161,260.54289808595786 68.70442886510864,262.7443281823071 59.09103074949235,268.20000000001164 49.1503680171445,254.1778333116381 56.63654612423852,245.56331706792116 57.863788436865434,244.51042047978262" stroke="#4dd2ff" stroke-linecap="round" stroke-linejoin="round" stroke-width="0.5"><title>2020-11-19 10.7km</title><desc>1605790204000</desc></polyline><polyline fill="none" points="101.27566738147289,253.6224811107968 101.97820883779787,253.40619352884823 101.94123297184706,252.45452680625021 97.39320143824443,245.3169556671346 94.62001147889532,242.59166830804315 101.12776391697116,235.97303753823508 104.67744706501253,238.8281463269377 111.70286162896082,247.7394180446281 113.77351013198495,251.63263103322242 112.4054030852858,253.92528353311354 103.12446068786085,259.8947711417568 98.79828435089439,261.88458094673115 98.09574289456941,263.05250827176496 95.3225529352203,264.1339194824395 86.55927266343497,251.2433114053565 92.25355604663491,245.2736972796847 92.95609750319272,243.67313372335047 100.83195698796771,236.18933435768122 102.0151847039815,236.27585305343382 104.27071253745817,238.6551099991484 104.93627812783234,238.48207359807566 108.55991300824098,243.1107720649743 113.32979973847978,250.50792887268472 113.66258253366686,252.3247538996511 109.41035792930052,255.95837969487184 99.02013954776339,261.62504108739085 96.54275651741773,263.61484245880274 94.91581840789877,263.96089388112887 92.51238710968755,259.6352300174767 86.3374174667988,251.37308465596288 92.29053191281855,245.44673080189386 93.3998078966979,243.02425481798127 94.7309390772134,242.54840963194147 98.57642915425822,237.83318644046085 101.01683631842025,235.80000000001746 102.6437744279392,236.49214971248875 105.45394025370479,239.30399585011764 110.66753737721592,246.6147051572916 113.62560666748323,252.3247538996511 95.28557706903666,263.7446117765212 94.47210801416077,262.8794822121854 86.30044160061516,251.37308465596288 90.33081100834534,247.30683653155575 93.32585616433062,242.93773755274015 100.75800525583327,236.1028156436223 102.16308816848323,236.3623717307346 107.70946808741428,242.3321161819913 113.21887213992886,250.94050699361833 113.69955839961767,252.71407249607728 108.92967166937888,256.3044376076141 95.50743226590566,264.00415028835414 86.22648986824788,251.93543493162724 90.66359380329959,247.0472874037514 93.28888029837981,242.93773755274015 95.3225529352203,241.63997637236025 100.27731899591163,236.53540903050452 101.60845017665997,236.01629691122798 107.1548300953582,241.7264939128363 112.77516174665652,250.46467103547184 113.44072733679786,252.8005876893294 109.70616485807113,256.0016369500954 99.8705844685901,261.45201442282996 98.02179116243497,263.2687907429936 94.62001147889532,264.566483164439 89.51734195346944,268.20000000001164" stroke="#4dd2ff" stroke-linecap="round" stroke-linejoin="round" stroke-width="0.5"><title>2020-11-16 10.2km</title><desc>1605535528000</desc></polyline><polyline fill="none" points="137.55472052679397,258.4996417413349 137.0986691720318,255.2014731024101 132.9942069815006,248.02302390974364 129.55309221567586,244.33674949072883 134.73549397150055,238.3222380138177 137.34742445638403,236.8185977943649 146.7172068306245,247.44098255431163 151.0289650913328,254.57093815659755 150.28269923850894,256.3170328018314 130.67249099514447,268.20000000001164 120.63936119619757,254.03740790841402 129.30433693155646,243.9487188773346 137.59617974050343,236.8185977943649 144.85154219856486,244.67627600752166 150.697291379096,253.55237987075816 151.0289650913328,255.44398631187505 145.92948176385835,259.17867351090536 130.21643964061514,268.0544961448177 120.72227962408215,253.89189955117763 126.36073273443617,247.7320033244614 127.97764208214357,244.96729853577563 137.26450602826662,236.8185977943649 139.46184437256306,238.3707424547174 145.473430409329,245.35532828548457 151.36063880380243,255.24997575455927 144.60278691444546,260.14871714866604 130.13352121273056,267.9089922433777 120.63936119619757,253.94040234215208 136.8913731018547,236.67308396252338 144.64424612838775,244.33674949072883 150.9045874492731,253.94040234215208 151.0289650913328,255.78350458916975 143.5663065633271,261.0217546650383 130.25789885479026,268.00599484937266 126.15343666402623,261.45827279856894 121.0954125507269,255.2014731024101 120.72227962408215,254.27992173473467 125.36571159726009,249.09009780568886 127.0655393730849,245.0643060039729 130.67249099514447,242.73612109027454 134.1550649749115,238.07971573181567 136.93283231602982,236.1880375223118 142.8200407102704,242.20257704611868 146.8830436868593,247.53798949814518 150.61437295097858,253.89189955117763 150.40707688080147,255.78350458916975 146.8001252587419,257.28708250430645 139.669140442973,262.8163265523326 130.29935806873254,268.15149872010807 128.14347893814556,263.9803694197908 120.97103490843438,254.86195439341827 122.25627054390498,250.88471647474216 125.24133395520039,248.31404430978 126.15343666402623,242.73612109027454 129.17995928949676,241.13548709181487 129.47017378779128,240.11689890554408 134.44527947320603,236.091028172581 136.06218882091343,235.80000000001746" stroke="#4dd2ff" stroke-linecap="round" stroke-linejoin="round" stroke-width="0.5"><title>2020-10-31 11.0km</title><desc>1604150818000</desc></polyline><polyline fill="none" points="188.19999999998254,244.82601883118332 187.88562376235495,244.68342483961897 187.68673267323175,244.75096939771902 187.2568712871289,244.91607804642263 185.973702970281,245.76413004248025 185.60158415837213,245.77163488208316 185.08190099010244,246.296971679556 183.55493069303338,247.17502591713856 183.3688712870935,247.19003529669862 183.18922772275982,247.33262424395798 183.09299009898677,247.62530592099938 182.7786138613883,247.81292174479313 180.22510891087586,248.871065689862 177.22891089104814,249.50144180642383 176.64506930692005,249.92168943557772 175.94574257422937,250.01174217475636 175.20792079204693,249.78661011227814 174.69465346535435,249.83163658199192 173.70661386134452,250.12430793778185 173.1099405940331,249.88416742716072 170.65267326732283,249.72657477482426 170.04316831679898,250.05676850141026 169.36308910886873,250.09429041844123 168.84340594059904,249.95921142413863 168.40712871288997,249.68154823836812 167.68855445543886,249.6965570870234 167.0662178217608,249.5614773346024 166.43746534650563,249.71907035406912 164.96823762374697,249.58399064454716 163.40918811879237,249.84664539885125 163.05631683167303,250.05676850141026 162.73552475246834,250.04175972902885 161.65766336634988,250.39446503956424 161.22780198018881,250.36444763467443 160.22051485144766,250.79969876122777 159.0143366336415,251.51260431433184 158.01346534653567,251.94034420397657 156.71746534653357,252.90087349604437 155.99247524750535,253.73382195260638 155.79999999998836,254.6868230447144 156.37100990096224,256.27012723994267 156.83295049503795,256.3901867790337 158.0455445544212,257.78586399876076 158.1032871287025,257.87590674673265 158.00063366338145,258.1010131163275 159.3992871287046,259.31657516038103 158.11611881188583,258.0634954377092 158.1738613861089,257.853396070459 157.85306930690422,257.41068465101125 156.78162376236287,256.472727594155 156.26835643561208,256.2926384190214 155.84491089108633,254.83690078904328 156.04380198020954,253.66628595592192 157.0639207920758,252.64573417251813 158.12253465346294,251.87280649830063 159.19398019797518,251.4300577226386 160.5028118811897,250.64961246781604 162.99215841584373,250.11680355914723 163.26162376237335,249.95170702800533 164.4742178217566,249.64402610278194 168.54827722770278,249.75659244989947 169.3310099009832,249.56898177204857 170.67192079205415,249.64402610278194 170.92855445542955,249.77160128267133 171.84601980197476,249.90668063459452 173.12918811876443,249.90668063459452 173.629623762361,250.1468210689127 175.23358415841358,249.8016189386908 175.9072475247376,250.03425534164126 176.7477227722993,249.91418503549357 177.31231683166698,249.49393736181082 180.23794059403008,248.8860747101644 181.01425742570427,248.450811830131 182.95825742572197,247.73037084352836 183.20847524749115,247.40016627672594" stroke="#4dd2ff" stroke-linecap="round" stroke-linejoin="round" stroke-width="0.5"><title>2020-10-23 11.9km</title><desc>1603446525000</desc></polyline></svg>