<?xml version="1.0" encoding="utf-8" ?>
<svg baseProfile="full" height="200mm" version="1.1" viewBox="0,0,200,200" width="200mm" xmlns="http://www.w3.org/2000/svg" xmlns:ev="http://www.w3.org/2001/xml-events" xmlns:xlink="http://www.w3.org/1999/xlink"><defs /><rect fill="#1a1a1a" height="200" width="200" x="0" y="0" /><text alignment-baseline="middle" fill="#e1ed5e" style="dominant-baseline: central; font-size:9.0px; font-family:Arial;" text-anchor="middle" x="100.0" y="100.0">2022</text><line stroke="#e1ed5e" stroke-width="0.3" x1="100.0" x2="100.0" y1="15.0" y2="10.0" /><path d="M 100.0 14.0 a86.0,86.0 0 0,1 42.46469731375804,11.215312516191453" fill="none" id="id73" stroke="none" /><text fill="#e1ed5e" style="font-size:6.75px; font-family:Arial;" text-anchor="middle"><textPath startOffset="22.20632615414155" xlink:href="#id73">January</textPath></text><path d="M 104.66035177308747 79.52364482259891 l 7.99081697934818 -35.10953992177736 a57.00740131578947,57.00740131578947 0 0,0 0.9549454024150559,0.22600472370311891 l -8.59398606872576 34.96678928593337" fill="#63ff29" stroke="none" /><path d="M 106.40334571778207 80.00007090966166 l 15.813525650081875 -49.39127225187998 a72.86101973684211,72.86101973684211 0 0,0 1.1911637935520072,0.39270797479464015 l -16.6613722658763 49.1117505528261" fill="#3effb6" stroke="none" /><line stroke="#e1ed5e" stroke-width="0.3" x1="143.23703022742887" x2="145.7803849466894" y1="26.81831364943548" y2="22.513508569990506" /><path d="M 143.74570117128098 25.957352633546492 a86.0,86.0 0 0,1 28.547481713284135,27.462654790039103" fill="none" id="id74" stroke="none" /><text fill="#e1ed5e" style="font-size:6.75px; font-family:Arial;" text-anchor="middle"><textPath startOffset="19.985693538727396" xlink:href="#id74">February</textPath></text><path d="M 113.6212207817346 84.01681056812373 l 25.707813893158658 -30.165641238615162 a60.63404605263158,60.63404605263158 0 0,0 0.7885492376243511,0.6838221283746103 l -26.223256929429773 29.71865411682088" fill="#3cff2e" stroke="none" /><path d="M 115.4437574822437 85.77008943001954 l 12.802062123438855 -11.795846919852233 a38.40789473684211,38.40789473684211 0 0,0 0.4438057099259348,0.49006134959911435 l -13.003211473980826 11.57373278298357" fill="#ffb210" stroke="none" /><path d="M 117.04232023915458 87.72973835380427 l 31.82821485453952 -22.915924505354045 a60.219572368421055,60.219572368421055 0 0,0 0.5984316568617273,0.8464391392623661 l -32.21795913120513 22.36465886575989" fill="#40ff2d" stroke="none" /><line stroke="#e1ed5e" stroke-width="0.3" x1="172.23445277983987" x2="176.4835382374775" y1="55.19839476539836" y2="52.563006222186495" /><path d="M 173.08426987136738 54.67131705675599 a86.0,86.0 0 0,1 12.851231095245387,41.99856678651699" fill="none" id="id75" stroke="none" /><text fill="#e1ed5e" style="font-size:6.75px; font-family:Arial;" text-anchor="middle"><textPath startOffset="22.20632615414155" xlink:href="#id75">March</textPath></text><path d="M 117.84615892207809 88.93136811851018 l 30.73179011746012 -19.060621019604994 a57.16282894736842,57.16282894736842 0 0,0 0.511428213546545,0.8406535120761187 l -31.055334129292888 18.528799734321797" fill="#62ff29" stroke="none" /><path d="M 118.73160827565052 90.50648371742162 l 46.3052750629979 -23.468346994597564 a72.91282894736841,72.91282894736841 0 0,0 0.5577483760778872,1.124386691905784 l -46.702383452029196 22.66780071419283" fill="#3effb7" stroke="none" /><path d="M 120.6074358757038 95.95851677861258 l 50.891554222646796 -9.980735290975701 a72.86101973684211,72.86101973684211 0 0,0 0.23077609442788133,1.232815124330138 l -51.05581604098454 9.103242089183" fill="#3effb6" stroke="none" /><line stroke="#e1ed5e" stroke-width="0.3" x1="184.98032266829074" x2="189.97916517819016" y1="98.17113171792111" y2="98.06355123074" /><path d="M 185.9800911702706 98.14961562048488 a86.0,86.0 0 0,1 -9.607161424134198,41.387399972396054" fill="none" id="id76" stroke="none" /><text fill="#e1ed5e" style="font-size:6.75px; font-family:Arial;" text-anchor="middle"><textPath startOffset="21.466115282336823" xlink:href="#id76">April</textPath></text><path d="M 120.70491114924044 103.5080841355445 l 13.843003918036572 2.34545427812309 a35.040296052631575,35.040296052631575 0 0,0 -0.10587768790607409,0.5938183016137335 l -13.80057978779131 -2.5833913304700418" fill="#ff820c" stroke="none" /><path d="M 120.49622156327973 104.57218783832717 l 5.9668276590468965 1.3310481042498499 a27.113486842105264,27.113486842105264 0 0,0 -0.10553528905348031,0.45464326312726405 l -5.943031804062864 -1.4335600247256788" fill="#ff0b01" stroke="none" /><path d="M 120.41448212921028 104.9243191809786 l 6.698501948647126 1.615792231258604 a27.890625,27.890625 0 0,0 -0.1165943482018723,0.4657364633003335 l -6.6696962861501925 -1.7308565339563333" fill="#ff1702" stroke="none" /><line stroke="#e1ed5e" stroke-width="0.3" x1="174.80103733775053" x2="179.2010983576182" y1="140.37084112569926" y2="142.7455964860345" /><path d="M 175.68104954172406 140.8457921977663 a86.0,86.0 0 0,1 -30.038265399797805,32.042727171017184" fill="none" id="id77" stroke="none" /><text fill="#e1ed5e" style="font-size:6.75px; font-family:Arial;" text-anchor="middle"><textPath startOffset="22.206326154141568" xlink:href="#id77">May</textPath></text><path d="M 114.81725581225074 114.88116024355365 l 10.966718939988212 11.014016627630172 a36.54276315789474,36.54276315789474 0 0,0 -0.44956307629343706,0.4399920906380244 l -10.77550591131898 -11.201158821190768" fill="#ff970e" stroke="none" /><path d="M 114.0293411484842 115.62618273729858 l 17.3059306930315 19.275718837128174 a46.90460526315789,46.90460526315789 0 0,0 -0.6054215209750886,0.5342141011072891 l -16.97156681914982 -19.57075608000775" fill="#dbff1b" stroke="none" /><path d="M 113.48314897796784 116.09983520530334 l 26.678006941604124 31.855430513124862 a62.55098684210526,62.55098684210526 0 0,0 -0.8314213769828361,0.6842031903777137 l -26.125715436076597 -32.30992882235975" fill="#30ff39" stroke="none" /><path d="M 112.92097659922987 116.55440617244103 l 16.25747878028102 20.829145924206237 a47.422697368421055,47.422697368421055 0 0,0 -0.6478194996355808,0.4967203678799655 l -15.896530552151944 -21.105905633913576" fill="#d5ff1c" stroke="none" /><path d="M 112.63410532772338 116.77436683061366 l 15.647173210157403 20.77483260436199 a47.00822368421053,47.00822368421053 0 0,0 -0.6505379198360757,0.48125240092956306 l -15.287250319902762 -21.04109495403132" fill="#daff1c" stroke="none" /><line stroke="#e1ed5e" stroke-width="0.3" x1="143.8653032363475" x2="146.44561519142675" y1="172.8068346515853" y2="177.08958963109032" /><path d="M 144.38136562736335 173.6633856474863 a86.0,86.0 0 0,1 -40.68145358897372,12.25698825130547" fill="none" id="id78" stroke="none" /><text fill="#e1ed5e" style="font-size:6.75px; font-family:Arial;" text-anchor="middle"><textPath startOffset="21.466115282336833" xlink:href="#id78">June</textPath></text><path d="M 110.5260780823613 118.17145234162733 l 13.348036515625914 23.043075255583336 a47.629934210526315,47.629934210526315 0 0,0 -0.7129775500257672,0.40484726047567 l -12.949410198678947 -23.269425681853633" fill="#d2ff1c" stroke="none" /><path d="M 109.57404056367764 118.69057910512821 l 11.857323263896808 23.148036293028852 a47.00822368421053,47.00822368421053 0 0,0 -0.7233582757298733,0.362706856122434 l -11.457111080484175 -23.34871099006059" fill="#daff1c" stroke="none" /><path d="M 109.2508944713604 118.85261126421891 l 22.822930439211497 46.51137647422427 a72.80921052631578,72.80921052631578 0 0,0 -1.1298856839728773,0.54241379134692 l -22.018932087238387 -46.897344542070755" fill="#3effb6" stroke="none" /><path d="M 108.92500713936063 119.00905698771935 l 6.473566033648087 13.787819295368804 a36.23190789473684,36.23190789473684 0 0,0 -0.5668257770394358,0.2602019131900592 l -6.235272260841232 -13.897208278892938" fill="#ff930d" stroke="none" /><path d="M 108.59647513512805 119.15986991738527 l 10.837497024795475 24.154671532361533 a47.47450657894737,47.47450657894737 0 0,0 -0.7484679813863774,0.3281063675933754 l -10.420108368751343 -24.337642453249366" fill="#d4ff1c" stroke="none" /><path d="M 108.2653958097858 119.30500536409082 l 10.236583955211692 23.908995130198004 a47.00822368421053,47.00822368421053 0 0,0 -0.7465992493815057,0.31207854679246133 l -9.823513246332725 -24.08165872001044" fill="#daff1c" stroke="none" /><path d="M 107.59598834532513 119.57807347666477 l 15.046428558704472 38.78100788095596 a62.59761513157895,62.59761513157895 0 0,0 -1.0079103707320987,0.3811054587487624 l -14.376647967212099 -39.03426158981136" fill="#30ff39" stroke="none" /><path d="M 106.91757812671514 119.82793768551818 l 17.083459798129574 48.966527030930195 a72.86101973684211,72.86101973684211 0 0,0 -1.187739635475197,0.4029457716092261 l -16.238050429717152 -49.25333578943754" fill="#3effb6" stroke="none" /><path d="M 106.57524785965236 119.94407469862006 l 16.238050429717152 49.25333578943754 a72.86101973684211,72.86101973684211 0 0,0 -1.1944997081096402,0.3824410854791924 l -15.387829376516569 -49.525549721576446" fill="#3effb6" stroke="none" /><path d="M 105.88484417918355 120.15858648285463 l 10.177489563176817 34.86308172158165 a57.31825657894737,57.31825657894737 0 0,0 -0.9494873791618532,0.26833461752422316 l -9.575871015910359 -35.0331051324444" fill="#60ff29" stroke="none" /><path d="M 105.53697534728816 120.25689768951611 l 12.854343261015185 47.02732086965787 a69.75246710526315,69.75246710526315 0 0,0 -1.1609120900364818,0.3066074343444279 l -12.042940728167206 -47.24161965330588" fill="#3aff92" stroke="none" /><path d="M 105.18746579009965 120.34920634021253 l 8.971414931397677 35.19274747818005 a57.31825657894737,57.31825657894737 0 0,0 -0.9581612236326335,0.23549271682215017 l -8.364300423021831 -35.34196145331624" fill="#60ff29" stroke="none" /><path d="M 104.83641907484287 120.43548508189849 l 5.333583864608785 22.536172281929183 a44.15871710526316,44.15871710526316 0 0,0 -0.7411932384888583,0.16869316796205672 l -4.944870476727065 -22.62464218346892" fill="#ffff18" stroke="none" /><path d="M 104.48393922423573 120.51570834832081 l 8.849880047833674 40.49152963484371 a62.44736842105263,62.44736842105263 0 0,0 -1.0521148646968494,0.22048089941844332 l -8.151573721707445 -40.637866514988694" fill="#30ff37" stroke="none" /><path d="M 101.98527174616119 120.90594882070398 l 2.213839216936328 23.31288371782451 a44.41776315789474,44.41776315789474 0 0,0 -0.7617766568821998,0.06572929534480075 l -1.8122182423125868 -23.347537265447972" fill="#fbff18" stroke="none" /><line stroke="#e1ed5e" stroke-width="0.3" x1="102.19456741930631" x2="102.32365962044197" y1="184.97166512339345" y2="189.96999836594603" /><path d="M 102.22038585953345 185.97133177190398 a86.0,86.0 0 0,1 -42.740103519485714,-10.115201625700543" fill="none" id="id79" stroke="none" /><text fill="#e1ed5e" style="font-size:6.75px; font-family:Arial;" text-anchor="middle"><textPath startOffset="22.20632615414155" xlink:href="#id79">July</textPath></text><path d="M 100.18074693466247 120.99922214144158 l 0.2367844300306768 27.509671769174698 a48.510690789473685,48.510690789473685 0 0,0 -0.8350627293862456,0.0 l 0.23678443003065788 -27.509671769174698" fill="#c7ff1e" stroke="none" /><path d="M 97.65516085044442 120.86867818915974 l -2.0305227175016687 18.071314254264152 a39.18503289473684,39.18503289473684 0 0,0 -0.6696397015595374,-0.08108404220574346 l 2.3412898421125954 -18.03368468333306" fill="#ffbc11" stroke="none" /><path d="M 97.2962882734958 120.8252237178851 l -8.111135179512582 62.47567115365527 a84.0,84.0 0 0,0 -1.4322856352526758,-0.19850173802958038 l 9.185349405952088 -62.32679485013308" fill="#4dd2ff" stroke="none" /><path d="M 96.93821686468263 120.77559828337769 l -4.864609389336468 33.00859858839285 a54.36513157894737,54.36513157894737 0 0,0 -0.9246321557240034,-0.1444085267033808 l 5.432077408668989 -32.91997175434236" fill="#81ff25" stroke="none" /><path d="M 95.51606077576429 120.51570834832081 l -3.3187050179376176 15.184323613066397 a36.54276315789474,36.54276315789474 0 0,0 -0.6133613189841305,-0.1395990392677754 l 3.579586486314611 -15.124947840220933" fill="#ff970e" stroke="none" /><path d="M 93.08242187328487 119.8279376855182 l -3.413278680944963 9.783521884301738 a31.361842105263158,31.361842105263158 0 0,0 -0.5081819719542898,-0.18221597489427355 l 3.5811802135289796 -9.723318368367508" fill="#ff4c07" stroke="none" /><path d="M 91.07499286063937 119.00905698771935 l -12.110412647981121 25.79353949813892 a49.495065789473685,49.495065789473685 0 0,0 -0.7680864255849559,-0.3687281608159985 l 12.55261174156632 -25.581257060823358" fill="#bbff1f" stroke="none" /><path d="M 90.7491055286396 118.85261126421891 l -6.299128801222371 12.837139906885902 a35.29934210526316,35.29934210526316 0 0,0 -0.5431830696516756,-0.2723632674189034 l 6.519165778556808 -12.726808798557697" fill="#ff860c" stroke="none" /><path d="M 90.42595943632237 118.69057910512821 l -3.6138853772434474 7.05507879050481 a28.926809210526315,28.926809210526315 0 0,0 -0.44121524528628275,-0.23082296321348633 l 3.7347915250562256 -6.991826408346607" fill="#ff2703" stroke="none" /><path d="M 90.10565033884886 118.52300852407294 l -7.32312063736515 13.709463545777664 a36.54276315789474,36.54276315789474 0 0,0 -0.5522780675048986,-0.3011460369048812 l 7.558021516738689 -13.581376857113018" fill="#ff970e" stroke="none" /><line stroke="#e1ed5e" stroke-width="0.3" x1="58.666819895761336" x2="56.23545636021788" y1="174.27360380694188" y2="178.64263932499728" /><path d="M 58.180547188652646 175.14741091055294 a86.0,86.0 0 0,1 -31.652253787137756,-30.449443065178592" fill="none" id="id80" stroke="none" /><text fill="#e1ed5e" style="font-size:6.75px; font-family:Arial;" text-anchor="middle"><textPath startOffset="22.20632615414155" xlink:href="#id80">August</textPath></text><line stroke="#e1ed5e" stroke-width="0.3" x1="26.63291911575756" x2="22.317208475507996" y1="142.92168965132927" y2="145.44649492493687" /><path d="M 25.769776987707644 143.4266507060508 a86.0,86.0 0 0,1 -11.730757126820373,-40.83630448921669" fill="none" id="id81" stroke="none" /><text fill="#e1ed5e" style="font-size:6.75px; font-family:Arial;" text-anchor="middle"><textPath startOffset="21.46611528233685" xlink:href="#id81">September</textPath></text><path d="M 80.87730276802145 108.67885076344099 l -13.634357319182065 6.187963496631036 a35.97286184210526,35.97286184210526 0 0,0 -0.25105445765192763,-0.56606152556391 l 13.738852861565272 -5.95235363457443" fill="#ff8f0d" stroke="none" /><path d="M 80.32549172779595 107.34259656027581 l -5.096603705381806 1.902070655005658 a26.439967105263158,26.439967105263158 0 0,0 -0.15546164177714228,-0.4277636700523311 l 5.128589608164171 -1.8140591879472099" fill="#ff0000" stroke="none" /><line stroke="#e1ed5e" stroke-width="0.3" x1="15.007084014347285" x2="10.007500721073583" y1="101.09737516637583" y2="101.16192664675087" /><path d="M 14.007167355692545 101.11028546245083 a86.0,86.0 0 0,1 10.666146001902534,-42.60595125391555" fill="none" id="id82" stroke="none" /><text fill="#e1ed5e" style="font-size:6.75px; font-family:Arial;" text-anchor="middle"><textPath startOffset="22.20632615414155" xlink:href="#id82">October</textPath></text><path d="M 79.12142395522702 97.74499172005258 l -20.603857938920715 -2.225337118369169 a41.723684210526315,41.723684210526315 0 0,0 0.08326785126918519,-0.713388098854551 l 20.56249973464794 2.5796689555485814" fill="#ffdf14" stroke="none" /><line stroke="#e1ed5e" stroke-width="0.3" x1="26.266209847984257" x2="21.92892807433627" y1="57.711370442889674" y2="55.22380399835377" /><path d="M 25.39875349325466 57.213857153982495 a86.0,86.0 0 0,1 29.58750427330802,-30.492523968695096" fill="none" id="id83" stroke="none" /><text fill="#e1ed5e" style="font-size:6.75px; font-family:Arial;" text-anchor="middle"><textPath startOffset="21.46611528233685" xlink:href="#id83">November</textPath></text><path d="M 83.6137871275137 86.86637796730984 l -10.955584757673812 -8.780949599158797 a35.040296052631575,35.040296052631575 0 0,0 0.38127430886266406,-0.46739722028388253 l 10.802811956734756 8.968230989050761" fill="#ff820c" stroke="none" /><path d="M 85.05521093208273 85.24692304244772 l -12.867758350418901 -12.702690439602994 a39.081414473684205,39.081414473684205 0 0,0 0.47672663176099517,-0.4746794161009845 l 12.647195918490592 12.922305706354091" fill="#ffbb11" stroke="none" /><path d="M 85.57189188830299 84.74124197986013 l -10.714294099393427 -11.331133628442682 a36.594572368421055,36.594572368421055 0 0,0 0.4614263932884045,-0.42884554449656415 l 10.517659822310167 11.513883759013893" fill="#ff980e" stroke="none" /><path d="M 86.65592168130627 83.78471172551755 l -9.053342609311123 -11.001326337539489 a35.24753289473684,35.24753289473684 0 0,0 0.47180770027126195,-0.38150234825978774 l 8.862631510475362 11.15553478306341" fill="#ff850c" stroke="none" /><path d="M 87.51073957382395 83.11751280151077 l -9.829130121587562 -13.286628494205758 a37.52713815789474,37.52713815789474 0 0,0 0.5226184437197593,-0.3797045252823855 l 9.59896636151402 13.453852254304811" fill="#ffa50f" stroke="none" /><path d="M 89.00827224532344 82.1063720568725 l -8.406502312375983 -13.685093739398491 a37.06085526315789,37.06085526315789 0 0,0 0.5464498403757605,-0.32922991455740386 l 8.169690405782571 13.827770263414514" fill="#ff9f0e" stroke="none" /><line stroke="#e1ed5e" stroke-width="0.3" x1="56.762969772571076" x2="54.21961505331055" y1="26.818313649435495" y2="22.513508569990535" /><path d="M 56.25429882871897 25.957352633546506 a86.0,86.0 0 0,1 42.265352541879196,-11.944610805530505" fill="none" id="id84" stroke="none" /><text fill="#e1ed5e" style="font-size:6.75px; font-family:Arial;" text-anchor="middle"><textPath startOffset="22.20632615414155" xlink:href="#id84">December</textPath></text><path d="M 89.63071344664047 81.73862282372117 l -8.186278857915417 -14.416876718114867 a37.578947368421055,37.578947368421055 0 0,0 0.5652516300816047,-0.3145619201554592 l 7.9369031387617675 14.55565403583051" fill="#ffa60f" stroke="none" /></svg>