<?xml version="1.0" encoding="utf-8" ?>
<svg baseProfile="full" height="200mm" version="1.1" viewBox="0,0,200,200" width="200mm" xmlns="http://www.w3.org/2000/svg" xmlns:ev="http://www.w3.org/2001/xml-events" xmlns:xlink="http://www.w3.org/1999/xlink"><defs /><rect fill="#1a1a1a" height="200" width="200" x="0" y="0" /><text alignment-baseline="middle" fill="#e1ed5e" style="dominant-baseline: central; font-size:9.0px; font-family:Arial;" text-anchor="middle" x="100.0" y="100.0">2023</text><line stroke="#e1ed5e" stroke-width="0.3" x1="100.0" x2="100.0" y1="15.0" y2="10.0" /><path d="M 100.0 14.0 a86.0,86.0 0 0,1 42.46469731375804,11.215312516191453" fill="none" id="id85" stroke="none" /><text fill="#e1ed5e" style="font-size:6.75px; font-family:Arial;" text-anchor="middle"><textPath startOffset="22.20632615414155" xlink:href="#id85">January</textPath></text><line stroke="#e1ed5e" stroke-width="0.3" x1="143.23703022742887" x2="145.7803849466894" y1="26.81831364943548" y2="22.513508569990506" /><path d="M 143.74570117128098 25.957352633546492 a86.0,86.0 0 0,1 28.547481713284135,27.462654790039103" fill="none" id="id86" stroke="none" /><text fill="#e1ed5e" style="font-size:6.75px; font-family:Arial;" text-anchor="middle"><textPath startOffset="19.985693538727396" xlink:href="#id86">February</textPath></text><path d="M 111.2981086023043 82.29822771554956 l 17.862309700243085 -27.986501981716145 a54.201,54.201 0 0,0 0.7821281064507729,0.5087178767442582 l -18.34140483247814 27.67488518081236" fill="#8dff24" stroke="none" /><path d="M 112.19680574252982 82.90503203632743 l 18.295208613794728 -25.64245194550886 a52.5,52.5 0 0,0 0.7311367091155283,0.5312019129583129 l -18.733890639264047 25.323730797733873" fill="#a1ff22" stroke="none" /><path d="M 114.68862486808459 84.99185889309783 l 25.60227314507144 -26.1591899493305 a57.603,57.603 0 0,0 0.7026584001410343,0.6996409616667308 l -26.048767345379797 25.714613137013654" fill="#65ff29" stroke="none" /><path d="M 117.04232023915458 87.72973835380427 l 27.557431826712957 -19.841013081898506 a54.957,54.957 0 0,0 0.5461348739732385,0.7724690486316973 l -27.89487932049008 19.363717532935016" fill="#84ff25" stroke="none" /><line stroke="#e1ed5e" stroke-width="0.3" x1="172.23445277983987" x2="176.4835382374775" y1="55.19839476539836" y2="52.563006222186495" /><path d="M 173.08426987136738 54.67131705675599 a86.0,86.0 0 0,1 12.851231095245387,41.99856678651699" fill="none" id="id87" stroke="none" /><text fill="#e1ed5e" style="font-size:6.75px; font-family:Arial;" text-anchor="middle"><textPath startOffset="22.20632615414155" xlink:href="#id87">March</textPath></text><path d="M 119.47837535516314 92.15188598940014 l 17.588972945712307 -7.086846951571665 a39.963,39.963 0 0,0 0.2515888745751241,0.6402662436833223 l -17.70835537016913 6.783031702992559" fill="#ffb610" stroke="none" /><path d="M 120.28053869075195 94.5502522615342 l 25.61432036641971 -6.883031393682301 a47.522999999999996,47.522999999999996 0 0,0 0.20548870097749972,0.7918317889829515 l -25.729005399267518 6.441103179150499" fill="#e0ff1b" stroke="none" /><line stroke="#e1ed5e" stroke-width="0.3" x1="184.98032266829074" x2="189.97916517819016" y1="98.17113171792111" y2="98.06355123074" /><path d="M 185.9800911702706 98.14961562048488 a86.0,86.0 0 0,1 -9.607161424134198,41.387399972396054" fill="none" id="id88" stroke="none" /><text fill="#e1ed5e" style="font-size:6.75px; font-family:Arial;" text-anchor="middle"><textPath startOffset="21.466115282336823" xlink:href="#id88">April</textPath></text><path d="M 120.99824983174949 100.27111621757518 l 36.725938955729866 0.474182264538999 a57.729,57.729 0 0,0 -0.021381549678914504,0.9935165963929743 l -36.71233534336594 -1.106288676722088" fill="#63ff29" stroke="none" /><path d="M 120.9904718944345 100.63252640178507 l 37.782849409982106 1.1385475232131266 a58.8,58.8 0 0,0 -0.039194028016631056,1.0114237083607827 l -37.75765324911427 -1.7887484785879155" fill="#57ff2a" stroke="none" /><path d="M 120.92983693683757 101.71520430193887 l 44.141026099790444 3.6173658727890783 a65.289,65.289 0 0,0 -0.10143238017457278,1.1192978630024941 l -44.0722191233388 -4.376645124340143" fill="#33ff55" stroke="none" /><path d="M 120.89721153311464 102.0752229133903 l 50.215999314074494 4.98676066087689 a71.463,71.463 0 0,0 -0.13209662799192043,1.2230507166260547 l -50.12272038458152 -5.850407699387737" fill="#3cffa2" stroke="none" /><path d="M 120.81339534386255 102.79330883721812 l 56.196167428428886 7.541933860488908 a77.7,77.7 0 0,0 -0.18931401123857503,1.3240617536724855 l -56.05801936617371 -8.508141086141803" fill="#44ffea" stroke="none" /><path d="M 120.70491114924044 103.5080841355445 l 24.535319711849926 4.1570797006202325 a45.885000000000005,45.885000000000005 0 0,0 -0.13864602348887267,0.777600529647918 l -24.460127246021862 -4.578798981001369" fill="#f6ff19" stroke="none" /><path d="M 120.49622156327973 104.57218783832717 l 24.656954540625524 5.500341969507583 a46.263000000000005,46.263000000000005 0 0,0 -0.18007197325499213,0.7757453478611116 l -24.558622001439982 -5.92395597471726" fill="#f1ff19" stroke="none" /><path d="M 120.32669344350535 105.2749913415812 l 39.63705221483543 10.286233116083354 a61.95,61.95 0 0,0 -0.2767451747917572,1.0298717471321328 l -39.454118963701895 -10.966995796391034" fill="#34ff2f" stroke="none" /><path d="M 120.23288151984713 105.62410040840565 l 59.302575734671926 16.484238297036985 a82.551,82.551 0 0,0 -0.39234274440074324,1.3657965637914882 l -59.01004035338509 -17.502592336333056" fill="#4be1ff" stroke="none" /><path d="M 119.9155931802556 106.66101706037122 l 28.49921384094577 9.531915413391221 a51.051,51.051 0 0,0 -0.28590788997700595,0.8309821587899109 l -28.330915120025534 -10.021070275270432" fill="#b3ff20" stroke="none" /><path d="M 118.97047184881838 109.00673069616215 l 40.97621919344769 19.45453830371025 a66.36,66.36 0 0,0 -0.4987957090975028,1.0276668991497295 l -40.63527022773547 -20.156994158825256" fill="#35ff63" stroke="none" /><line stroke="#e1ed5e" stroke-width="0.3" x1="174.80103733775053" x2="179.2010983576182" y1="140.37084112569926" y2="142.7455964860345" /><path d="M 175.68104954172406 140.8457921977663 a86.0,86.0 0 0,1 -30.038265399797805,32.042727171017184" fill="none" id="id89" stroke="none" /><text fill="#e1ed5e" style="font-size:6.75px; font-family:Arial;" text-anchor="middle"><textPath startOffset="22.206326154141568" xlink:href="#id89">May</textPath></text><path d="M 118.12598468904814 110.60418214915192 l 27.243354987639357 15.93808577017535 a52.563,52.563 0 0,0 -0.4636034681273373,0.7770260790030814 l -26.964970643813793 -16.404673943064537" fill="#a1ff22" stroke="none" /><path d="M 117.94076556474637 110.91462005526583 l 32.72395639009738 19.908266980804864 a59.304,59.304 0 0,0 -0.5380718575776728,0.8675431602244742 l -32.376419892851736 -20.46860647239461" fill="#52ff2b" stroke="none" /><path d="M 117.55443506779137 111.5257021239791 l 26.43697921209382 17.357707398712524 a52.626000000000005,52.626000000000005 0 0,0 -0.5036982178407272,0.752960493000248 l -26.13427788884237 -17.81020480591858" fill="#a0ff22" stroke="none" /><path d="M 116.93607887273984 112.41649034213515 l 21.288651143033977 15.60752836006387 a47.397,47.397 0 0,0 -0.48805082106917724,0.6538238309474761 l -21.01683905526971 -15.971665070520661" fill="#e2ff1b" stroke="none" /><path d="M 114.55890576462653 115.13401014063108 l 21.1832078875316 22.01998475461822 a51.555,51.555 0 0,0 -0.6448405265705672,0.6097369667887628 l -20.801031526570227 -22.381356358152903" fill="#adff20" stroke="none" /><path d="M 114.0293411484842 115.62618273729858 l 42.088023445452606 46.878548211895726 a84.0,84.0 0 0,0 -1.0842305883736492,0.9567074329108447 l -41.27485050417237 -47.59607878657886" fill="#4dd2ff" stroke="none" /><line stroke="#e1ed5e" stroke-width="0.3" x1="143.8653032363475" x2="146.44561519142675" y1="172.8068346515853" y2="177.08958963109032" /><path d="M 144.38136562736335 173.6633856474863 a86.0,86.0 0 0,1 -40.68145358897372,12.25698825130547" fill="none" id="id90" stroke="none" /><text fill="#e1ed5e" style="font-size:6.75px; font-family:Arial;" text-anchor="middle"><textPath startOffset="21.466115282336833" xlink:href="#id90">June</textPath></text><path d="M 102.34483914955558 120.86867818915974 l 3.6860871431013846 32.80556211335911 a54.012,54.012 0 0,0 -0.92480736153039,0.09586006433178938 l -3.120847184965392 -32.86415154614666" fill="#8fff24" stroke="none" /><path d="M 101.98527174616119 120.90594882070398 l 2.9779076192417864 31.35892323105597 a52.5,52.5 0 0,0 -0.9003892056461458,0.07768936930334147 l -2.4376740958540988 -31.405536852637976" fill="#a1ff22" stroke="none" /><path d="M 101.62511606390274 120.93702456842531 l 2.7009428982063413 34.797334832722875 a55.902,55.902 0 0,0 -0.9600163308064874,0.0662083468976489 l -2.1015638066209235 -34.838671524136814" fill="#78ff26" stroke="none" /><path d="M 101.26447882468166 120.96189622390904 l 2.5795368023505922 42.76226829677443 a63.84,63.84 0 0,0 -1.097476272023022,0.056726987442906246 l -1.8430724619140906 -42.80033509097954" fill="#31ff42" stroke="none" /><path d="M 100.90346689309514 120.98055641714683 l 2.184582947504054 50.73098541666103 a71.77799999999999,71.77799999999999 0 0,0 -1.2348538379760383,0.042530862979611436 l -1.3110087578533633 -50.76107307806673" fill="#3cffa6" stroke="none" /><line stroke="#e1ed5e" stroke-width="0.3" x1="102.19456741930631" x2="102.32365962044197" y1="184.97166512339345" y2="189.96999836594603" /><path d="M 102.22038585953345 185.97133177190398 a86.0,86.0 0 0,1 -42.740103519485714,-10.115201625700543" fill="none" id="id91" stroke="none" /><text fill="#e1ed5e" style="font-size:6.75px; font-family:Arial;" text-anchor="middle"><textPath startOffset="22.20632615414155" xlink:href="#id91">July</textPath></text><path d="M 100.54218724476979 120.99299961872073 l 0.7270730952362947 28.151612488704508 a49.161,49.161 0 0,0 -0.8461317659612644,0.014566925689487236 l -0.24238163938236243 -28.159956891673154" fill="#cbff1d" stroke="none" /><path d="M 99.81925306533755 120.99922214144158 l -0.4337926431898757 50.39813313945979 a71.4,71.4 0 0,0 -1.2288970543649291,-0.021156577250857157 l 1.3012493874474726 -50.38319908492977" fill="#3cffa1" stroke="none" /><path d="M 99.45781275523022 120.99299961872073 l -1.2768509614328323 49.43851410208733 a70.455,70.455 0 0,0 -1.2120932201315726,-0.04174694128045535 l 2.127664533239048 -49.40921036238078" fill="#3aff96" stroke="none" /><path d="M 98.73552117531835 120.96189622390904 l -2.203986591420113 36.53658511827344 a57.603,57.603 0 0,0 -0.9892279471833949,-0.0682229509918298 l 2.832577299382438 -36.493233822765326" fill="#65ff29" stroke="none" /><path d="M 98.37488393609728 120.93702456842531 l -4.875348191708155 62.81107370527595 a84.0,84.0 0 0,0 -1.4406227290338331,-0.12430299088534635 l 5.955815238483529 -62.71784646211194" fill="#4dd2ff" stroke="none" /><path d="M 97.2962882734958 120.8252237178851 l -4.801792026271448 36.98559732296392 a58.296,58.296 0 0,0 -0.994006230865357,-0.13776020619252877 l 5.437726848323636 -36.897462551278785" fill="#5dff2a" stroke="none" /><path d="M 96.93821686468263 120.77559828337769 l -8.909788923773526 60.45699100462909 a82.11,82.11 0 0,0 -1.396511773290698,-0.21810641827281646 l 9.949136560672741 -60.29466627900917" fill="#4ae5ff" stroke="none" /><path d="M 96.58105272829116 120.7198165907248 l -4.6258356586220675 28.03391184725065 a49.413,49.413 0 0,0 -0.8380233701262664,-0.14570110474007245 l 5.107708000220384 -27.950132163989572" fill="#c8ff1d" stroke="none" /><path d="M 96.22490169976321 120.6578951692458 l -6.795176940426232 37.184211304642446 a58.8,58.8 0 0,0 -0.9940906791992539,-0.19051984462428923 l 7.434235234197181 -37.06173426166969" fill="#57ff2a" stroke="none" /><path d="M 95.86986931433489 120.58985236759428 l -9.912313645596242 49.41564568222626 a71.4,71.4 0 0,0 -1.202949031140085,-0.25208966552976 l 10.761454138165714 -49.237700035969965" fill="#3cffa1" stroke="none" /><path d="M 95.51606077576429 120.51570834832081 l -2.811429893595793 12.863349134397152 a34.167,34.167 0 0,0 -0.5734847169378124,-0.13052325446910368 l 3.0324347599264683 -12.813049146350362" fill="#ff6108" stroke="none" /><path d="M 94.81253420990036 120.34920634021253 l -5.462401476974922 21.427714276243798 a43.113,43.113 0 0,0 -0.7175431209080125,-0.18950965987974688 l 5.830435040694423 -21.330513267060468" fill="#ffe215" stroke="none" /><path d="M 91.40352486487194 119.15986991738527 l -14.545235928636663 32.41849990021588 a56.532,56.532 0 0,0 -0.8844081553941068,-0.40598840666067176 l 15.10111207979819 -32.163324423221134" fill="#71ff27" stroke="none" /><path d="M 90.10565033884886 118.52300852407294 l -23.746439186762725 44.455220457775035 a71.4,71.4 0 0,0 -1.0790824396466223,-0.5884017840167962 l 24.508144438277988 -44.039878021998476" fill="#3cffa1" stroke="none" /><line stroke="#e1ed5e" stroke-width="0.3" x1="58.666819895761336" x2="56.23545636021788" y1="174.27360380694188" y2="178.64263932499728" /><path d="M 58.180547188652646 175.14741091055294 a86.0,86.0 0 0,1 -31.652253787137756,-30.449443065178592" fill="none" id="id92" stroke="none" /><text fill="#e1ed5e" style="font-size:6.75px; font-family:Arial;" text-anchor="middle"><textPath startOffset="22.20632615414155" xlink:href="#id92">August</textPath></text><path d="M 89.1626897886671 117.98757091392108 l -24.383947975499037 40.47203455632243 a68.25,68.25 0 0,0 -1.0010676002199967,-0.614937482807771 l 25.07699477565134 -40.046308606686274" fill="#37ff7b" stroke="none" /><path d="M 87.95078237400918 117.19931262002967 l -21.6524440739055 30.907164778193337 a58.737,58.737 0 0,0 -0.8230806640066698,-0.5872461996217252 l 22.181252065761054 -30.529874316727394" fill="#58ff2a" stroke="none" /><path d="M 87.65650970185807 116.9893568818739 l -4.110382269281265 5.657455841664009 a27.993000000000002,27.993000000000002 0 0,0 -0.3873898344320538,-0.28658173832988787 l 4.207157074131883 -5.585864154594352" fill="#ff0000" stroke="none" /><path d="M 87.07902340077011 116.55440617244103 l -31.010343838151723 39.73057481385848 a71.4,71.4 0 0,0 -0.9623445247609825,-0.7645446923825558 l 31.68964585563006 -39.19089620747079" fill="#3cffa1" stroke="none" /><path d="M 85.70375840098266 115.38237550388516 l -32.89565191933889 35.39484603443976 a69.321,69.321 0 0,0 -0.8670544106759209,-0.8198540641016901 l 33.50004216440562 -34.823357333592135" fill="#39ff88" stroke="none" /><path d="M 84.19399662182784 113.82643327865904 l -36.98604790492287 32.35385387206214 a70.14,70.14 0 0,0 -0.787096018033599,-0.9155704888004887 l 37.53748643252725 -31.71240628410012" fill="#3aff92" stroke="none" /><line stroke="#e1ed5e" stroke-width="0.3" x1="26.63291911575756" x2="22.317208475507996" y1="142.92168965132927" y2="145.44649492493687" /><path d="M 25.769776987707644 143.4266507060508 a86.0,86.0 0 0,1 -11.730757126820373,-40.83630448921669" fill="none" id="id93" stroke="none" /><text fill="#e1ed5e" style="font-size:6.75px; font-family:Arial;" text-anchor="middle"><textPath startOffset="21.46611528233685" xlink:href="#id93">September</textPath></text><line stroke="#e1ed5e" stroke-width="0.3" x1="15.007084014347285" x2="10.007500721073583" y1="101.09737516637583" y2="101.16192664675087" /><path d="M 14.007167355692545 101.11028546245083 a86.0,86.0 0 0,1 10.666146001902534,-42.60595125391555" fill="none" id="id94" stroke="none" /><text fill="#e1ed5e" style="font-size:6.75px; font-family:Arial;" text-anchor="middle"><textPath startOffset="22.20632615414155" xlink:href="#id94">October</textPath></text><line stroke="#e1ed5e" stroke-width="0.3" x1="26.266209847984257" x2="21.92892807433627" y1="57.711370442889674" y2="55.22380399835377" /><path d="M 25.39875349325466 57.213857153982495 a86.0,86.0 0 0,1 29.58750427330802,-30.492523968695096" fill="none" id="id95" stroke="none" /><text fill="#e1ed5e" style="font-size:6.75px; font-family:Arial;" text-anchor="middle"><textPath startOffset="21.46611528233685" xlink:href="#id95">November</textPath></text><line stroke="#e1ed5e" stroke-width="0.3" x1="56.762969772571076" x2="54.21961505331055" y1="26.818313649435495" y2="22.513508569990535" /><path d="M 56.25429882871897 25.957352633546506 a86.0,86.0 0 0,1 42.265352541879196,-11.944610805530505" fill="none" id="id96" stroke="none" /><text fill="#e1ed5e" style="font-size:6.75px; font-family:Arial;" text-anchor="middle"><textPath startOffset="22.20632615414155" xlink:href="#id96">December</textPath></text></svg>