<?xml version="1.0" encoding="utf-8" ?>
<svg baseProfile="full" height="200mm" version="1.1" viewBox="0,0,200,200" width="200mm" xmlns="http://www.w3.org/2000/svg" xmlns:ev="http://www.w3.org/2001/xml-events" xmlns:xlink="http://www.w3.org/1999/xlink"><defs /><rect fill="#1a1a1a" height="200" width="200" x="0" y="0" /><text alignment-baseline="middle" fill="#e1ed5e" style="dominant-baseline: central; font-size:9.0px; font-family:Arial;" text-anchor="middle" x="100.0" y="100.0">2022</text><line stroke="#e1ed5e" stroke-width="0.3" x1="100.0" x2="100.0" y1="15.0" y2="10.0" /><path d="M 100.0 14.0 a86.0,86.0 0 0,1 42.46469731375804,11.215312516191453" fill="none" id="id25" stroke="none" /><text fill="#e1ed5e" style="font-size:6.75px; font-family:Arial;" text-anchor="middle"><textPath startOffset="22.20632615414155" xlink:href="#id25">January</textPath></text><path d="M 106.40334571778207 80.00007090966166 l 15.981745439125866 -49.916682560920236 a73.41270251731635,73.41270251731635 0 0,0 1.2001829447524772,0.3956814471428396 l -16.83861120612076 49.63418738951816" fill="#3effb8" stroke="none" /><line stroke="#e1ed5e" stroke-width="0.3" x1="143.23703022742887" x2="145.7803849466894" y1="26.81831364943548" y2="22.513508569990506" /><path d="M 143.74570117128098 25.957352633546492 a86.0,86.0 0 0,1 28.547481713284135,27.462654790039103" fill="none" id="id26" stroke="none" /><text fill="#e1ed5e" style="font-size:6.75px; font-family:Arial;" text-anchor="middle"><textPath startOffset="19.985693538727396" xlink:href="#id26">February</textPath></text><line stroke="#e1ed5e" stroke-width="0.3" x1="172.23445277983987" x2="176.4835382374775" y1="55.19839476539836" y2="52.563006222186495" /><path d="M 173.08426987136738 54.67131705675599 a86.0,86.0 0 0,1 12.851231095245387,41.99856678651699" fill="none" id="id27" stroke="none" /><text fill="#e1ed5e" style="font-size:6.75px; font-family:Arial;" text-anchor="middle"><textPath startOffset="22.20632615414155" xlink:href="#id27">March</textPath></text><path d="M 118.73160827565052 90.50648371742162 l 46.267796655645874 -23.449352263061137 a72.87081191696662,72.87081191696662 0 0,0 0.5574269658293405,1.1237387484574333 l -46.664583634428624 22.64945392610475" fill="#3effb2" stroke="none" /><path d="M 120.6074358757038 95.95851677861258 l 50.44614963711139 -9.893383561724772 a72.40713035668534,72.40713035668534 0 0,0 0.22933846949711323,1.2251352744645843 l -50.608973830518366 9.023570209797624" fill="#3dffac" stroke="none" /><line stroke="#e1ed5e" stroke-width="0.3" x1="184.98032266829074" x2="189.97916517819016" y1="98.17113171792111" y2="98.06355123074" /><path d="M 185.9800911702706 98.14961562048488 a86.0,86.0 0 0,1 -9.607161424134198,41.387399972396054" fill="none" id="id28" stroke="none" /><text fill="#e1ed5e" style="font-size:6.75px; font-family:Arial;" text-anchor="middle"><textPath startOffset="21.466115282336823" xlink:href="#id28">April</textPath></text><line stroke="#e1ed5e" stroke-width="0.3" x1="174.80103733775053" x2="179.2010983576182" y1="140.37084112569926" y2="142.7455964860345" /><path d="M 175.68104954172406 140.8457921977663 a86.0,86.0 0 0,1 -30.038265399797805,32.042727171017184" fill="none" id="id29" stroke="none" /><text fill="#e1ed5e" style="font-size:6.75px; font-family:Arial;" text-anchor="middle"><textPath startOffset="22.206326154141568" xlink:href="#id29">May</textPath></text><path d="M 114.81725581225074 114.88116024355365 l 9.757159044180167 9.799240095337757 a34.828494461057645,34.828494461057645 0 0,0 -0.4284734858425538,0.4193514876114379 l -9.58703560596182 -9.965741685871766" fill="#ff6509" stroke="none" /><path d="M 114.0293411484842 115.62618273729858 l 14.099220961144438 15.704016379714135 a42.10460049765227,42.10460049765227 0 0,0 -0.54346542584294,0.47954505066482833 l -13.82681318239491 -15.944384572151252" fill="#ffd013" stroke="none" /><path d="M 113.48314897796784 116.09983520530334 l 20.89756957951412 24.953178739722446 a53.54795759409752,53.54795759409752 0 0,0 -0.7117540247587986,0.5857251064091915 l -20.46494542621063 -25.309198964988816" fill="#97ff23" stroke="none" /><path d="M 112.92097659922987 116.55440617244103 l 14.246802854619038 18.25305999920416 a44.15481787691124,44.15481787691124 0 0,0 -0.6031785117851305,0.46249156198561625 l -13.930495614340414 -18.49559090301715" fill="#ffed16" stroke="none" /><path d="M 112.63410532772338 116.77436683061366 l 14.327832873821706 19.023137632533842 a44.815258979202625,44.815258979202625 0 0,0 -0.6201898959019368,0.45880165834187137 l -13.998258007501203 -19.266949239615485" fill="#fff617" stroke="none" /><line stroke="#e1ed5e" stroke-width="0.3" x1="143.8653032363475" x2="146.44561519142675" y1="172.8068346515853" y2="177.08958963109032" /><path d="M 144.38136562736335 173.6633856474863 a86.0,86.0 0 0,1 -40.68145358897372,12.25698825130547" fill="none" id="id30" stroke="none" /><text fill="#e1ed5e" style="font-size:6.75px; font-family:Arial;" text-anchor="middle"><textPath startOffset="21.466115282336833" xlink:href="#id30">June</textPath></text><path d="M 110.5260780823613 118.17145234162733 l 13.336099621834311 23.022468274051946 a47.60611956962566,47.60611956962566 0 0,0 -0.7126210661337458,0.4046448396181222 l -12.937829788779366 -23.248616279464695" fill="#e3ff1b" stroke="none" /><path d="M 109.57404056367764 118.69057910512821 l 11.92723396530826 23.284516965565693 a47.16156800314002,47.16156800314002 0 0,0 -0.7257179241794501,0.36389003284055005 l -11.524662133446048 -23.48637483931555" fill="#e9ff1a" stroke="none" /><path d="M 109.2508944713604 118.85261126421891 l 23.199459679656886 47.27871409997547 a73.66395101371758,73.66395101371758 0 0,0 -1.1431499266867606,0.5487814339162863 l -22.382197084969896 -47.67104981039132" fill="#3fffbb" stroke="none" /><path d="M 108.59647513512805 119.15986991738527 l 10.861180210651199 24.20745674410148 a47.532361326986816,47.532361326986816 0 0,0 -0.7493801009553652,0.3285062140076964 l -10.44287943503808 -24.390827511403632" fill="#e4ff1a" stroke="none" /><path d="M 108.2653958097858 119.30500536409082 l 10.16603464993648 23.74421721173966 a46.82897813507114,46.82897813507114 0 0,0 -0.7437524157435992,0.3108885701009314 l -9.75581077469542 -23.91569082486056" fill="#edff1a" stroke="none" /><path d="M 107.59598834532513 119.57807347666477 l 14.963045356247848 38.5660941146098 a62.36709249621093,62.36709249621093 0 0,0 -1.004198629407968,0.37970199578105607 l -14.296976506079606 -38.817944360497485" fill="#32ff2f" stroke="none" /><path d="M 106.91757812671514 119.82793768551818 l 17.017469458095203 48.777378122731456 a72.66068992265903,72.66068992265903 0 0,0 -1.1844739707709147,0.4018378808352034 l -16.175325754387064 -49.06307899046478" fill="#3dffaf" stroke="none" /><path d="M 106.57524785965236 119.94407469862006 l 16.25670590409559 49.30992166764069 a72.92060151540154,72.92060151540154 0 0,0 -1.1954765049943799,0.3827538249954571 l -15.405508054010268 -49.58244833929585" fill="#3effb3" stroke="none" /><path d="M 105.88484417918355 120.15858648285463 l 10.165590138338876 34.822320135142306 a57.275793615785034,57.275793615785034 0 0,0 -0.9487839724288009,0.2681358277553226 l -9.564674997805469 -34.99214475623615" fill="#6bff28" stroke="none" /><path d="M 105.53697534728816 120.25689768951611 l 8.148208531314848 29.810034580075804 a51.90358335104697,51.90358335104697 0 0,0 -0.8638475444533791,0.2281499878782909 l -7.633870544049971 -29.94587591725768" fill="#acff21" stroke="none" /><path d="M 105.18746579009965 120.34920634021253 l 8.946236793827138 35.0939795754282 a57.21632995227151,57.21632995227151 0 0,0 -0.9564573661330256,0.23507395010339355 l -8.340826142950903 -35.242774783845626" fill="#6bff28" stroke="none" /><path d="M 104.48393922423573 120.51570834832081 l 8.788498869491011 40.2106876586305 a62.15989691871183,62.15989691871183 0 0,0 -1.0472715374528543,0.2194659331036754 l -8.095035870608779 -40.356009572460714" fill="#34ff2f" stroke="none" /><path d="M 101.98527174616119 120.90594882070398 l 2.1875368092775687 23.03590562178371 a44.13953899946303,44.13953899946303 0 0,0 -0.7570050372821636,0.06531757992778146 l -1.7906874542538633 -23.070147453990153" fill="#ffec16" stroke="none" /><line stroke="#e1ed5e" stroke-width="0.3" x1="102.19456741930631" x2="102.32365962044197" y1="184.97166512339345" y2="189.96999836594603" /><path d="M 102.22038585953345 185.97133177190398 a86.0,86.0 0 0,1 -42.740103519485714,-10.115201625700543" fill="none" id="id31" stroke="none" /><text fill="#e1ed5e" style="font-size:6.75px; font-family:Arial;" text-anchor="middle"><textPath startOffset="22.20632615414155" xlink:href="#id31">July</textPath></text><path d="M 97.65516085044442 120.86867818915974 l -2.0091844044451603 17.881406819308445 a38.99393041580066,38.99393041580066 0 0,0 -0.6663739187463426,-0.08068860138757931 l 2.316685746242892 -17.844172689195517" fill="#ffa40f" stroke="none" /><path d="M 97.2962882734958 120.8252237178851 l -8.111135179512582 62.47567115365527 a84.0,84.0 0 0,0 -1.4322856352526758,-0.19850173802958038 l 9.185349405952088 -62.32679485013308" fill="#4dd2ff" stroke="none" /><path d="M 96.93821686468263 120.77559828337769 l -4.7514910344788985 32.24103883803391 a53.589281250226186,53.589281250226186 0 0,0 -0.9114366360751105,-0.14234765791379164 l 5.305763534162526 -32.154472872773006" fill="#97ff23" stroke="none" /><path d="M 90.42595943632237 118.69057910512821 l -5.0705786007027065 9.8988561636927 a32.121965684867995,32.121965684867995 0 0,0 -0.4899503732188069,-0.2563188787833904 l 5.240219876448009 -9.810107865964595" fill="#ff3b05" stroke="none" /><path d="M 90.10565033884886 118.52300852407294 l -3.4885437765766065 6.530831062484625 a28.40416720825546,28.40416720825546 0 0,0 -0.4292778437985278,-0.2340765078270153 l 3.600444432243775 -6.469813902897844" fill="#ff0000" stroke="none" /><line stroke="#e1ed5e" stroke-width="0.3" x1="58.666819895761336" x2="56.23545636021788" y1="174.27360380694188" y2="178.64263932499728" /><path d="M 58.180547188652646 175.14741091055294 a86.0,86.0 0 0,1 -31.652253787137756,-30.449443065178592" fill="none" id="id32" stroke="none" /><text fill="#e1ed5e" style="font-size:6.75px; font-family:Arial;" text-anchor="middle"><textPath startOffset="22.20632615414155" xlink:href="#id32">August</textPath></text><line stroke="#e1ed5e" stroke-width="0.3" x1="26.63291911575756" x2="22.317208475507996" y1="142.92168965132927" y2="145.44649492493687" /><path d="M 25.769776987707644 143.4266507060508 a86.0,86.0 0 0,1 -11.730757126820373,-40.83630448921669" fill="none" id="id33" stroke="none" /><text fill="#e1ed5e" style="font-size:6.75px; font-family:Arial;" text-anchor="middle"><textPath startOffset="21.46611528233685" xlink:href="#id33">September</textPath></text><line stroke="#e1ed5e" stroke-width="0.3" x1="15.007084014347285" x2="10.007500721073583" y1="101.09737516637583" y2="101.16192664675087" /><path d="M 14.007167355692545 101.11028546245083 a86.0,86.0 0 0,1 10.666146001902534,-42.60595125391555" fill="none" id="id34" stroke="none" /><text fill="#e1ed5e" style="font-size:6.75px; font-family:Arial;" text-anchor="middle"><textPath startOffset="22.20632615414155" xlink:href="#id34">October</textPath></text><path d="M 79.12142395522702 97.74499172005258 l -17.267497701078824 -1.8649907065694828 a38.36792063525029,38.36792063525029 0 0,0 0.0765707623718884,-0.6560115310257792 l 17.232836585703346 2.161945975920124" fill="#ff9a0e" stroke="none" /><line stroke="#e1ed5e" stroke-width="0.3" x1="26.266209847984257" x2="21.92892807433627" y1="57.711370442889674" y2="55.22380399835377" /><path d="M 25.39875349325466 57.213857153982495 a86.0,86.0 0 0,1 29.58750427330802,-30.492523968695096" fill="none" id="id35" stroke="none" /><text fill="#e1ed5e" style="font-size:6.75px; font-family:Arial;" text-anchor="middle"><textPath startOffset="21.46611528233685" xlink:href="#id35">November</textPath></text><line stroke="#e1ed5e" stroke-width="0.3" x1="56.762969772571076" x2="54.21961505331055" y1="26.818313649435495" y2="22.513508569990535" /><path d="M 56.25429882871897 25.957352633546506 a86.0,86.0 0 0,1 42.265352541879196,-11.944610805530505" fill="none" id="id36" stroke="none" /><text fill="#e1ed5e" style="font-size:6.75px; font-family:Arial;" text-anchor="middle"><textPath startOffset="22.20632615414155" xlink:href="#id36">December</textPath></text></svg>