<?xml version="1.0" encoding="utf-8" ?>
<svg baseProfile="full" height="200mm" version="1.1" viewBox="0,0,200,200" width="200mm" xmlns="http://www.w3.org/2000/svg" xmlns:ev="http://www.w3.org/2001/xml-events" xmlns:xlink="http://www.w3.org/1999/xlink"><defs /><rect fill="#1a1a1a" height="200" width="200" x="0" y="0" /><text alignment-baseline="middle" fill="#e1ed5e" style="dominant-baseline: central; font-size:9.0px; font-family:Arial;" text-anchor="middle" x="100.0" y="100.0">2016</text><line stroke="#e1ed5e" stroke-width="0.3" x1="100.0" x2="100.0" y1="15.0" y2="10.0" /><path d="M 100.0 14.0 a86.0,86.0 0 0,1 42.35913384403234,11.155469271406648" fill="none" id="id1" stroke="none" /><text fill="#e1ed5e" style="font-size:6.75px; font-family:Arial;" text-anchor="middle"><textPath startOffset="22.145653131862478" xlink:href="#id1">January</textPath></text><path d="M 108.4095320186766 80.7573450057729 l 9.277396339877816 -21.228498401159303 a44.16720154043646,44.16720154043646 0 0,0 0.6921349552538923,0.3095831618838489 l -9.64044469798734 21.066111488365603" fill="#e9ff1a" stroke="none" /><path d="M 108.73861861582097 80.90454125486305 l 6.02753149986367 -13.17124412344514 a35.48491655969191,35.48491655969191 0 0,0 0.5517250354317779,0.25823517481225217 l -6.252745249166953 13.065832717062355" fill="#ffa60f" stroke="none" /><path d="M 110.02825361518725 81.54914285379988 l 6.930860225974135 -12.75200217673605 a35.51379974326059,35.51379974326059 0 0,0 0.5331396080820617,0.2957235534759555 l -7.1487440222122975 12.63114570782695" fill="#ffa60f" stroke="none" /><line stroke="#e1ed5e" stroke-width="0.3" x1="143.13028292997686" x2="145.6673583964461" y1="26.7553504044142" y2="22.446841604673864" /><path d="M 143.63769802327073 25.89364864446614 a86.0,86.0 0 0,1 29.32050498858742,28.57503671076993" fill="none" id="id2" stroke="none" /><text fill="#e1ed5e" style="font-size:6.75px; font-family:Arial;" text-anchor="middle"><textPath startOffset="20.669276256404974" xlink:href="#id2">February</textPath></text><path d="M 112.16784306229584 82.88440491214696 l 16.812509362345132 -23.648899906368737 a50.01604621309371,50.01604621309371 0 0,0 0.6955064419160264,0.5034930280198409 l -17.215996814635126 23.35680610697582" fill="#a3ff21" stroke="none" /><path d="M 113.31354834802062 83.75963576809568 l 14.740610333976619 -17.981147817737465 a44.25096277278563,44.25096277278563 0 0,0 0.5833239158835086,0.4866295572640117 l -15.047108584022022 17.72545607656158" fill="#e8ff1a" stroke="none" /><path d="M 116.57777611688842 87.10902102172516 l 13.72842334491818 -10.675305028634632 a38.390564826700896,38.390564826700896 0 0,0 0.40008091431308535,0.5237187596057139 l -13.909656236585572 10.438065355788035" fill="#ffcc13" stroke="none" /><line stroke="#e1ed5e" stroke-width="0.3" x1="172.87174338648825" x2="177.1583165268699" y1="56.24261187166439" y2="53.66864786411523" /><path d="M 173.72905801456457 55.72781907015455 a86.0,86.0 0 0,1 12.242430191666344,42.057860355516425" fill="none" id="id3" stroke="none" /><text fill="#e1ed5e" style="font-size:6.75px; font-family:Arial;" text-anchor="middle"><textPath startOffset="22.145653131862474" xlink:href="#id3">March</textPath></text><path d="M 119.4528033332814 92.08871423366111 l 16.0557866499663 -6.529748654474554 a38.33279845956354,38.33279845956354 0 0,0 0.24266728664147055,0.6116800843408168 l -16.165512611573895 6.253167552920172" fill="#ffcb13" stroke="none" /><path d="M 120.26092885502905 94.47779374421319 l 16.803603657962388 -4.579896899284038 a38.41655969191271,38.41655969191271 0 0,0 0.1679544900481227,0.6377505554060422 l -16.87974762881524 4.290765839505197" fill="#ffcc13" stroke="none" /><path d="M 120.65975698304385 96.23510406497455 l 31.381765466816827 -5.718803049663637 a52.898587933247754,52.898587933247754 0 0,0 0.155131866298674,0.8947593801215366 l -31.475312150607735 5.179250636621507" fill="#83ff25" stroke="none" /><path d="M 120.86939407059847 97.66154086499901 l 16.6021330420422 -1.860303636096509 a37.70603337612323,37.70603337612323 0 0,0 0.06655583077425407,0.6438672881584115 l -16.631621265298122 1.575031825655166" fill="#ffc312" stroke="none" /><line stroke="#e1ed5e" stroke-width="0.3" x1="184.99686870605535" x2="189.99668451229388" y1="99.2704041080226" y2="99.22748670261217" /><path d="M 185.99683186730306 99.26182062694052 a86.0,86.0 0 0,1 -10.086455211305974,41.156179273409016" fill="none" id="id4" stroke="none" /><text fill="#e1ed5e" style="font-size:6.75px; font-family:Arial;" text-anchor="middle"><textPath startOffset="21.40746469413373" xlink:href="#id4">April</textPath></text><path d="M 120.86939407059847 102.33845913500097 l 14.538347831594704 1.6290521986218551 a35.6293324775353,35.6293324775353 0 0,0 -0.07332501988761356,0.6072363514622876 l -14.508240725447427 -1.8783822270075512" fill="#ffa70f" stroke="none" /><path d="M 120.82617615685814 102.69636545807757 l 17.238024222259156 2.231807352839377 a38.381899871630296,38.381899871630296 0 0,0 -0.09020748684256326,0.6526964379834682 l -17.197172218861382 -2.5273920990229306" fill="#ffcc13" stroke="none" /><path d="M 120.77682067341334 103.0534771498775 l 28.721963770650675 4.221139579142485 a50.03048780487805,50.03048780487805 0 0,0 -0.13217222909567797,0.8486405247539048 l -28.645270049416727 -4.71356828582784" fill="#a3ff21" stroke="none" /><path d="M 120.26092885502905 105.52220625578681 l 59.183239550216456 16.13065511558777 a82.34210526315789,82.34210526315789 0 0,0 -0.3834064389707269,1.3605741931171509 l -58.897614619171144 -17.14423723260793" fill="#4be2ff" stroke="none" /><path d="M 119.31412917781788 108.2440532568976 l 21.668625303061678 9.249047645770279 a44.56001283697047,44.56001283697047 0 0,0 -0.3063312414546478,0.7009458291107913 l -21.506660179590064 -9.619655544656915" fill="#e4ff1a" stroke="none" /><line stroke="#e1ed5e" stroke-width="0.3" x1="174.33088141563837" x2="178.70328620479359" y1="141.23008692659167" y2="143.65538615756765" /><path d="M 175.20536237346943 141.71514677278685 a86.0,86.0 0 0,1 -30.301960400862466,31.631185727798858" fill="none" id="id5" stroke="none" /><text fill="#e1ed5e" style="font-size:6.75px; font-family:Arial;" text-anchor="middle"><textPath startOffset="22.145653131862474" xlink:href="#id5">May</textPath></text><path d="M 117.81537515405839 111.11811171558189 l 25.762541862704456 16.077731511685496 a51.36777920410783,51.36777920410783 0 0,0 -0.47327411887916143,0.7440655236197512 l -25.482750052199403 -16.51761070998392" fill="#94ff23" stroke="none" /><path d="M 117.62189284568427 111.42229804090321 l 7.617679609479047 4.9376878886702915 a30.077984595635428,30.077984595635428 0 0,0 -0.2845600221748385,0.4308601421607094 l -7.531795148383481 -5.067727909170062" fill="#ff5b08" stroke="none" /><path d="M 114.91283532996324 114.78537596483092 l 12.396824234499066 12.290869108486808 a38.45699614890886,38.45699614890886 0 0,0 -0.4688238924595949,0.46481687472154476 l -12.184008421909507 -12.501865993437015" fill="#ffcd13" stroke="none" /><path d="M 113.59037401385874 116.0094264158162 l 4.624415731288259 5.447550103529609 a28.145699614890887,28.145699614890887 0 0,0 -0.3710215255415014,0.3095193524445437 l -4.530219871584865 -5.526131639886023" fill="#ff3f05" stroke="none" /><line stroke="#e1ed5e" stroke-width="0.3" x1="143.1302829299769" x2="145.66735839644613" y1="173.24464959558577" y2="177.55315839532614" /><path d="M 143.63769802327073 174.10635135553383 a86.0,86.0 0 0,1 -40.68552437913181,11.842963189579606" fill="none" id="id6" stroke="none" /><text fill="#e1ed5e" style="font-size:6.75px; font-family:Arial;" text-anchor="middle"><textPath startOffset="21.407464694133747" xlink:href="#id6">June</textPath></text><path d="M 106.38641147887787 120.00534299687104 l 5.312444978578773 16.641158231030072 a38.468549422336324,38.468549422336324 0 0,0 -0.630809777782018,0.1954264816430276 l -5.025994567925131 -16.729901300479742" fill="#ffcd13" stroke="none" /><path d="M 105.3480935250658 120.30758222061773 l 1.9772155779447393 7.507809601460727 a28.76379974326059,28.76379974326059 0 0,0 -0.4785675893819012,0.12165000979687665 l -1.8480426953374407 -7.540644843092873" fill="#ff4806" stroke="none" /><path d="M 104.29559338865022 120.5559693870025 l 4.75071517120893 22.733891872485863 a44.22496790757381,44.22496790757381 0 0,0 -0.7444610277432337,0.1489130553957206 l -4.359757657934738 -22.812094324544447" fill="#e8ff1a" stroke="none" /><path d="M 103.58742460773223 120.69131181640829 l 3.002404007617453 17.317068458120907 a38.57541720154043,38.57541720154043 0 0,0 -0.65343541560483,0.10752254897643325 l -2.7046910889595512 -17.36605700559301" fill="#ffcf13" stroke="none" /><path d="M 101.80034050326958 120.92268563240118 l 0.7480508885536498 8.693485232278194 a29.725609756097562,29.725609756097562 0 0,0 -0.5087764664549145,0.039382516230869184 l -0.5987054273234995 -8.705045515504118" fill="#ff5607" stroke="none" /><path d="M 101.08105385017728 120.97215588758144 l 1.496386293991953 29.02949434063171 a50.06803594351733,50.06803594351733 0 0,0 -0.858724607817461,0.03687732952425677 l -0.9978359255736625 -29.050904238581797" fill="#a3ff22" stroke="none" /><path d="M 100.72087961077811 120.9876233191556 l 0.5987610447674234 17.432274512797648 a38.442554557124524,38.442554557124524 0 0,0 -0.6597230874046063,0.016992126532644838 l -0.29942464329207336 -17.439984356680338" fill="#ffcd13" stroke="none" /><line stroke="#e1ed5e" stroke-width="0.3" x1="101.45913802915013" x2="101.54496967792366" y1="184.9874750549273" y2="189.98673829345242" /><path d="M 101.47630435890484 185.9873277026323 a86.0,86.0 0 0,1 -42.54439059252881,-10.42667462771756" fill="none" id="id7" stroke="none" /><text fill="#e1ed5e" style="font-size:6.75px; font-family:Arial;" text-anchor="middle"><textPath startOffset="22.145653131862474" xlink:href="#id7">July</textPath></text><path d="M 100.36049292484886 120.99690560180557 l 0.3475685957074737 20.244128223270266 a41.24711168164313,41.24711168164313 0 0,0 -0.7080615205563234,0.0060778565673015065 l -2.4795560512903247e-15 -20.247111681643133" fill="#fff116" stroke="none" /><path d="M 99.27912038922189 120.98762331915562 l -0.5959848716835494 17.35144926253132 a38.36168164313222,38.36168164313222 0 0,0 -0.657947119423234,-0.028255080280252146 l 0.8937577517076223 -17.33866161382524" fill="#ffcc13" stroke="none" /><path d="M 98.55909050195518 120.95050786540614 l -1.201770841208114 17.473484278721276 a38.51476251604622,38.51476251604622 0 0,0 -0.6592095146255024,-0.051026985564362456 l 1.5015493506088524 -17.45027952616186" fill="#ffce13" stroke="none" /><path d="M 95.70440661134978 120.55596938700252 l -3.5531402859906085 17.00306251972765 a38.37034659820283,38.37034659820283 0 0,0 -0.6435941980589097,-0.1402683599641836 l 3.8444969006686547 -16.939562701629747" fill="#ffcc13" stroke="none" /><line stroke="#e1ed5e" stroke-width="0.3" x1="58.13341422392154" x2="55.670673884152215" y1="173.97424548756322" y2="178.32567169271397" /><path d="M 57.64086615596767 174.84453072859336 a86.0,86.0 0 0,1 -31.369924170532244,-30.572349798747897" fill="none" id="id8" stroke="none" /><text fill="#e1ed5e" style="font-size:6.75px; font-family:Arial;" text-anchor="middle"><textPath startOffset="22.145653131862474" xlink:href="#id8">August</textPath></text><path d="M 85.08716467003676 114.78537596483092 l -18.28141866348282 18.12516816081121 a46.74358151476252,46.74358151476252 0 0,0 -0.5600620033617756,-0.5746729542187459 l 18.589867467995404 -17.808672514524726" fill="#caff1d" stroke="none" /><path d="M 82.37810715431573 111.42229804090321 l -7.397123184260279 4.79472587853062 a29.815147625160463,29.815147625160463 0 0,0 -0.27470017081099585,-0.43187429500049584 l 7.478341046697165 -4.667037908851451" fill="#ff5708" stroke="none" /><path d="M 82.18462484594161 111.11811171558189 l -7.346024396460712 4.584462533006763 a29.6591784338896,29.6591784338896 0 0,0 -0.26584797758054296,-0.4342426921266686 l 7.42364033849666 -4.457682724755538" fill="#ff5507" stroke="none" /><line stroke="#e1ed5e" stroke-width="0.3" x1="26.387840678322732" x2="22.057713659400548" y1="142.50000000000003" y2="145.00000000000006" /><path d="M 25.521815274538298 143.00000000000003 a86.0,86.0 0 0,1 -11.493303480769221,-40.785679425670985" fill="none" id="id9" stroke="none" /><text fill="#e1ed5e" style="font-size:6.75px; font-family:Arial;" text-anchor="middle"><textPath startOffset="21.40746469413373" xlink:href="#id9">September</textPath></text><path d="M 81.1358732173502 109.22738970284198 l -2.594552555838502 1.2691256697471993 a23.888318356867778,23.888318356867778 0 0,0 -0.17702465851360094,-0.36991345125438524 l 2.615956472312015 -1.2243997164277105" fill="#ff0000" stroke="none" /><path d="M 79.48165901384964 104.47187691870673 l -17.03402340808779 3.712486119747913 a38.43388960205392,38.43388960205392 0 0,0 -0.13496204767519152,-0.6458422549370286 l 17.09524316658735 -3.419527413525475" fill="#ffcd13" stroke="none" /><path d="M 79.34024301695615 103.76489593502545 l -9.450901117587176 1.7222690097049322 a30.606546854942234,30.606546854942234 0 0,0 -0.08975760828543329,-0.5176980324341811 l 9.479073543364844 -1.5597779443501585" fill="#ff6209" stroke="none" /><path d="M 79.22317932658666 103.0534771498775 l -10.541769410996947 1.5492770776496538 a31.655006418485236,31.655006418485236 0 0,0 -0.07439753072534233,-0.5383034712401148 l 10.566811458277503 -1.3680852982094536" fill="#ff710a" stroke="none" /><line stroke="#e1ed5e" stroke-width="0.3" x1="15.003131293944662" x2="10.003315487706104" y1="100.72959589197737" y2="100.7725132973878" /><path d="M 14.003168132696942 100.73817937305945 a86.0,86.0 0 0,1 10.791469493833615,-42.45332614584628" fill="none" id="id10" stroke="none" /><text fill="#e1ed5e" style="font-size:6.75px; font-family:Arial;" text-anchor="middle"><textPath startOffset="22.145653131862435" xlink:href="#id10">October</textPath></text><path d="M 79.01933749520258 99.09900007780938 l -17.337037455825634 -0.7445269850340996 a38.353016688061615,38.353016688061615 0 0,0 0.03389385853695506,-0.6575318007998029 l 17.32170200783211 1.0420305792106146" fill="#ffcc13" stroke="none" /><path d="M 79.03789590574601 98.7389718711861 l -13.340132355232882 -0.8025092360198923 a34.36424903722721,34.36424903722721 0 0,0 0.040477876129441565,-0.5885394352493892 l 13.324390517938376 1.0313920954236064" fill="#ff960d" stroke="none" /><path d="M 79.06263194458094 98.37931529534042 l -11.556252247349628 -0.8945270107920757 a32.5908215661104,32.5908215661104 0 0,0 0.047964963233939915,-0.5574255788229339 l 11.539193661417945 1.0927736369906904" fill="#ff7e0b" stroke="none" /><path d="M 79.22317932658666 96.9465228501225 l -13.056477213023868 -1.9188525258284768 a34.19672657252888,34.19672657252888 0 0,0 0.09034206495235997,-0.5800608640187432 l 13.02161365593324 2.14270157177867" fill="#ff940d" stroke="none" /><path d="M 79.34024301695615 96.23510406497455 l -22.845834331148797 -4.163272049918108 a44.222079589216946,44.222079589216946 0 0,0 0.14250819470455997,-0.7456630929254446 l 22.770999844162077 4.554837707876867" fill="#e8ff1a" stroke="none" /><path d="M 79.407916724674 95.88100663000787 l -8.83650740221215 -1.7675489612656503 a30.011553273427474,30.011553273427474 0 0,0 0.10538669714757189,-0.5043134962649564 l 8.804862994240212 1.9189789088160158" fill="#ff5a08" stroke="none" /><path d="M 79.64726062577567 94.8264132398404 l -8.414680161230287 -2.1389787916339285 a29.682284980744544,29.682284980744544 0 0,0 0.129768856904012,-0.49275348662144924 l 8.37672182352155 2.2831127826281623" fill="#ff5507" stroke="none" /><path d="M 79.73907114497095 94.47779374421319 l -11.194042436821714 -3.0509860438514074 a32.60237483953787,32.60237483953787 0 0,0 0.15180520827427235,-0.5387031300601626 l 11.14001873647286 3.2426970978145833" fill="#ff7e0b" stroke="none" /><path d="M 79.83685265289637 94.1308016681162 l -27.790422643314535 -8.089387009509565 a49.943838254172015,49.943838254172015 0 0,0 0.24668374746981986,-0.8211299657863204 l 27.647462575841086 8.56525457888661" fill="#a4ff21" stroke="none" /><path d="M 80.68587082218212 91.75594674310238 l -16.007740109874913 -6.832752373839857 a38.405006418485236,38.405006418485236 0 0,0 0.26401817560713253,-0.6041252538346172 l 15.8880880522508 7.106539697450342" fill="#ffcc13" stroke="none" /><path d="M 81.46374523516351 90.13048839642627 l -55.60876429450947 -29.60853481072118 a84.0,84.0 0 0,0 0.6886186015386069,-1.2669806661015215 l 55.09230034335552 30.558770310297323" fill="#4dd2ff" stroke="none" /><line stroke="#e1ed5e" stroke-width="0.3" x1="26.387840678322718" x2="22.05771365940052" y1="57.49999999999999" y2="54.99999999999999" /><path d="M 25.521815274538284 56.99999999999999 a86.0,86.0 0 0,1 29.574782752854787,-30.34633250058573" fill="none" id="id11" stroke="none" /><text fill="#e1ed5e" style="font-size:6.75px; font-family:Arial;" text-anchor="middle"><textPath startOffset="21.40746469413373" xlink:href="#id11">November</textPath></text><line stroke="#e1ed5e" stroke-width="0.3" x1="56.869717070023135" x2="54.33264160355391" y1="26.7553504044142" y2="22.446841604673864" /><path d="M 56.362301976729285 25.89364864446614 a86.0,86.0 0 0,1 42.16139366436587,-11.88097634709845" fill="none" id="id12" stroke="none" /><text fill="#e1ed5e" style="font-size:6.75px; font-family:Arial;" text-anchor="middle"><textPath startOffset="22.145653131862474" xlink:href="#id12">December</textPath></text></svg>