<?xml version="1.0" encoding="utf-8" ?>
<svg baseProfile="full" height="200mm" version="1.1" viewBox="0,0,200,200" width="200mm" xmlns="http://www.w3.org/2000/svg" xmlns:ev="http://www.w3.org/2001/xml-events" xmlns:xlink="http://www.w3.org/1999/xlink"><defs /><rect fill="#1a1a1a" height="200" width="200" x="0" y="0" /><text alignment-baseline="middle" fill="#e1ed5e" style="dominant-baseline: central; font-size:9.0px; font-family:Arial;" text-anchor="middle" x="100.0" y="100.0">2023</text><line stroke="#e1ed5e" stroke-width="0.3" x1="100.0" x2="100.0" y1="15.0" y2="10.0" /><path d="M 100.0 14.0 a86.0,86.0 0 0,1 42.46469731375804,11.215312516191453" fill="none" id="id37" stroke="none" /><text fill="#e1ed5e" style="font-size:6.75px; font-family:Arial;" text-anchor="middle"><textPath startOffset="22.20632615414155" xlink:href="#id37">January</textPath></text><line stroke="#e1ed5e" stroke-width="0.3" x1="143.23703022742887" x2="145.7803849466894" y1="26.81831364943548" y2="22.513508569990506" /><path d="M 143.74570117128098 25.957352633546492 a86.0,86.0 0 0,1 28.547481713284135,27.462654790039103" fill="none" id="id38" stroke="none" /><text fill="#e1ed5e" style="font-size:6.75px; font-family:Arial;" text-anchor="middle"><textPath startOffset="19.985693538727396" xlink:href="#id38">February</textPath></text><path d="M 117.04232023915458 87.72973835380427 l 27.188562856563532 -19.575431945446354 a54.50246985008878,54.50246985008878 0 0,0 0.5416179832015661,0.7660802269624587 l -27.52149345956898 19.1045252181521" fill="#94ff23" stroke="none" /><line stroke="#e1ed5e" stroke-width="0.3" x1="172.23445277983987" x2="176.4835382374775" y1="55.19839476539836" y2="52.563006222186495" /><path d="M 173.08426987136738 54.67131705675599 a86.0,86.0 0 0,1 12.851231095245387,41.99856678651699" fill="none" id="id39" stroke="none" /><text fill="#e1ed5e" style="font-size:6.75px; font-family:Arial;" text-anchor="middle"><textPath startOffset="22.20632615414155" xlink:href="#id39">March</textPath></text><path d="M 119.47837535516314 92.15188598940014 l 16.490818322448053 -6.644384860791558 a38.77905900553526,38.77905900553526 0 0,0 0.24413532047856634,0.621297761505592 l -16.60274719280832 6.359538094390182" fill="#ff910d" stroke="none" /><path d="M 120.28053869075195 94.5502522615342 l 21.881670777595097 -5.880000903941991 a43.657932973892784,43.657932973892784 0 0,0 0.18877621223761085,0.7274317524149425 l -21.979643321703012 5.5024727259781985" fill="#ffd914" stroke="none" /><line stroke="#e1ed5e" stroke-width="0.3" x1="184.98032266829074" x2="189.97916517819016" y1="98.17113171792111" y2="98.06355123074" /><path d="M 185.9800911702706 98.14961562048488 a86.0,86.0 0 0,1 -9.607161424134198,41.387399972396054" fill="none" id="id40" stroke="none" /><text fill="#e1ed5e" style="font-size:6.75px; font-family:Arial;" text-anchor="middle"><textPath startOffset="21.466115282336823" xlink:href="#id40">April</textPath></text><path d="M 120.92983693683757 101.71520430193887 l 44.071057493832875 3.6116319316073455 a65.2187968383823,65.2187968383823 0 0,0 -0.10132331319883929,1.1180943180136798 l -44.00235958435697 -4.369707638169596" fill="#32ff4d" stroke="none" /><path d="M 120.89721153311464 102.0752229133903 l 50.33534926600145 4.998612852474721 a71.58293700626011,71.58293700626011 0 0,0 -0.1323183269703905,1.2251033738256742 l -50.24184863753001 -5.864312548185186" fill="#3bff9f" stroke="none" /><path d="M 120.70491114924044 103.5080841355445 l 24.929116794630495 4.223801711102123 a46.28440952553643,46.28440952553643 0 0,0 -0.13985287850596329,0.7843692135011064 l -24.852717473785344 -4.652289675336448" fill="#fffe18" stroke="none" /><path d="M 120.49622156327973 104.57218783832717 l 24.64943445651627 5.498664429235032 a46.25529507908047,46.25529507908047 0 0,0 -0.18004198297520582,0.7756161505207106 l -24.55113190761051 -5.922149237104308" fill="#fffe18" stroke="none" /><path d="M 120.32669344350535 105.2749913415812 l 39.81465858147779 10.332323841505666 a62.133489445042095,62.133489445042095 0 0,0 -0.27756486516367995,1.0329221199383605 l -39.63090563997233 -11.016136894619574" fill="#3aff2e" stroke="none" /><path d="M 118.97047184881838 109.00673069616215 l 35.42745530143686 16.820116636700263 a60.21760972837977,60.21760972837977 0 0,0 -0.452626361431945,0.9325443680496177 l -35.1326756833902 -17.42744996071516" fill="#4fff2b" stroke="none" /><line stroke="#e1ed5e" stroke-width="0.3" x1="174.80103733775053" x2="179.2010983576182" y1="140.37084112569926" y2="142.7455964860345" /><path d="M 175.68104954172406 140.8457921977663 a86.0,86.0 0 0,1 -30.038265399797805,32.042727171017184" fill="none" id="id41" stroke="none" /><text fill="#e1ed5e" style="font-size:6.75px; font-family:Arial;" text-anchor="middle"><textPath startOffset="22.206326154141568" xlink:href="#id41">May</textPath></text><path d="M 117.55443506779137 111.5257021239791 l 26.21499430618496 17.211958937332565 a52.36044414439522,52.36044414439522 0 0,0 -0.5011565082066053,0.7491609819609275 l -25.91483469256763 -17.660656833499296" fill="#afff20" stroke="none" /><path d="M 116.93607887273984 112.41649034213515 l 6.970725166620233 5.110506532201602 a29.643395534408217,29.643395534408217 0 0,0 -0.3052404905341332,0.40891951875853083 l -6.881723409391007 -5.2297389304694475" fill="#ff0000" stroke="none" /><path d="M 114.0293411484842 115.62618273729858 l 42.088023445452606 46.878548211895726 a84.0,84.0 0 0,0 -1.0842305883736492,0.9567074329108447 l -41.27485050417237 -47.59607878657886" fill="#4dd2ff" stroke="none" /><line stroke="#e1ed5e" stroke-width="0.3" x1="143.8653032363475" x2="146.44561519142675" y1="172.8068346515853" y2="177.08958963109032" /><path d="M 144.38136562736335 173.6633856474863 a86.0,86.0 0 0,1 -40.68145358897372,12.25698825130547" fill="none" id="id42" stroke="none" /><text fill="#e1ed5e" style="font-size:6.75px; font-family:Arial;" text-anchor="middle"><textPath startOffset="21.466115282336833" xlink:href="#id42">June</textPath></text><line stroke="#e1ed5e" stroke-width="0.3" x1="102.19456741930631" x2="102.32365962044197" y1="184.97166512339345" y2="189.96999836594603" /><path d="M 102.22038585953345 185.97133177190398 a86.0,86.0 0 0,1 -42.740103519485714,-10.115201625700543" fill="none" id="id43" stroke="none" /><text fill="#e1ed5e" style="font-size:6.75px; font-family:Arial;" text-anchor="middle"><textPath startOffset="22.20632615414155" xlink:href="#id43">July</textPath></text><path d="M 95.51606077576429 120.51570834832081 l -2.7111801212466426 12.404668722230932 a33.697492026307295,33.697492026307295 0 0,0 -0.5656041407270475,-0.128729660980487 l 2.9243044113665526 -12.356162327672758" fill="#ff4206" stroke="none" /><path d="M 94.81253420990036 120.34920634021253 l -4.080716382279647 16.007689118138572 a37.519635501292925,37.519635501292925 0 0,0 -0.6244510090443437,-0.16492318703551362 l 4.35565783413548 -15.935074581799476" fill="#ff7e0b" stroke="none" /><line stroke="#e1ed5e" stroke-width="0.3" x1="58.666819895761336" x2="56.23545636021788" y1="174.27360380694188" y2="178.64263932499728" /><path d="M 58.180547188652646 175.14741091055294 a86.0,86.0 0 0,1 -31.652253787137756,-30.449443065178592" fill="none" id="id44" stroke="none" /><text fill="#e1ed5e" style="font-size:6.75px; font-family:Arial;" text-anchor="middle"><textPath startOffset="22.20632615414155" xlink:href="#id44">August</textPath></text><line stroke="#e1ed5e" stroke-width="0.3" x1="26.63291911575756" x2="22.317208475507996" y1="142.92168965132927" y2="145.44649492493687" /><path d="M 25.769776987707644 143.4266507060508 a86.0,86.0 0 0,1 -11.730757126820373,-40.83630448921669" fill="none" id="id45" stroke="none" /><text fill="#e1ed5e" style="font-size:6.75px; font-family:Arial;" text-anchor="middle"><textPath startOffset="21.46611528233685" xlink:href="#id45">September</textPath></text><line stroke="#e1ed5e" stroke-width="0.3" x1="15.007084014347285" x2="10.007500721073583" y1="101.09737516637583" y2="101.16192664675087" /><path d="M 14.007167355692545 101.11028546245083 a86.0,86.0 0 0,1 10.666146001902534,-42.60595125391555" fill="none" id="id46" stroke="none" /><text fill="#e1ed5e" style="font-size:6.75px; font-family:Arial;" text-anchor="middle"><textPath startOffset="22.20632615414155" xlink:href="#id46">October</textPath></text><line stroke="#e1ed5e" stroke-width="0.3" x1="26.266209847984257" x2="21.92892807433627" y1="57.711370442889674" y2="55.22380399835377" /><path d="M 25.39875349325466 57.213857153982495 a86.0,86.0 0 0,1 29.58750427330802,-30.492523968695096" fill="none" id="id47" stroke="none" /><text fill="#e1ed5e" style="font-size:6.75px; font-family:Arial;" text-anchor="middle"><textPath startOffset="21.46611528233685" xlink:href="#id47">November</textPath></text><line stroke="#e1ed5e" stroke-width="0.3" x1="56.762969772571076" x2="54.21961505331055" y1="26.818313649435495" y2="22.513508569990535" /><path d="M 56.25429882871897 25.957352633546506 a86.0,86.0 0 0,1 42.265352541879196,-11.944610805530505" fill="none" id="id48" stroke="none" /><text fill="#e1ed5e" style="font-size:6.75px; font-family:Arial;" text-anchor="middle"><textPath startOffset="22.20632615414155" xlink:href="#id48">December</textPath></text></svg>