<?xml version="1.0" encoding="utf-8" ?>
<svg baseProfile="full" height="200mm" version="1.1" viewBox="0,0,200,200" width="200mm" xmlns="http://www.w3.org/2000/svg" xmlns:ev="http://www.w3.org/2001/xml-events" xmlns:xlink="http://www.w3.org/1999/xlink"><defs /><rect fill="#1a1a1a" height="200" width="200" x="0" y="0" /><text alignment-baseline="middle" fill="#e1ed5e" style="dominant-baseline: central; font-size:9.0px; font-family:Arial;" text-anchor="middle" x="100.0" y="100.0">2018</text><line stroke="#e1ed5e" stroke-width="0.3" x1="100.0" x2="100.0" y1="15.0" y2="10.0" /><path d="M 100.0 14.0 a86.0,86.0 0 0,1 42.46469731375804,11.215312516191453" fill="none" id="id25" stroke="none" /><text fill="#e1ed5e" style="font-size:6.75px; font-family:Arial;" text-anchor="middle"><textPath startOffset="22.20632615414155" xlink:href="#id25">January</textPath></text><path d="M 107.4271985657038 80.35727306442388 l 5.518153577023323 -14.593871827064918 a36.602279122115924,36.602279122115924 0 0,0 0.5874087744540131,0.22790547854530324 l -5.768545516477003 14.49672364462907" fill="#ffa10e" stroke="none" /><path d="M 108.76106565485865 80.91482961587045 l 6.4278218050208045 -14.002414681096745 a36.40728756330895,36.40728756330895 0 0,0 0.5672979884855169,0.26635401222949406 l -6.667898004805919 13.889695686227249" fill="#ff9e0e" stroke="none" /><line stroke="#e1ed5e" stroke-width="0.3" x1="143.23703022742887" x2="145.7803849466894" y1="26.81831364943548" y2="22.513508569990506" /><path d="M 143.74570117128098 25.957352633546492 a86.0,86.0 0 0,1 28.547481713284135,27.462654790039103" fill="none" id="id26" stroke="none" /><text fill="#e1ed5e" style="font-size:6.75px; font-family:Arial;" text-anchor="middle"><textPath startOffset="19.985693538727396" xlink:href="#id26">February</textPath></text><path d="M 112.19680574252982 82.90503203632743 l 14.561352494528425 -20.409102158093056 a46.07118739448509,46.07118739448509 0 0,0 0.6416064064123549,0.4661543404992645 l -14.910504217294568 20.15542858277712" fill="#e0ff1b" stroke="none" /><line stroke="#e1ed5e" stroke-width="0.3" x1="172.23445277983987" x2="176.4835382374775" y1="55.19839476539836" y2="52.563006222186495" /><path d="M 173.08426987136738 54.67131705675599 a86.0,86.0 0 0,1 12.851231095245387,41.99856678651699" fill="none" id="id27" stroke="none" /><text fill="#e1ed5e" style="font-size:6.75px; font-family:Arial;" text-anchor="middle"><textPath startOffset="22.20632615414155" xlink:href="#id27">March</textPath></text><path d="M 118.21658344932153 89.55222093294921 l 8.957084855849573 -5.13716767576569 a31.325689364096792,31.325689364096792 0 0,0 0.26424316676650716,0.4700591086327209 l -9.044185663908513 4.982225057198176" fill="#ff5507" stroke="none" /><path d="M 119.04729006885535 91.15688171328212 l 18.82755487109985 -8.741101446606617 a41.75773776027012,41.75773776027012 0 0,0 0.2970718700112625,0.6545584872012218 l -18.975229058074458 8.415720950563333" fill="#ffe715" stroke="none" /><path d="M 119.47837535516314 92.15188598940014 l 14.260757646070472 -5.745861748897245 a36.37478897017445,36.37478897017445 0 0,0 0.2289991296928115,0.5827778069390971 l -14.357550325644985 5.499534937062363" fill="#ff9e0e" stroke="none" /><path d="M 119.61058180528143 92.48833698450437 l 16.686099994139294 -6.391465660905684 a38.868317388857626,38.868317388857626 0 0,0 0.23394176050543306,0.6268476096288818 l -16.79364634314635 6.103294914247469" fill="#ffc011" stroke="none" /><path d="M 120.53481517161879 95.60439243477599 l 42.04032503902598 -8.998998493126042 a63.992684299380976,63.992684299380976 0 0,0 0.22129494238620806,1.0791127303742964 l -42.188999277327184 8.274010106588333" fill="#33ff4f" stroke="none" /><path d="M 120.94382443527127 98.46500227214037 l 7.728707300747963 -0.5664461227034071 a28.749437253798536,28.749437253798536 0 0,0 0.03192475646258197,0.493861852244473 l -7.737312648214961 0.43332520620589887" fill="#ff2f04" stroke="none" /><path d="M 120.96714384426684 98.82574320788733 l 23.72520229873921 -1.3287207905124079 a44.762380416432194,44.762380416432194 0 0,0 0.03646299122879783,0.7696761147376099 l -23.744558898201504 0.9201335691517981" fill="#f0ff19" stroke="none" /><path d="M 120.98425023603335 99.18683210126433 l 43.125763568932925 -1.671181297795532 a64.15813168261114,64.15813168261114 0 0,0 0.03326539718643948,1.103916583922161 l -43.14814066057501 0.928594566448372" fill="#33ff51" stroke="none" /><line stroke="#e1ed5e" stroke-width="0.3" x1="184.98032266829074" x2="189.97916517819016" y1="98.17113171792111" y2="98.06355123074" /><path d="M 185.9800911702706 98.14961562048488 a86.0,86.0 0 0,1 -9.607161424134198,41.387399972396054" fill="none" id="id28" stroke="none" /><text fill="#e1ed5e" style="font-size:6.75px; font-family:Arial;" text-anchor="middle"><textPath startOffset="21.466115282336823" xlink:href="#id28">April</textPath></text><path d="M 120.89721153311464 102.0752229133903 l 41.56216649460352 4.127381306499532 a62.76660101294316,62.76660101294316 0 0,0 -0.11602166637734282,1.0742165365162644 l -41.48496252672512 -4.8421941649005875" fill="#31ff3f" stroke="none" /><path d="M 120.81339534386255 102.79330883721812 l 14.68474643352148 1.97079963683861 a35.81640405177265,35.81640405177265 0 0,0 -0.08726572868960916,0.6103363032050503 l -14.64864665381527 -2.2232814120240696" fill="#ff960d" stroke="none" /><path d="M 120.70491114924044 103.5080841355445 l 29.13193815469241 4.93589609448235 a50.54712999437254,50.54712999437254 0 0,0 -0.15273310608030674,0.8566083699641767 l -29.042658606272912 -5.436623215179744" fill="#a9ff21" stroke="none" /><path d="M 120.23288151984713 105.62410040840565 l 30.181379115776455 8.389467730771692 a52.32568936409679,52.32568936409679 0 0,0 -0.24868995612131306,0.8657223623154682 l -30.032496522769044 -8.907747568591741" fill="#94ff23" stroke="none" /><path d="M 120.02730092923936 106.31721596034902 l 11.275922667250411 3.5567667801514884 a32.82357906584131,32.82357906584131 0 0,0 -0.1746022919540653,0.5373705995000978 l -11.213028124280099 -3.7503362796293813" fill="#ff6b09" stroke="none" /><path d="M 119.79798401119884 107.00284435728193 l 59.393952033596506 21.00853307184577 a84.0,84.0 0 0,0 -0.49390295597909306,1.3590088119754755 l -59.02352481661219 -22.027789680827375" fill="#4dd2ff" stroke="none" /><line stroke="#e1ed5e" stroke-width="0.3" x1="174.80103733775053" x2="179.2010983576182" y1="140.37084112569926" y2="142.7455964860345" /><path d="M 175.68104954172406 140.8457921977663 a86.0,86.0 0 0,1 -30.038265399797805,32.042727171017184" fill="none" id="id29" stroke="none" /><text fill="#e1ed5e" style="font-size:6.75px; font-family:Arial;" text-anchor="middle"><textPath startOffset="22.206326154141568" xlink:href="#id29">May</textPath></text><path d="M 117.55443506779137 111.5257021239791 l 12.380470314411674 8.128636008371865 a35.81049521665729,35.81049521665729 0 0,0 -0.34275230153582187,0.5123681855530972 l -12.238714907465129 -8.34054110813077" fill="#ff960d" stroke="none" /><path d="M 115.32070863581623 114.36230785411682 l 12.982080488677711 12.169974705310299 a38.794456949915585,38.794456949915585 0 0,0 -0.46090299294355896,0.48325494543543873 l -12.770670944355189 -12.391636767328245" fill="#ffbf11" stroke="none" /><path d="M 114.0293411484842 115.62618273729858 l 13.887231896558083 15.467898387680469 a41.787281935846934,41.787281935846934 0 0,0 -0.5393696342837963,0.4759309908234028 l -13.6189199093677 -15.704652520276161" fill="#ffe715" stroke="none" /><path d="M 113.48314897796784 116.09983520530334 l 10.472772299853746 12.505232156510935 a37.31133933595948,37.31133933595948 0 0,0 -0.4959385406034181,0.4081236555926694 l -10.255963630705637 -12.683650930960782" fill="#ffab0f" stroke="none" /><path d="M 113.20401910651253 116.32954008644616 l 15.864142257965252 19.61934050903914 a46.23072594259989,46.23072594259989 0 0,0 -0.623107646870975,0.4950343997816247 l -15.524077118376926 -19.889508822825892" fill="#deff1b" stroke="none" /><line stroke="#e1ed5e" stroke-width="0.3" x1="143.8653032363475" x2="146.44561519142675" y1="172.8068346515853" y2="177.08958963109032" /><path d="M 144.38136562736335 173.6633856474863 a86.0,86.0 0 0,1 -40.68145358897372,12.25698825130547" fill="none" id="id30" stroke="none" /><text fill="#e1ed5e" style="font-size:6.75px; font-family:Arial;" text-anchor="middle"><textPath startOffset="21.466115282336833" xlink:href="#id30">June</textPath></text><path d="M 110.8373102113329 117.98757091392108 l 5.72358786344172 9.499907317228436 a32.0908835115363,32.0908835115363 0 0,0 -0.47560542837503006,0.28099607030744134 l -5.5592145640383075 -9.597021959829627" fill="#ff6008" stroke="none" /><path d="M 110.21172684928248 118.3499491758327 l 10.075244850030687 18.10469802618384 a41.71933033202026,41.71933033202026 0 0,0 -0.6305125595952183,0.34380571982277447 l -9.762109478566819 -18.275444397766385" fill="#ffe615" stroke="none" /><path d="M 109.57404056367764 118.69057910512821 l 4.434122331967752 8.656357120720608 a30.725942599887453,30.725942599887453 0 0,0 -0.4728080135198778,0.2370757533122198 l -4.284460410765114 -8.731400714942131" fill="#ff4c07" stroke="none" /><path d="M 107.93186726928326 119.44442032107085 l 5.583998848550006 13.688784367844471 a35.78390545863815,35.78390545863815 0 0,0 -0.572336174307951,0.2277443754296136 l -5.347541598200189 -13.782875587680154" fill="#ff950d" stroke="none" /><path d="M 106.57524785965236 119.94407469862006 l 3.4023299982838213 10.319964369938745 a31.866347777152505,31.866347777152505 0 0,0 -0.5224239690277317,0.16726365727749085 l -3.224184684165149 -10.377000873875943" fill="#ff5d08" stroke="none" /><path d="M 106.2309692047433 120.05430185196036 l 4.696895469754449 15.11690339375402 a36.8297692740574,36.8297692740574 0 0,0 -0.6070335633972841,0.1828942330793507 l -4.435986931916919 -15.195512995939096" fill="#ffa40f" stroke="none" /><path d="M 105.53697534728816 120.25689768951611 l 2.5340153073618983 9.270637054585805 a30.610720315137872,30.610720315137872 0 0,0 -0.5094637763126161,0.13455401376836895 l -2.374061088237785 -9.31288241765776" fill="#ff4b06" stroke="none" /><path d="M 104.83641907484287 120.43548508189849 l 5.243309706069095 22.15473382683031 a43.76674169949353,43.76674169949353 0 0,0 -0.7346140274189844,0.16719576094262564 l -4.861175529257248 -22.24170632135062" fill="#fdff18" stroke="none" /><path d="M 104.13013068566511 120.58985236759428 l 2.328863785614201 11.610034930967617 a32.84130557118739,32.84130557118739 0 0,0 -0.5552250979770588,0.10641021147417391 l -2.128671073065438 -11.648402340790259" fill="#ff6b09" stroke="none" /><path d="M 102.70371172650421 120.8252237178851 l 1.3400642110965568 10.321787163493132 a31.408413055711875,31.408413055711875 0 0,0 -0.5367437205319043,0.06499218966246403 l -1.1621930675132721 -10.343324881880946" fill="#ff5608" stroke="none" /><line stroke="#e1ed5e" stroke-width="0.3" x1="102.19456741930631" x2="102.32365962044197" y1="184.97166512339345" y2="189.96999836594603" /><path d="M 102.22038585953345 185.97133177190398 a86.0,86.0 0 0,1 -42.740103519485714,-10.115201625700543" fill="none" id="id31" stroke="none" /><text fill="#e1ed5e" style="font-size:6.75px; font-family:Arial;" text-anchor="middle"><textPath startOffset="22.20632615414155" xlink:href="#id31">July</textPath></text><path d="M 100.54218724476979 120.99299961872073 l 0.27612800029075074 10.691426367440778 a31.694991558806976,31.694991558806976 0 0,0 -0.5455165513268793,0.00939156214816758 l -0.09205175907120353 -10.694595406868105" fill="#ff5b08" stroke="none" /><path d="M 98.01472825383883 120.90594882070398 l -1.6788785124050132 17.679467974289764 a38.75900393922341,38.75900393922341 0 0,0 -0.6636416383133401,-0.06878916927811972 l 1.9829527473239466 -17.647949436555884" fill="#ffbf11" stroke="none" /><path d="M 97.2962882734958 120.8252237178851 l -1.6261068698375676 12.525018485362798 a33.63013505908835,33.63013505908835 0 0,0 -0.5734280875802339,-0.07947190784998288 l 1.8414635486046325 -12.49517201202021" fill="#ff770a" stroke="none" /><path d="M 90.7491055286396 118.85261126421891 l -5.4570906750723305 11.12113098352137 a33.38787281935847,33.38787281935847 0 0,0 -0.5137695539219364,-0.2576147200174419 l 5.647714136677027 -11.025548422594627" fill="#ff730a" stroke="none" /><line stroke="#e1ed5e" stroke-width="0.3" x1="58.666819895761336" x2="56.23545636021788" y1="174.27360380694188" y2="178.64263932499728" /><path d="M 58.180547188652646 175.14741091055294 a86.0,86.0 0 0,1 -31.652253787137756,-30.449443065178592" fill="none" id="id32" stroke="none" /><text fill="#e1ed5e" style="font-size:6.75px; font-family:Arial;" text-anchor="middle"><textPath startOffset="22.20632615414155" xlink:href="#id32">August</textPath></text><path d="M 89.7882731507175 118.34994917583269 l -5.048397319693118 9.071710945958932 a31.38182329769274,31.38182329769274 0 0,0 -0.4697578499947857,-0.26674076715382766 l 5.203803936609111 -8.983467013010472" fill="#ff5608" stroke="none" /><path d="M 89.1626897886671 117.98757091392108 l -6.161166370849223 10.226192186712872 a32.938801350590886,32.938801350590886 0 0,0 -0.48313504501332166,-0.29678100497051385 l 6.336280615794854 -10.118622714913979" fill="#ff6d0a" stroke="none" /><path d="M 88.24862548938628 117.40417183066458 l -16.545829502282217 24.504917231470323 a50.567810917276304,50.567810917276304 0 0,0 -0.7172035400667656,-0.4932991346689489 l 16.965189926971874 -24.21647730743627" fill="#a9ff21" stroke="none" /><path d="M 84.43433777217949 114.09645910891817 l -13.161174731176315 11.91892504848033 a38.75604952166573,38.75604952166573 0 0,0 -0.4435558821487195,-0.49833973569770873 l 13.364389462973373 -11.690611143041755" fill="#ffbe11" stroke="none" /><path d="M 83.72743513129214 113.27417163493432 l -18.330673452974644 14.953051812172077 a44.656021384355654,44.656021384355654 0 0,0 -0.4807584073284717,-0.5998200331267031 l 18.585349772357976 -14.635303945467115" fill="#f2ff19" stroke="none" /><path d="M 83.28015986056508 112.70617746262583 l -28.37762400705443 21.565464956263096 a56.64209341586944,56.64209341586944 0 0,0 -0.5832483110469653,-0.781356425724197 l 28.744633584796482 -21.07379565102959" fill="#63ff29" stroke="none" /><path d="M 82.85270091963577 112.12312394758628 l -5.2638444841523295 3.7215329844728866 a27.446539110861004,27.446539110861004 0 0,0 -0.2694192701834269,-0.38811855293791153 l 5.327124661497888 -3.630373169347965" fill="#ff1b02" stroke="none" /><path d="M 82.24976979558568 111.22182372390057 l -14.059341031352371 8.888416933815448 a37.63337084974677,37.63337084974677 0 0,0 -0.3414518035888545,-0.5505290280063682 l 14.21025747460918 -8.645091574443814" fill="#ffaf10" stroke="none" /><line stroke="#e1ed5e" stroke-width="0.3" x1="26.63291911575756" x2="22.317208475507996" y1="142.92168965132927" y2="145.44649492493687" /><path d="M 25.769776987707644 143.4266507060508 a86.0,86.0 0 0,1 -11.730757126820373,-40.83630448921669" fill="none" id="id33" stroke="none" /><text fill="#e1ed5e" style="font-size:6.75px; font-family:Arial;" text-anchor="middle"><textPath startOffset="21.46611528233685" xlink:href="#id33">September</textPath></text><path d="M 81.02952815118164 109.00673069616217 l -26.71292244440392 12.682662850012258 a50.57076533483399,50.57076533483399 0 0,0 -0.36657876808563405,-0.7895780540782663 l 26.92727582932938 -12.220964728655165" fill="#a9ff21" stroke="none" /><path d="M 79.67330655649465 105.27499134158121 l -7.446638959888565 1.9324813524869826 a28.69330332020259,28.69330332020259 0 0,0 -0.11994987557208342,-0.47914012714863957 l 7.47880014975571 -1.8040133859409513" fill="#ff2e04" stroke="none" /><path d="M 79.58551787078972 104.9243191809786 l -10.365203433359584 2.5002627918052585 a31.66249296567248,31.66249296567248 0 0,0 -0.12324163124961175,-0.5309217218901702 l 10.40670563053975 -2.321472412566514" fill="#ff5a08" stroke="none" /><path d="M 79.18660465613746 102.79330883721812 l -16.397722837032955 2.2006935127210876 a37.54473832301632,37.54473832301632 0 0,0 -0.0804503123932265,-0.6412681455424326 l 16.433174658673032 -1.9181076128912464" fill="#ffae10" stroke="none" /><path d="M 79.1416061653843 102.43462659150553 l -14.69595333761331 1.7153362366713147 a35.79572312886888,35.79572312886888 0 0,0 -0.06616702799848838,-0.6126245025385453 l 14.72330266711285 -1.4621154122479874" fill="#ff960d" stroke="none" /><path d="M 79.0095281055655 100.63252640178507 l -19.699977209872337 0.5936386643652559 a40.70891952729319,40.70891952729319 0 0,0 -0.01507768686877916,-0.7006008621592311 l 19.707276959426125 -0.25444798641589594" fill="#ffd914" stroke="none" /><line stroke="#e1ed5e" stroke-width="0.3" x1="15.007084014347285" x2="10.007500721073583" y1="101.09737516637583" y2="101.16192664675087" /><path d="M 14.007167355692545 101.11028546245083 a86.0,86.0 0 0,1 10.666146001902534,-42.60595125391555" fill="none" id="id34" stroke="none" /><text fill="#e1ed5e" style="font-size:6.75px; font-family:Arial;" text-anchor="middle"><textPath startOffset="22.20632615414155" xlink:href="#id34">October</textPath></text><path d="M 79.00175016825051 100.2711162175752 l -29.845992972730045 0.3853527217448353 a50.84848058525605,50.84848058525605 0 0,0 -0.0037669104319588685,-0.8752973228244996 l 29.848204180451503 0.1284540792833396" fill="#a6ff21" stroke="none" /><path d="M 79.05617556472873 98.46500227214037 l -19.579588262855587 -1.4350112410843077 a40.63210467079347,40.63210467079347 0 0,0 0.05712780304311432,-0.6971038965449385 l 19.551985975992977 1.7718290548370246" fill="#ffd814" stroke="none" /><path d="M 79.08570108090925 98.10471618934814 l -11.769442272982985 -1.0665637651389166 a32.817670230725945,32.817670230725945 0 0,0 0.055825786145442306,-0.5621580479649956 l 11.749339361155315 1.2689973438083426" fill="#ff6b09" stroke="none" /><path d="M 79.12142395522702 97.74499172005258 l -26.985295177733462 -2.91456964939181 a48.142234102419806,48.142234102419806 0 0,0 0.09607733508814274,-0.8231319335954386 l 26.93112748964173 3.3786453213121104" fill="#c6ff1e" stroke="none" /><path d="M 79.46518482838121 95.60439243477599 l -20.222806162258234 -4.32882005579179 a41.680922903770394,41.680922903770394 0 0,0 0.15621536130771715,-0.7002828339883476 l 20.14529641394848 4.676281059330098" fill="#ffe615" stroke="none" /><path d="M 79.71946130924805 94.55025226153421 l -13.458539814895468 -3.616553191100609 a34.93598761958357,34.93598761958357 0 0,0 0.16106027547169163,-0.5794195043712724 l 13.394292768857417 3.847683998890824" fill="#ff890c" stroke="none" /><path d="M 80.65960295795068 91.81776055985345 l -14.5216233839923 -6.143586366356514 a36.76772650534609,36.76772650534609 0 0,0 0.25161256556103523,-0.5807564920680602 l 14.413720108588583 6.392642003011173" fill="#ffa30f" stroke="none" /><path d="M 80.803312248108 91.48605970444005 l -11.391619152712504 -5.052307282874485 a33.461733258300505,33.461733258300505 0 0,0 0.23805263900859303,-0.5245174349823726 l 11.30296419674056 5.247646726698928" fill="#ff740a" stroke="none" /><path d="M 80.95270993114464 91.15688171328213 l -24.33165360512193 -11.296498880613152 a47.82611142374789,47.82611142374789 0 0,0 0.3530974617458816,-0.7437133055164694 l 24.133597949534295 11.713654601770154" fill="#caff1d" stroke="none" /><path d="M 81.10775173730289 90.83032412892265 l -21.29497651670361 -10.335881130989257 a44.67079347214406,44.67079347214406 0 0,0 0.3417102707012379,-0.6888670542903351 l 21.113906233048958 10.700907773778555" fill="#f2ff19" stroke="none" /><path d="M 81.43458229118936 90.18545643968196 l -15.882991711772297 -8.396488377925438 a38.965813168261114,38.965813168261114 0 0,0 0.3185768823026977,-0.5902745794637053 l 15.736106730251127 8.668643940721617" fill="#ffc112" stroke="none" /><path d="M 81.6062741919709 89.86733742301443 l -19.695363973678887 -10.849703837005793 a43.486072031513785,43.486072031513785 0 0,0 0.3668202557423674,-0.6525323040616074 l 19.505686076644093 11.187119651002185" fill="#fffd17" stroke="none" /><line stroke="#e1ed5e" stroke-width="0.3" x1="26.266209847984257" x2="21.92892807433627" y1="57.711370442889674" y2="55.22380399835377" /><path d="M 25.39875349325466 57.213857153982495 a86.0,86.0 0 0,1 29.58750427330802,-30.492523968695096" fill="none" id="id35" stroke="none" /><text fill="#e1ed5e" style="font-size:6.75px; font-family:Arial;" text-anchor="middle"><textPath startOffset="21.46611528233685" xlink:href="#id35">November</textPath></text><path d="M 81.78341655067847 89.55222093294921 l -13.070424253171053 -7.4962961792288985 a36.06752954417558,36.06752954417558 0 0,0 0.31351326590690387,-0.535895798253192 l 12.939451312793825 7.720171389835983" fill="#ff990e" stroke="none" /><path d="M 81.96595687620814 89.24020034530311 l -15.578084521677267 -9.294480849724101 a39.14012380416432,39.14012380416432 0 0,0 0.3501814721868552,-0.5756062662567075 l 15.415787251204193 9.561254889187884" fill="#ffc412" stroke="none" /><path d="M 82.15384107792192 88.93136811851018 l -17.612662470227598 -10.923811571278996 a41.725239167135626,41.725239167135626 0 0,0 0.3838173689108426,-0.6071069036764399 l 17.422017505070794 11.225366122669652" fill="#ffe615" stroke="none" /><path d="M 82.34701348167596 88.62581576622439 l -12.571668226752436 -8.100185789444586 a35.95526167698368,35.95526167698368 0 0,0 0.33969737587142806,-0.5173824087495488 l 12.430374215523088 8.3153862621718" fill="#ff980e" stroke="none" /><path d="M 82.54541684631803 88.32363383020206 l -3.9019882711312115 -2.6102624991289995 a25.694569499155882,25.694569499155882 0 0,0 0.24908503405725452,-0.365501552000168 l 3.8564787714052167 2.677042074399583" fill="#ff0000" stroke="none" /><path d="M 84.07557802195018 86.31012108654704 l -11.208481029288578 -9.635687141812769 a35.78095104108047,35.78095104108047 0 0,0 0.40553130841428486,-0.4635923886924851 l 11.040957857296448 9.827195086708194" fill="#ff950d" stroke="none" /><path d="M 84.31358615837235 86.03803664274997 l -11.054199062002382 -9.838980649474586 a35.79867754642656,35.79867754642656 0 0,0 0.41365603638933357,-0.45676932704765916 l 10.883199384997003 10.027802763791803" fill="#ff960d" stroke="none" /><path d="M 84.5562425177563 85.77008943001954 l -10.933172151188842 -10.073847775484197 a35.86662915025323,35.86662915025323 0 0,0 0.42225727508141037,-0.45043462001976237 l 10.758147554136976 10.260551812382008" fill="#ff970d" stroke="none" /><path d="M 85.57189188830299 84.74124197986013 l -20.92359853902263 -22.128204512043013 a51.454136184580754,51.454136184580754 0 0,0 0.6487928384677526,-0.6029822353578981 l 20.539597816760022 22.48509133347556" fill="#9eff22" stroke="none" /><line stroke="#e1ed5e" stroke-width="0.3" x1="56.762969772571076" x2="54.21961505331055" y1="26.818313649435495" y2="22.513508569990535" /><path d="M 56.25429882871897 25.957352633546506 a86.0,86.0 0 0,1 42.265352541879196,-11.944610805530505" fill="none" id="id36" stroke="none" /><text fill="#e1ed5e" style="font-size:6.75px; font-family:Arial;" text-anchor="middle"><textPath startOffset="22.20632615414155" xlink:href="#id36">December</textPath></text><path d="M 89.3179101791058 81.91981866633112 l -7.547194018082541 -12.774151752628743 a35.83708497467642,35.83708497467642 0 0,0 0.5338074894760344,-0.3092157527938559 l 7.326189796141185 12.902171662812647" fill="#ff960d" stroke="none" /><path d="M 89.63071344664047 81.73862282372117 l -7.307225147126879 -12.868772970734474 a35.79867754642656,35.79867754642656 0 0,0 0.5384733276187448,-0.29965982382713047 l 7.0846277304360905 12.99264819212179" fill="#ff960d" stroke="none" /><path d="M 90.58718382345135 81.22770947309562 l -5.315566141343027 -10.601009309931653 a32.85903207653348,32.85903207653348 0 0,0 0.5077952403362468,-0.24917291910248318 l 5.132299633996354 10.690937389168964" fill="#ff6c09" stroke="none" /><path d="M 93.25333710446033 80.11325718540243 l -12.478668695506475 -36.78264037472064 a59.84172763083849,59.84172763083849 0 0,0 0.9783187163027574,-0.3225362992584785 l 11.843667156961308 36.99199039823835" fill="#41ff2d" stroke="none" /></svg>