<?xml version="1.0" encoding="utf-8" ?>
<svg baseProfile="full" height="200mm" version="1.1" viewBox="0,0,200,200" width="200mm" xmlns="http://www.w3.org/2000/svg" xmlns:ev="http://www.w3.org/2001/xml-events" xmlns:xlink="http://www.w3.org/1999/xlink"><defs /><rect fill="#1a1a1a" height="200" width="200" x="0" y="0" /><text alignment-baseline="middle" fill="#e1ed5e" style="dominant-baseline: central; font-size:9.0px; font-family:Arial;" text-anchor="middle" x="100.0" y="100.0">2021</text><line stroke="#e1ed5e" stroke-width="0.3" x1="100.0" x2="100.0" y1="15.0" y2="10.0" /><path d="M 100.0 14.0 a86.0,86.0 0 0,1 42.46469731375804,11.215312516191453" fill="none" id="id61" stroke="none" /><text fill="#e1ed5e" style="font-size:6.75px; font-family:Arial;" text-anchor="middle"><textPath startOffset="22.20632615414155" xlink:href="#id61">January</textPath></text><path d="M 101.44485096284872 79.0497635885617 l 2.051483423846193 -29.746364039503174 a50.817021276595746,50.817021276595746 0 0,0 0.8721406197841787,0.06769489745599933 l -2.5632142329927126 29.70664387985871" fill="#afff20" stroke="none" /><path d="M 103.2404852339499 79.25152402106235 l 5.515719547148773 -35.31655485776621 a56.744680851063826,56.744680851063826 0 0,0 0.9637700174545287,0.15903031078016314 l -6.122818770742177 35.21637828404642" fill="#69ff28" stroke="none" /><path d="M 104.66035177308747 79.52364482259891 l 5.493265707000981 -24.13595908144724 a45.7531914893617,45.7531914893617 0 0,0 0.7664232862773942,0.18138762971861808 l -5.9079126802409 24.03782553958775" fill="#efff19" stroke="none" /><path d="M 105.71112130821622 79.79150937346287 l 1.6525797828029902 -5.847563245125635 a27.07659574468085,27.07659574468085 0 0,0 0.44742112353107055,0.13061449505375677 l -1.7529911240574878 5.818250421153175" fill="#ff0100" stroke="none" /><path d="M 106.0581310904928 79.89281104454417 l 5.284752653408602 -17.54031376965295 a39.31914893617021,39.31914893617021 0 0,0 0.6463593021586551,0.2008269814965572 l -5.585897328277975 17.44674665327387" fill="#ffb811" stroke="none" /><path d="M 108.43124777332544 80.76684994638697 l 7.701735554640537 -17.56900515535715 a40.182978723404254,40.182978723404254 0 0,0 0.6310983293451254,0.2831554243024104 l -8.003016002452442 17.433829400538208" fill="#ffc412" stroke="none" /><path d="M 110.36928655335952 81.73862282372117 l 7.471769601569698 -13.158552631985314 a36.13191489361702,36.13191489361702 0 0,0 0.5381990971908607,0.31175965544095025 l -7.697165431225887 13.027988819154315" fill="#ff8a0c" stroke="none" /><line stroke="#e1ed5e" stroke-width="0.3" x1="143.23703022742887" x2="145.7803849466894" y1="26.81831364943548" y2="22.513508569990506" /><path d="M 143.74570117128098 25.957352633546492 a86.0,86.0 0 0,1 28.547481713284135,27.462654790039103" fill="none" id="id62" stroke="none" /><text fill="#e1ed5e" style="font-size:6.75px; font-family:Arial;" text-anchor="middle"><textPath startOffset="19.985693538727396" xlink:href="#id62">February</textPath></text><path d="M 111.60114157652 82.49532879139004 l 18.117527483331255 -27.337082270467484 a53.795744680851065,53.795744680851065 0 0,0 0.7674739317755822,0.5182018246646833 l -18.58540610951338 27.021168533504127" fill="#8bff24" stroke="none" /><path d="M 115.68641384162765 86.03803664274999 l 26.722529111765702 -23.78484821568407 a56.774468085106385,56.774468085106385 0 0,0 0.6434659688235826,0.735592836705222 l -27.12798694416713 23.3213398227759" fill="#69ff28" stroke="none" /><path d="M 117.04232023915458 87.72973835380427 l 13.633856191323662 -9.816209316956588 a37.8,37.8 0 0,0 0.37563728435301075,0.5313122994027722 l -13.800806095480556 9.580070517222023" fill="#ffa20f" stroke="none" /><line stroke="#e1ed5e" stroke-width="0.3" x1="172.23445277983987" x2="176.4835382374775" y1="55.19839476539836" y2="52.563006222186495" /><path d="M 173.08426987136738 54.67131705675599 a86.0,86.0 0 0,1 12.851231095245387,41.99856678651699" fill="none" id="id63" stroke="none" /><text fill="#e1ed5e" style="font-size:6.75px; font-family:Arial;" text-anchor="middle"><textPath startOffset="22.20632615414155" xlink:href="#id63">March</textPath></text><path d="M 117.84615892207809 88.93136811851018 l 23.263290850198242 -14.428471913601621 a48.374468085106386,48.374468085106386 0 0,0 0.432799919976131,0.7114092713641131 l -23.508206568460597 14.025894869030427" fill="#ceff1d" stroke="none" /><path d="M 120.28053869075195 94.5502522615342 l 28.766721547165893 -7.7301386361216995 a50.787234042553195,50.787234042553195 0 0,0 0.2196031973916737,0.8462207013322128 l -28.895521076427872 7.233821509240636" fill="#b0ff20" stroke="none" /><path d="M 120.67395015179393 96.31383870115 l 29.354076740348557 -5.233826184608287 a50.817021276595746,50.817021276595746 0 0,0 0.1461307294276589,0.8624718370683413 l -29.439819331296437 4.727768559224108" fill="#afff20" stroke="none" /><path d="M 120.91429891909075 98.10471618934814 l 24.889498997329287 -2.2555221519672544 a45.99148936170213,45.99148936170213 0 0,0 0.06466297444354625,0.7890520735194397 l -24.92463645559233 1.826756161240046" fill="#ecff1a" stroke="none" /><line stroke="#e1ed5e" stroke-width="0.3" x1="184.98032266829074" x2="189.97916517819016" y1="98.17113171792111" y2="98.06355123074" /><path d="M 185.9800911702706 98.14961562048488 a86.0,86.0 0 0,1 -9.607161424134198,41.387399972396054" fill="none" id="id64" stroke="none" /><text fill="#e1ed5e" style="font-size:6.75px; font-family:Arial;" text-anchor="middle"><textPath startOffset="21.466115282336823" xlink:href="#id64">April</textPath></text><path d="M 120.95626037817324 101.35467743843564 l 29.754917217803417 1.9234498097504633 a50.817021276595746,50.817021276595746 0 0,0 -0.06394098002643961,0.8724238711156169 l -29.717399679112642 -2.4353468173628503" fill="#afff20" stroke="none" /><path d="M 120.5718875245553 104.21870165774334 l 17.24536954186124 3.5365286237252644 a38.60425531914893,38.60425531914893 0 0,0 -0.1390965756214493,0.6498128936689999 l -17.18193892751535 -3.8328553368104332" fill="#ffae10" stroke="none" /><path d="M 120.32669344350535 105.2749913415812 l 23.094583614535864 5.9932880349029025 a44.85957446808511,44.85957446808511 0 0,0 -0.2003982369209695,0.7457563895569139 l -22.98799730127312 -6.389935357635365" fill="#fbff18" stroke="none" /><path d="M 120.23288151984713 105.62410040840565 l 28.7278218459106 7.985424835197254 a50.817021276595746,50.817021276595746 0 0,0 -0.24151966166285732,0.8407616266513236 l -28.586109547361644 -8.47874393735316" fill="#afff20" stroke="none" /><path d="M 119.9155931802556 106.66101706037122 l 28.305566477469668 9.467147651761653 a50.8468085106383,50.8468085106383 0 0,0 -0.28476432848213484,0.827658433796545 l -28.1384113180443 -9.9529787886475" fill="#afff20" stroke="none" /><path d="M 119.41010516605496 108.01547362559984 l 41.35316022611993 17.07693813567511 a65.7404255319149,65.7404255319149 0 0,0 -0.4409273539128712,1.0422220168152867 l -41.05308189101475 -17.78623467815656" fill="#34ff5f" stroke="none" /><line stroke="#e1ed5e" stroke-width="0.3" x1="174.80103733775053" x2="179.2010983576182" y1="140.37084112569926" y2="142.7455964860345" /><path d="M 175.68104954172406 140.8457921977663 a86.0,86.0 0 0,1 -30.038265399797805,32.042727171017184" fill="none" id="id65" stroke="none" /><text fill="#e1ed5e" style="font-size:6.75px; font-family:Arial;" text-anchor="middle"><textPath startOffset="22.206326154141568" xlink:href="#id65">May</textPath></text><path d="M 118.48025628344425 109.97397251340804 l 26.21312948006277 14.147478742422766 a50.787234042553195,50.787234042553195 0 0,0 -0.42183293884422723,0.765749313662046 l -25.965720131767036 -14.596598574482616" fill="#b0ff20" stroke="none" /><path d="M 117.94076556474637 110.91462005526583 l 17.83897398707405 10.852693132966444 a41.88085106382979,41.88085106382979 0 0,0 -0.3799896689742471,0.6126643377311045 l -17.649519678431837 -11.15815380206282" fill="#ffdb14" stroke="none" /><path d="M 117.35343817320211 111.8261652097733 l 12.479706601153849 8.50477412958164 a36.102127659574464,36.102127659574464 0 0,0 -0.35438380215530624,0.5105162981976343 l -12.331461891836405 -8.718331689966295" fill="#ff8a0c" stroke="none" /><path d="M 116.71984013943494 112.70617746262583 l 13.091279087897993 9.948666609034692 a37.44255319148937,37.44255319148937 0 0,0 -0.3943827386622525,0.5097928530491368 l -12.918089532017673 -10.172537456197082" fill="#ff9d0e" stroke="none" /><path d="M 116.0416608686014 113.55231037782055 l 13.652477334979915 11.533881172613237 a38.87234042553192,38.87234042553192 0 0,0 -0.43621705675196276,0.5074189866584482 l -13.451917768657173 -11.767177258433213" fill="#ffb110" stroke="none" /><path d="M 115.32070863581623 114.36230785411682 l 26.099533434915323 24.46685352169405 a56.774468085106385,56.774468085106385 0 0,0 -0.6745170398180053,0.7072284195655907 l -25.67450984371835 -24.912489057842148" fill="#69ff28" stroke="none" /><path d="M 112.92097659922987 116.55440617244103 l 7.386033431900203 9.463015159565586 a33.00425531914894,33.00425531914894 0 0,0 -0.45085584231093473,0.3456970344046418 l -7.222048861095774 -9.5887515357976" fill="#ff5c08" stroke="none" /><path d="M 112.04921762599082 117.19931262002967 l 10.271744387546786 14.662109056223878 a38.90212765957447,38.90212765957447 0 0,0 -0.5517490903298077,0.3794980554456511 l -10.017838412594095 -14.836747901034627" fill="#ffb210" stroke="none" /><path d="M 111.45004920935366 117.60387380957326 l 16.257445756826986 24.995003806216786 a50.817021276595746,50.817021276595746 0 0,0 -0.7373748166070023,0.4706274956405476 l -15.824789138173053 -25.27114573068114" fill="#afff20" stroke="none" /><line stroke="#e1ed5e" stroke-width="0.3" x1="143.8653032363475" x2="146.44561519142675" y1="172.8068346515853" y2="177.08958963109032" /><path d="M 144.38136562736335 173.6633856474863 a86.0,86.0 0 0,1 -40.68145358897372,12.25698825130547" fill="none" id="id66" stroke="none" /><text fill="#e1ed5e" style="font-size:6.75px; font-family:Arial;" text-anchor="middle"><textPath startOffset="21.466115282336833" xlink:href="#id66">June</textPath></text><path d="M 107.59598834532513 119.57807347666477 l 8.630335694475784 22.24402390752977 a44.85957446808511,44.85957446808511 0 0,0 -0.72230276246103,0.27311309977221826 l -8.24616271125448 -22.389285257408616" fill="#fbff18" stroke="none" /><path d="M 106.91757812671514 119.82793768551818 l 13.8449684209859 39.68400010534207 a63.02978723404255,63.02978723404255 0 0,0 -1.0274763760352166,0.3485757726575484 l -13.159822312013457 -39.91643886489774" fill="#31ff3c" stroke="none" /><path d="M 105.88484417918355 120.15858648285463 l 8.355644004769838 28.62233343168438 a50.817021276595746,50.817021276595746 0 0,0 -0.8417932300901313,0.23789917526877521 l -7.8617196065751 -28.761921400291673" fill="#afff20" stroke="none" /><path d="M 103.06178313531738 120.77559828337769 l 4.347297756670489 29.498402669022795 a50.817021276595746,50.817021276595746 0 0,0 -0.8664820190571166,0.12008651243917733 l -3.838887146426542 -29.568863746954577" fill="#afff20" stroke="none" /><path d="M 101.62511606390274 120.93702456842531 l 2.3074342978250146 29.727605096445025 a50.817021276595746,50.817021276595746 0 0,0 -0.8726909646966593,0.06018587837619506 l -1.795380572349425 -29.762919319337506" fill="#afff20" stroke="none" /><path d="M 100.90346689309514 120.98055641714683 l 1.2827948368627484 29.789414146899258 a50.817021276595746,50.817021276595746 0 0,0 -0.8742455036071535,0.030110782815721993 l -0.7698289815809426 -29.807081728141075" fill="#afff20" stroke="none" /><line stroke="#e1ed5e" stroke-width="0.3" x1="102.19456741930631" x2="102.32365962044197" y1="184.97166512339345" y2="189.96999836594603" /><path d="M 102.22038585953345 185.97133177190398 a86.0,86.0 0 0,1 -42.740103519485714,-10.115201625700543" fill="none" id="id67" stroke="none" /><text fill="#e1ed5e" style="font-size:6.75px; font-family:Arial;" text-anchor="middle"><textPath startOffset="22.20632615414155" xlink:href="#id67">July</textPath></text><path d="M 100.18074693466247 120.99922214144158 l 0.23740661205310695 27.58195702549631 a48.58297872340425,48.58297872340425 0 0,0 -0.8363070934311059,0.0 l 0.23740661205308797 -27.58195702549631" fill="#cbff1d" stroke="none" /><path d="M 99.45781275523022 120.99299961872073 l -0.5383419451614839 20.84411309660215 a41.851063829787236,41.851063829787236 0 0,0 -0.7199970296413143,-0.024798153491259904 l 0.8970593264774412 -20.831758144684798" fill="#ffdb14" stroke="none" /><path d="M 98.73552117531835 120.96189622390904 l -0.900380666652748 14.926059438868556 a35.9531914893617,35.9531914893617 0 0,0 -0.6174314152338034,-0.042581685345877744 l 1.1571748426654815 -14.908349409006394" fill="#ff880c" stroke="none" /><path d="M 98.01472825383883 120.90594882070398 l -2.5681813226936065 27.04429124040004 a48.165957446808505,48.165957446808505 0 0,0 -0.8247099167216391,-0.08548455490359558 l 3.033323836020839 -26.99607731704068" fill="#d0ff1d" stroke="none" /><path d="M 97.65516085044442 120.86867818915974 l -1.6663325020246058 14.830081947190113 a35.92340425531915,35.92340425531915 0 0,0 -0.6139011741844318,-0.0743348827762122 l 1.921361099260427 -14.799201535688553" fill="#ff870c" stroke="none" /><path d="M 96.93821686468263 120.77559828337769 l -2.60577288112116 17.68136024117251 a38.87234042553192,38.87234042553192 0 0,0 -0.6611336141714683,-0.10325547363408082 l 2.9097423589011457 -17.63388646019132" fill="#ffb110" stroke="none" /><path d="M 96.22490169976321 120.6578951692458 l -2.682729430381042 14.680291460698083 a35.92340425531915,35.92340425531915 0 0,0 -0.6073319954986323,-0.11639662239964176 l 2.9350290404513695 -14.631937639949973" fill="#ff870c" stroke="none" /><path d="M 95.51606077576429 120.51570834832081 l -6.366557678666595 29.129395825062605 a50.817021276595746,50.817021276595746 0 0,0 -0.8529512413273423,-0.1941289255552715 l 6.867029069386801 -29.01549016592965" fill="#afff20" stroke="none" /><path d="M 94.11515582081647 120.15858648285463 l -10.859833017188345 37.2004553392821 a59.753191489361704,59.753191489361704 0 0,0 -0.9848607110253431,-0.29673045329633263 l 11.498568702653934 -37.008009516880044" fill="#48ff2c" stroke="none" /><path d="M 93.42475214034765 119.94407469862007 l -4.672622947072097 14.173023296466175 a35.92340425531915,35.92340425531915 0 0,0 -0.5856032653584478,-0.19866842241257252 l 4.91589594536777 -14.09049188715548" fill="#ff870c" stroke="none" /><path d="M 93.08242187328487 119.8279376855182 l -4.945332448034644 14.17486609007258 a36.01276595744681,36.01276595744681 0 0,0 -0.5835447534732773,-0.20923838706764686 l 5.188596762137648 -14.087640161964975" fill="#ff890c" stroke="none" /><path d="M 91.07499286063937 119.00905698771935 l -12.684903764027453 27.01712780382239 a50.8468085106383,50.8468085106383 0 0,0 -0.7890633698206905,-0.3787983688159532 l 13.148079801848384 -26.794775158506877" fill="#afff20" stroke="none" /><line stroke="#e1ed5e" stroke-width="0.3" x1="58.666819895761336" x2="56.23545636021788" y1="174.27360380694188" y2="178.64263932499728" /><path d="M 58.180547188652646 175.14741091055294 a86.0,86.0 0 0,1 -31.652253787137756,-30.449443065178592" fill="none" id="id68" stroke="none" /><text fill="#e1ed5e" style="font-size:6.75px; font-family:Arial;" text-anchor="middle"><textPath startOffset="22.20632615414155" xlink:href="#id68">August</textPath></text><path d="M 89.1626897886671 117.98757091392108 l -12.31302904862079 20.43694227241246 a44.85957446808511,44.85957446808511 0 0,0 -0.6579848580169405,-0.4041880410729965 l 12.662993106570038 -20.221965764511083" fill="#fbff18" stroke="none" /><path d="M 87.07902340077011 116.55440617244103 l -14.680428731890974 18.808623183156406 a44.85957446808511,44.85957446808511 0 0,0 -0.6046269730037712,-0.48035223476350813 l 15.002013197612103 -18.553137034387767" fill="#fbff18" stroke="none" /><path d="M 86.51685102203217 116.09983520530335 l -19.1441590453132 22.85948232696262 a50.817021276595746,50.817021276595746 0 0,0 -0.6657865205099879,-0.567397716708716 l 19.534811042400243 -22.52656022003095" fill="#afff20" stroke="none" /><path d="M 84.67929136418377 114.36230785411682 l -13.082363969874287 12.263984862664294 a38.93191489361702,38.93191489361702 0 0,0 -0.4541196379426698,-0.49285717726900174 l 13.291530015812686 -12.03697643059395" fill="#ffb210" stroke="none" /><path d="M 83.95833913139862 113.55231037782056 l -9.3974552322445 7.93915487381545 a33.30212765957447,33.30212765957447 0 0,0 -0.3661711661262785,-0.44107675822243264 l 9.532722398264315 -7.776216858479256" fill="#ff6108" stroke="none" /><path d="M 83.06392112726016 112.41649034213515 l -24.0468297185994 17.629655081528053 a50.817021276595746,50.817021276595746 0 0,0 -0.5111229421378918,-0.709905062553694 l 24.3467324531129 -17.21311641352322" fill="#afff20" stroke="none" /><line stroke="#e1ed5e" stroke-width="0.3" x1="26.63291911575756" x2="22.317208475507996" y1="142.92168965132927" y2="145.44649492493687" /><path d="M 25.769776987707644 143.4266507060508 a86.0,86.0 0 0,1 -11.730757126820373,-40.83630448921669" fill="none" id="id69" stroke="none" /><text fill="#e1ed5e" style="font-size:6.75px; font-family:Arial;" text-anchor="middle"><textPath startOffset="21.46611528233685" xlink:href="#id69">September</textPath></text><path d="M 81.69416730710424 110.29060199501025 l -14.307111792603635 8.042725814539924 a37.41276595744681,37.41276595744681 0 0,0 -0.31074614145942164,-0.5640945090671416 l 14.443434343514575 -7.79526078707496" fill="#ff9d0e" stroke="none" /><path d="M 81.35079622478065 109.6543875284942 l -16.53298207022992 8.558854191927479 a39.61702127659574,39.61702127659574 0 0,0 -0.30829839600605,-0.6083019835963509 l 16.67785913602224 -8.27299799662844" fill="#ffbc11" stroke="none" /><path d="M 79.58551787078972 104.9243191809786 l -23.194326504251688 5.594864771579944 a44.85957446808511,44.85957446808511 0 0,0 -0.17460934426749494,-0.7522124851532584 l 23.28719641444974 -5.1947836290781115" fill="#fbff18" stroke="none" /><path d="M 79.18660465613746 102.79330883721812 l -9.447214907852503 1.2678848622834036 a30.53191489361702,30.53191489361702 0 0,0 -0.06542333761983074,-0.521488371426108 l 9.467639754719182 -1.1050787365698869" fill="#ff3705" stroke="none" /><path d="M 79.1416061653843 102.43462659150553 l -29.586374233497448 3.453371051780897 a50.787234042553195,50.787234042553195 0 0,0 -0.09387826374568303,-0.8691961293424774 l 29.641434798744182 -2.9435786005536375" fill="#b0ff20" stroke="none" /><path d="M 79.04373962182676 101.35467743843564 l -17.89456559951814 1.1567600254443346 a38.93191489361702,38.93191489361702 0 0,0 -0.037474098425526466,-0.6691252010632384 l 17.911826048831195 -0.8485631080456587" fill="#ffb210" stroke="none" /><path d="M 79.0095281055655 100.63252640178507 l -18.549026936500272 0.5589559550526269 a39.55744680851063,39.55744680851063 0 0,0 -0.014651206743702266,-0.6807840065683813 l 18.55590020592898 -0.23958213269411668" fill="#ffbb11" stroke="none" /><line stroke="#e1ed5e" stroke-width="0.3" x1="15.007084014347285" x2="10.007500721073583" y1="101.09737516637583" y2="101.16192664675087" /><path d="M 14.007167355692545 101.11028546245083 a86.0,86.0 0 0,1 10.666146001902534,-42.60595125391555" fill="none" id="id70" stroke="none" /><text fill="#e1ed5e" style="font-size:6.75px; font-family:Arial;" text-anchor="middle"><textPath startOffset="22.20632615414155" xlink:href="#id70">October</textPath></text><path d="M 79.01574976396665 99.18683210126434 l -35.717872742184426 -1.3841155723160063 a56.744680851063826,56.744680851063826 0 0,0 0.04622365434777982,-0.975708286359103 l 35.68875547960315 1.9987349652981186" fill="#69ff28" stroke="none" /><path d="M 79.3925641242962 95.95851677861259 l -35.07648659694264 -6.879120376829634 a56.744680851063826,56.744680851063826 0 0,0 0.19623041316586573,-0.9568891844095294 l 34.95287688786178 7.481885217402566" fill="#69ff28" stroke="none" /><path d="M 80.02781315780177 93.51064311812611 l -24.051612239753613 -7.81484254285239 a46.289361702127664,46.289361702127664 0 0,0 0.25274588011158255,-0.7556780114307963 l 23.913529065870257 8.227693657205508" fill="#e8ff1a" stroke="none" /><path d="M 80.2630227832202 92.82701384747504 l -17.329345953456315 -6.297983586401347 a39.43829787234043,39.43829787234043 0 0,0 0.2373723756366597,-0.6360399525860312 l 17.21836898931803 6.59534667601672" fill="#ffb911" stroke="none" /><path d="M 80.52162464483688 92.15188598940014 l -44.23387084200874 -17.822454653858674 a68.68936170212766,68.68936170212766 0 0,0 0.4513162979296786,-1.0928982135243464 l 43.92053285719287 18.581227437836333" fill="#38ff83" stroke="none" /><path d="M 81.26839172434947 90.50648371742162 l -10.97326839410449 -5.561449964120383 a33.30212765957447,33.30212765957447 0 0,0 0.26354759393899646,-0.5090900659758083 l 10.87591136700538 5.749512752356527" fill="#ff6108" stroke="none" /><line stroke="#e1ed5e" stroke-width="0.3" x1="26.266209847984257" x2="21.92892807433627" y1="57.711370442889674" y2="55.22380399835377" /><path d="M 25.39875349325466 57.213857153982495 a86.0,86.0 0 0,1 29.58750427330802,-30.492523968695096" fill="none" id="id71" stroke="none" /><text fill="#e1ed5e" style="font-size:6.75px; font-family:Arial;" text-anchor="middle"><textPath startOffset="21.46611528233685" xlink:href="#id71">November</textPath></text><path d="M 82.7489923806493 88.02491185347247 l -24.493983868042633 -17.002926574005745 a50.817021276595746,50.817021276595746 0 0,0 0.5049938590277784,-0.7142780006155642 l 24.197677389210977 17.422031074953093" fill="#afff20" stroke="none" /><path d="M 84.07557802195018 86.31012108654704 l -11.271328463896248 -9.689715713209967 a35.86382978723404,35.86382978723404 0 0,0 0.40647063298195224,-0.46466619905199896 l 11.102865967336452 9.882297468464905" fill="#ff860c" stroke="none" /><path d="M 85.05521093208273 85.24692304244772 l -19.43882492947538 -19.189463219965177 a48.314893617021276,48.314893617021276 0 0,0 0.5893593363526496,-0.5868284400645657 l 19.105629792955416 19.521227510679854" fill="#ceff1d" stroke="none" /><path d="M 85.31137513191541 84.99185889309783 l -12.08425875672207 -12.34712318014647 a38.27659574468085,38.27659574468085 0 0,0 0.47484259852202915,-0.4567982035608936 l 11.869932914587615 12.553304470469675" fill="#ffa90f" stroke="none" /><path d="M 85.83668400450813 84.49514656593479 l -4.076222433312483 -4.462318811023876 a27.043829787234042,27.043829787234042 0 0,0 0.34640443171860646,-0.3110053190615203 l 3.9988070139979057 4.5318231388546755" fill="#ff0000" stroke="none" /><path d="M 86.93701828274178 83.55741782278169 l -16.175862466902746 -20.36081452583204 a47.00425531914894,47.00425531914894 0 0,0 0.6378420254729452,-0.49784581816419304 l 15.822987886270374 20.636238733219454" fill="#dfff1b" stroke="none" /><line stroke="#e1ed5e" stroke-width="0.3" x1="56.762969772571076" x2="54.21961505331055" y1="26.818313649435495" y2="22.513508569990535" /><path d="M 56.25429882871897 25.957352633546506 a86.0,86.0 0 0,1 42.265352541879196,-11.944610805530505" fill="none" id="id72" stroke="none" /><text fill="#e1ed5e" style="font-size:6.75px; font-family:Arial;" text-anchor="middle"><textPath startOffset="22.20632615414155" xlink:href="#id72">December</textPath></text><path d="M 90.91171255644093 81.06846463323043 l -11.33135413175662 -23.603999414738215 a47.182978723404254,47.182978723404254 0 0,0 0.7352046997183265,-0.3451884645364936 l 10.923371220738687 23.795552861914718" fill="#ddff1b" stroke="none" /><path d="M 96.04723909329186 79.375362276772 l -5.023650741007792 -26.21230553193233 a47.689361702127655,47.689361702127655 0 0,0 0.8075509377507345,-0.1475747721382572 l 4.571704682154165 26.294895785421325" fill="#d6ff1c" stroke="none" /><path d="M 96.40284397218896 79.31037775812273 l -4.056367435616699 -23.33085061318076 a44.68085106382979,44.68085106382979 0 0,0 0.7588740294917327,-0.1252207171497298 l 3.6541641999860803 23.397217593270117" fill="#fdff18" stroke="none" /><path d="M 98.19473922651362 79.07773832637324 l -2.1893588103983763 -25.373806710568626 a46.46808510638298,46.46808510638298 0 0,0 0.7975025597088775,-0.0619015474978709 l 1.7522660613271648 25.40773352025496" fill="#e6ff1a" stroke="none" /><path d="M 99.63851952072746 79.00311137660856 l -1.0844414378176228 -62.990665870174325 a84.0,84.0 0 0,0 1.445921917090143,-0.012445506434235476 l 1.543054966925665e-14 63.0" fill="#4dd2ff" stroke="none" /></svg>