<?xml version="1.0" encoding="utf-8" ?>
<svg baseProfile="full" height="200mm" version="1.1" viewBox="0,0,200,200" width="200mm" xmlns="http://www.w3.org/2000/svg" xmlns:ev="http://www.w3.org/2001/xml-events" xmlns:xlink="http://www.w3.org/1999/xlink"><defs /><rect fill="#1a1a1a" height="200" width="200" x="0" y="0" /><text alignment-baseline="middle" fill="#e1ed5e" style="dominant-baseline: central; font-size:9.0px; font-family:Arial;" text-anchor="middle" x="100.0" y="100.0">2021</text><line stroke="#e1ed5e" stroke-width="0.3" x1="100.0" x2="100.0" y1="15.0" y2="10.0" /><path d="M 100.0 14.0 a86.0,86.0 0 0,1 42.46469731375804,11.215312516191453" fill="none" id="id13" stroke="none" /><text fill="#e1ed5e" style="font-size:6.75px; font-family:Arial;" text-anchor="middle"><textPath startOffset="22.20632615414155" xlink:href="#id13">January</textPath></text><path d="M 101.44485096284872 79.0497635885617 l 2.0723490594092797 -30.048914274206766 a51.12029016597718,51.12029016597718 0 0,0 0.8773454332600956,0.06809889115442033 l -2.5892846820317166 30.008790120863882" fill="#beff1e" stroke="none" /><path d="M 103.2404852339499 79.25152402106235 l 5.535916487043625 -35.44587367640054 a56.8755673409476,56.8755673409476 0 0,0 0.965993035942745,0.15939712787827623 l -6.1452387291252455 35.345330285582634" fill="#76ff27" stroke="none" /><path d="M 110.36928655335952 81.73862282372117 l 4.224583229489001 -7.43992437370594 a29.55567520125346,29.55567520125346 0 0,0 0.4402434179593118,0.25501740342843515 l -4.352023379913642 7.366102812887456" fill="#ff0000" stroke="none" /><line stroke="#e1ed5e" stroke-width="0.3" x1="143.23703022742887" x2="145.7803849466894" y1="26.81831364943548" y2="22.513508569990506" /><path d="M 143.74570117128098 25.957352633546492 a86.0,86.0 0 0,1 28.547481713284135,27.462654790039103" fill="none" id="id14" stroke="none" /><text fill="#e1ed5e" style="font-size:6.75px; font-family:Arial;" text-anchor="middle"><textPath startOffset="19.985693538727396" xlink:href="#id14">February</textPath></text><path d="M 111.60114157652 82.49532879139004 l 18.01440361167281 -27.181481250065023 a53.609073283855935,53.609073283855935 0 0,0 0.7648107949075672,0.5164036627634129 l -18.47961910098692 26.86736567500294" fill="#9eff22" stroke="none" /><path d="M 115.68641384162765 86.03803664274999 l 25.900733441470194 -23.05339479671562 a55.67429890364515,55.67429890364515 0 0,0 0.6309969585079315,0.7213386024280536 l -26.29372226355597 22.60414063808462" fill="#85ff25" stroke="none" /><line stroke="#e1ed5e" stroke-width="0.3" x1="172.23445277983987" x2="176.4835382374775" y1="55.19839476539836" y2="52.563006222186495" /><path d="M 173.08426987136738 54.67131705675599 a86.0,86.0 0 0,1 12.851231095245387,41.99856678651699" fill="none" id="id15" stroke="none" /><text fill="#e1ed5e" style="font-size:6.75px; font-family:Arial;" text-anchor="middle"><textPath startOffset="22.20632615414155" xlink:href="#id15">March</textPath></text><path d="M 120.28053869075195 94.5502522615342 l 29.04482181288613 -7.804869209963247 a51.07520004134533,51.07520004134533 0 0,0 0.22084835781962406,0.8510188123940112 l -29.17486650257606 7.3037539720203855" fill="#bfff1e" stroke="none" /><path d="M 120.67395015179393 96.31383870115 l 29.642196590162285 -5.285197897900422 a51.10968507822358,51.10968507822358 0 0,0 0.14697232096007412,0.867438957932421 l -29.72878077264258 4.774173151652163" fill="#beff1e" stroke="none" /><path d="M 120.91429891909075 98.10471618934814 l 24.49417417657485 -2.2196972488412494 a45.59454460787798,45.59454460787798 0 0,0 0.06410487926488903,0.7822418987365717 l -24.528753539659235 1.797741432896909" fill="#fff517" stroke="none" /><line stroke="#e1ed5e" stroke-width="0.3" x1="184.98032266829074" x2="189.97916517819016" y1="98.17113171792111" y2="98.06355123074" /><path d="M 185.9800911702706 98.14961562048488 a86.0,86.0 0 0,1 -9.607161424134198,41.387399972396054" fill="none" id="id16" stroke="none" /><text fill="#e1ed5e" style="font-size:6.75px; font-family:Arial;" text-anchor="middle"><textPath startOffset="21.466115282336823" xlink:href="#id16">April</textPath></text><path d="M 120.95626037817324 101.35467743843564 l 29.784485838971914 1.9253612168078185 a50.84665161298845,50.84665161298845 0 0,0 -0.06397826266717431,0.8729325631272459 l -29.746931017640403 -2.4377669164318347" fill="#c2ff1e" stroke="none" /><path d="M 120.32669344350535 105.2749913415812 l 23.382435727804467 6.067988694376512 a45.15696146786652,45.15696146786652 0 0,0 -0.2017267343743239,0.7507002227940289 l -23.274520917088363 -6.469579850346088" fill="#ffef16" stroke="none" /><path d="M 120.23288151984713 105.62410040840565 l 29.042627967061826 8.072930968853917 a51.143763097215356,51.143763097215356 0 0,0 -0.2430725778311944,0.8461675315567667 l -28.89936275234453 -8.571655975915267" fill="#beff1f" stroke="none" /><path d="M 119.9155931802556 106.66101706037122 l 28.473228443144915 9.523224274919702 a51.02359969367325,51.02359969367325 0 0,0 -0.2857544362980064,0.8305361505686633 l -28.305083175903675 -10.011933128577667" fill="#c0ff1e" stroke="none" /><path d="M 119.41010516605496 108.01547362559984 l 41.439709459841986 17.112678956978243 a65.83406407187199,65.83406407187199 0 0,0 -0.44155539660218274,1.043706524212008 l -41.139003082047495 -17.823460006856415" fill="#33ff55" stroke="none" /><line stroke="#e1ed5e" stroke-width="0.3" x1="174.80103733775053" x2="179.2010983576182" y1="140.37084112569926" y2="142.7455964860345" /><path d="M 175.68104954172406 140.8457921977663 a86.0,86.0 0 0,1 -30.038265399797805,32.042727171017184" fill="none" id="id17" stroke="none" /><text fill="#e1ed5e" style="font-size:6.75px; font-family:Arial;" text-anchor="middle"><textPath startOffset="22.206326154141568" xlink:href="#id17">May</textPath></text><path d="M 118.48025628344425 109.97397251340804 l 26.264964063025293 14.175454366666427 a50.846136160874366,50.846136160874366 0 0,0 -0.42232217308082204,0.7666374159091557 l -26.017065480492963 -14.625462300973387" fill="#c2ff1e" stroke="none" /><path d="M 117.94076556474637 110.91462005526583 l 18.09412836804069 11.007921354060855 a42.17951401558411,42.17951401558411 0 0,0 -0.38269947150426326,0.6170334022294001 l -17.901964256868464 -11.317751087655527" fill="#ffc512" stroke="none" /><path d="M 117.35343817320211 111.8261652097733 l 12.3810073495777 8.437511743674564 a35.98268825728358,35.98268825728358 0 0,0 -0.3532113673916234,0.5088273184762325 l -12.23393507502394 -8.649380324337818" fill="#ff6809" stroke="none" /><path d="M 116.71984013943494 112.70617746262583 l 13.210632726752666 10.039368942516983 a37.59246051088033,37.59246051088033 0 0,0 -0.39596171376217604,0.5118338912137734 l -13.03586419577242 -10.265280827844009" fill="#ff800b" stroke="none" /><path d="M 116.0416608686014 113.55231037782055 l 13.73711088625595 11.605381260083297 a38.983133478156255,38.983133478156255 0 0,0 -0.43746035259665056,0.5088652206097879 l -13.53530802408852 -11.840123579854613" fill="#ff950d" stroke="none" /><path d="M 115.32070863581623 114.36230785411682 l 26.21933360325445 24.579159482179406 a56.93867743043917,56.93867743043917 0 0,0 -0.6764679520019519,0.7092739431908146 l -25.792359099873536 -25.026840541952726" fill="#75ff27" stroke="none" /><path d="M 112.92097659922987 116.55440617244103 l 7.448353747762008 9.542860194006144 a33.10554229409601,33.10554229409601 0 0,0 -0.4522394767533211,0.3467579462938643 l -7.282985542515193 -9.669657482127379" fill="#ff3a05" stroke="none" /><path d="M 112.04921762599082 117.19931262002967 l 10.455588434255631 14.92453200606389 a39.22254057771763,39.22254057771763 0 0,0 -0.5562935085082283,0.38262374770698604 l -10.19713804112452 -15.102296543135973" fill="#ff990e" stroke="none" /><path d="M 111.45004920935366 117.60387380957326 l 16.27253613947538 25.018204509290058 a50.84469784198181,50.84469784198181 0 0,0 -0.7377764143750962,0.4708838143370859 l -15.839477923053357 -25.29460275245095" fill="#c2ff1e" stroke="none" /><line stroke="#e1ed5e" stroke-width="0.3" x1="143.8653032363475" x2="146.44561519142675" y1="172.8068346515853" y2="177.08958963109032" /><path d="M 144.38136562736335 173.6633856474863 a86.0,86.0 0 0,1 -40.68145358897372,12.25698825130547" fill="none" id="id18" stroke="none" /><text fill="#e1ed5e" style="font-size:6.75px; font-family:Arial;" text-anchor="middle"><textPath startOffset="21.466115282336833" xlink:href="#id18">June</textPath></text><path d="M 107.59598834532513 119.57807347666477 l 8.658283706860603 22.316057751596084 a44.93684002371782,44.93684002371782 0 0,0 -0.7235468474738359,0.27358350627193856 l -8.27286663862649 -22.46178950797465" fill="#ffec16" stroke="none" /><path d="M 106.91757812671514 119.82793768551818 l 13.876444489806467 39.77422034134476 a63.12534053797694,63.12534053797694 0 0,0 -1.0290340326092446,0.3491042143390225 l -13.189740724259995 -40.0071875425819" fill="#2fff31" stroke="none" /><path d="M 105.88484417918355 120.15858648285463 l 8.389281609735567 28.737559348995212 a50.93705669007008,50.93705669007008 0 0,0 -0.8437816386173407,0.23846111938024053 l -7.893368803013621 -28.877709261713974" fill="#c1ff1e" stroke="none" /><path d="M 103.06178313531738 120.77559828337769 l 4.350457085218427 29.5198401575242 a50.83869031603273,50.83869031603273 0 0,0 -0.8668514982703943,0.12013771889143533 l -3.841676995761202 -29.590352441908237" fill="#c2ff1e" stroke="none" /><path d="M 101.62511606390274 120.93702456842531 l 2.339325951983749 30.13847811744367 a51.229130142054295,51.229130142054295 0 0,0 -0.8797681934346354,0.06067396550588409 l -1.820194997770183 -30.17428042746584" fill="#bdff1f" stroke="none" /><path d="M 100.90346689309514 120.98055641714683 l 1.2843408741723967 29.82531665007452 a50.85295705216289,50.85295705216289 0 0,0 -0.8748637352433057,0.030132075963298022 l -0.7707567872544386 -29.84300552446391" fill="#c2ff1e" stroke="none" /><line stroke="#e1ed5e" stroke-width="0.3" x1="102.19456741930631" x2="102.32365962044197" y1="184.97166512339345" y2="189.96999836594603" /><path d="M 102.22038585953345 185.97133177190398 a86.0,86.0 0 0,1 -42.740103519485714,-10.115201625700543" fill="none" id="id19" stroke="none" /><text fill="#e1ed5e" style="font-size:6.75px; font-family:Arial;" text-anchor="middle"><textPath startOffset="22.20632615414155" xlink:href="#id19">July</textPath></text><path d="M 100.18074693466247 120.99922214144158 l 0.23751483616849314 27.594530529131653 a48.595552692790534,48.595552692790534 0 0,0 -0.8365235416618783,0.0 l 0.23751483616847413 -27.594530529131653" fill="#e0ff1b" stroke="none" /><path d="M 99.45781275523022 120.99299961872073 l -0.5399695842604105 20.90713381004164 a41.914105558280816,41.914105558280816 0 0,0 -0.7210815864746468,-0.024835507821508146 l 0.8997715224097004 -20.894741503794037" fill="#ffc111" stroke="none" /><path d="M 98.73552117531835 120.96189622390904 l -0.9088333544021756 15.066183860059411 a36.093570623652596,36.093570623652596 0 0,0 -0.6198421744449897,-0.04274794541564847 l 1.1680382896260952 -15.048307570127477" fill="#ff6909" stroke="none" /><path d="M 98.01472825383883 120.90594882070398 l -2.575636067110212 27.122793594320267 a48.2448129652288,48.2448129652288 0 0,0 -0.8260601011979107,-0.08562450704513239 l 3.042128764913716 -27.074439718819374" fill="#e4ff1a" stroke="none" /><path d="M 97.65516085044442 120.86867818915974 l -1.6887440039790982 15.029540584731484 a36.12411804037069,36.12411804037069 0 0,0 -0.6173312062449345,-0.0747502118908288 l 1.947202633275422 -14.998244844115307" fill="#ff6a09" stroke="none" /><path d="M 96.93821686468263 120.77559828337769 l -2.6036977100039014 17.667279256466525 a38.85810734907403,38.85810734907403 0 0,0 -0.6608915406256933,-0.10321766672472468 l 2.907425114238112 -17.619843282394697" fill="#ff940d" stroke="none" /><path d="M 96.22490169976321 120.6578951692458 l -2.6857874295563064 14.697025283599144 a35.94041519849817,35.94041519849817 0 0,0 -0.6076195876765006,-0.11645174012500537 l 2.938374631804502 -14.64861634512567" fill="#ff6709" stroke="none" /><path d="M 95.51606077576429 120.51570834832081 l -6.366944967314892 29.13116781628678 a50.81883509725823,50.81883509725823 0 0,0 -0.8529816858623966,-0.194135854632331 l 6.867446802570152 -29.017255228076763" fill="#c2ff1e" stroke="none" /><path d="M 94.11515582081647 120.15858648285463 l -10.719280988217088 36.7189931042445 a59.25163316113323,59.25163316113323 0 0,0 -0.9765939543978294,-0.29423974733770136 l 11.349749917055163 -36.52903798780107" fill="#5aff2a" stroke="none" /><path d="M 93.42475214034765 119.94407469862007 l -4.690170010222944 14.226247136189295 a35.97944599458634,35.97944599458634 0 0,0 -0.5865168264808288,-0.19897835194626423 l 4.9343565696409994 -14.143405797344908" fill="#ff6709" stroke="none" /><path d="M 93.08242187328487 119.8279376855182 l -4.963362746503677 14.226546552215051 a36.06750133750525,36.06750133750525 0 0,0 -0.5844316762911528,-0.20955640603493458 l 5.207513983424556 -14.139002605140158" fill="#ff6909" stroke="none" /><path d="M 91.07499286063937 119.00905698771935 l -12.708629650376295 27.06766072986346 a50.90263408092029,50.90263408092029 0 0,0 -0.789929695828146,-0.3792142579460766 l 13.172672014204682 -26.84489219541782" fill="#c1ff1e" stroke="none" /><line stroke="#e1ed5e" stroke-width="0.3" x1="58.666819895761336" x2="56.23545636021788" y1="174.27360380694188" y2="178.64263932499728" /><path d="M 58.180547188652646 175.14741091055294 a86.0,86.0 0 0,1 -31.652253787137756,-30.449443065178592" fill="none" id="id20" stroke="none" /><text fill="#e1ed5e" style="font-size:6.75px; font-family:Arial;" text-anchor="middle"><textPath startOffset="22.20632615414155" xlink:href="#id20">August</textPath></text><path d="M 89.1626897886671 117.98757091392108 l -12.326731061297274 20.459684624516026 a44.8861255458521,44.8861255458521 0 0,0 -0.6583743001224858,-0.4044272682221228 l 12.677084561352068 -20.244468889465523" fill="#ffeb16" stroke="none" /><path d="M 87.07902340077011 116.55440617244103 l -14.615156978764372 18.724996755653283 a44.75349062797194,44.75349062797194 0 0,0 -0.6031971522376854,-0.4792162986723866 l 14.935311623719414 -18.470646542975764" fill="#ffea15" stroke="none" /><path d="M 86.51685102203217 116.09983520530335 l -19.24221023240918 22.976562391605476 a50.96973596753184,50.96973596753184 0 0,0 -0.6677873340200062,-0.5691028533886757 l 19.634863043006245 -22.64193514799385" fill="#c0ff1e" stroke="none" /><path d="M 84.67929136418377 114.36230785411682 l -13.083176126922087 12.264746214493618 a38.93302811222911,38.93302811222911 0 0,0 -0.4541326230330373,-0.4928712700200092 l 13.292355157950853 -12.037723689672266" fill="#ff950d" stroke="none" /><path d="M 83.95833913139862 113.55231037782056 l -9.427254723211353 7.964330069450855 a33.341137916394494,33.341137916394494 0 0,0 -0.3666001006188939,-0.4415934374506037 l 9.562950823723785 -7.80087537488649" fill="#ff3e05" stroke="none" /><path d="M 83.06392112726016 112.41649034213515 l -24.065749547859305 17.643525935522398 a50.84048104065586,50.84048104065586 0 0,0 -0.5113589029110154,-0.7102327914298503 l 24.36588824314593 -17.226659538641407" fill="#c2ff1e" stroke="none" /><line stroke="#e1ed5e" stroke-width="0.3" x1="26.63291911575756" x2="22.317208475507996" y1="142.92168965132927" y2="145.44649492493687" /><path d="M 25.769776987707644 143.4266507060508 a86.0,86.0 0 0,1 -11.730757126820373,-40.83630448921669" fill="none" id="id21" stroke="none" /><text fill="#e1ed5e" style="font-size:6.75px; font-family:Arial;" text-anchor="middle"><textPath startOffset="21.46611528233685" xlink:href="#id21">September</textPath></text><path d="M 81.69416730710424 110.29060199501025 l -14.030605701993396 7.8872882457932985 a37.09556498657437,37.09556498657437 0 0,0 -0.3081115065896581,-0.5593118814970918 l 14.164293618034574 -7.644605845898384" fill="#ff790b" stroke="none" /><path d="M 81.35079622478065 109.6543875284942 l -16.623505508736258 8.605716694278021 a39.71895550561409,39.71895550561409 0 0,0 -0.3090916449251209,-0.6098671389692224 l 16.769175823447643 -8.318295343606113" fill="#ffa00e" stroke="none" /><path d="M 79.58551787078972 104.9243191809786 l -22.78809990121965 5.4968760280755395 a44.441696678696246,44.441696678696246 0 0,0 -0.17298281598107418,-0.745205443865558 l 22.87934328313128 -5.103801926861407" fill="#ffe515" stroke="none" /><path d="M 79.18660465613746 102.79330883721812 l -9.491865293544503 1.2738772683698731 a30.57696559697612,30.57696559697612 0 0,0 -0.06551987160357015,-0.5222578422571449 l 9.512386674394921 -1.1103016718253198" fill="#ff1101" stroke="none" /><path d="M 79.1416061653843 102.43462659150553 l -29.68832128865981 3.4652704824557587 a50.88987320908656,50.88987320908656 0 0,0 -0.09406798832761996,-0.8709527433410856 l 29.74357157848848 -2.9537214172298913" fill="#c1ff1e" stroke="none" /><path d="M 79.04373962182676 101.35467743843564 l -18.367134399134212 1.187308333176533 a39.405470032408566,39.405470032408566 0 0,0 -0.03792992115938068,-0.6772642221805987 l 18.384850671181127 -0.8709723946604968" fill="#ff9c0e" stroke="none" /><path d="M 79.0095281055655 100.63252640178507 l -18.697933045018495 0.5634430883337906 a39.70642050927397,39.70642050927397 0 0,0 -0.014706383320184155,-0.6833478452653006 l 18.704861491023685 -0.24150542727836125" fill="#ffa00e" stroke="none" /><line stroke="#e1ed5e" stroke-width="0.3" x1="15.007084014347285" x2="10.007500721073583" y1="101.09737516637583" y2="101.16192664675087" /><path d="M 14.007167355692545 101.11028546245083 a86.0,86.0 0 0,1 10.666146001902534,-42.60595125391555" fill="none" id="id22" stroke="none" /><text fill="#e1ed5e" style="font-size:6.75px; font-family:Arial;" text-anchor="middle"><textPath startOffset="22.20632615414155" xlink:href="#id22">October</textPath></text><path d="M 79.01574976396665 99.18683210126434 l -35.77418062441785 -1.3862975784283518 a56.80103099527205,56.80103099527205 0 0,0 0.04626955661649052,-0.9766772107026165 l 35.74501745956786 2.0018858957539774" fill="#77ff27" stroke="none" /><path d="M 79.3925641242962 95.95851677861259 l -35.10745678544542 -6.885194179410031 a56.77624101034232,56.77624101034232 0 0,0 0.1963395522605247,-0.9574213853950473 l 34.9837379372699 7.488491220968481" fill="#77ff26" stroke="none" /><path d="M 80.52162464483688 92.15188598940014 l -44.23627473217719 -17.823423215341187 a68.69195338098264,68.69195338098264 0 0,0 0.45133332628570444,-1.09293944903914 l 43.922919719005286 18.582237234833638" fill="#37ff7b" stroke="none" /><line stroke="#e1ed5e" stroke-width="0.3" x1="26.266209847984257" x2="21.92892807433627" y1="57.711370442889674" y2="55.22380399835377" /><path d="M 25.39875349325466 57.213857153982495 a86.0,86.0 0 0,1 29.58750427330802,-30.492523968695096" fill="none" id="id23" stroke="none" /><text fill="#e1ed5e" style="font-size:6.75px; font-family:Arial;" text-anchor="middle"><textPath startOffset="21.46611528233685" xlink:href="#id23">November</textPath></text><path d="M 82.7489923806493 88.02491185347247 l -24.463849174349882 -16.9820080502185 a50.78033770532203,50.78033770532203 0 0,0 0.5046293162475236,-0.7137623807054123 l 24.16790723829848 17.4005969312557" fill="#c3ff1e" stroke="none" /><line stroke="#e1ed5e" stroke-width="0.3" x1="56.762969772571076" x2="54.21961505331055" y1="26.818313649435495" y2="22.513508569990535" /><path d="M 56.25429882871897 25.957352633546506 a86.0,86.0 0 0,1 42.265352541879196,-11.944610805530505" fill="none" id="id24" stroke="none" /><text fill="#e1ed5e" style="font-size:6.75px; font-family:Arial;" text-anchor="middle"><textPath startOffset="22.20632615414155" xlink:href="#id24">December</textPath></text><path d="M 96.40284397218896 79.31037775812273 l -3.9687160310195297 -22.826709442749262 a44.169146961391775,44.169146961391775 0 0,0 0.750183081470849,-0.12378663625936784 l 3.575203743409795 22.891642341948256" fill="#ffe115" stroke="none" /><path d="M 99.63851952072746 79.00311137660856 l -1.0844414378176228 -62.990665870174325 a84.0,84.0 0 0,0 1.445921917090143,-0.012445506434235476 l 1.543054966925665e-14 63.0" fill="#4dd2ff" stroke="none" /></svg>