<?xml version="1.0" encoding="utf-8" ?>
<svg baseProfile="full" height="200mm" version="1.1" viewBox="0,0,200,200" width="200mm" xmlns="http://www.w3.org/2000/svg" xmlns:ev="http://www.w3.org/2001/xml-events" xmlns:xlink="http://www.w3.org/1999/xlink"><defs /><rect fill="#1a1a1a" height="200" width="200" x="0" y="0" /><text alignment-baseline="middle" fill="#e1ed5e" style="dominant-baseline: central; font-size:9.0px; font-family:Arial;" text-anchor="middle" x="100.0" y="100.0">2019</text><line stroke="#e1ed5e" stroke-width="0.3" x1="100.0" x2="100.0" y1="15.0" y2="10.0" /><path d="M 100.0 14.0 a86.0,86.0 0 0,1 42.46469731375804,11.215312516191453" fill="none" id="id37" stroke="none" /><text fill="#e1ed5e" style="font-size:6.75px; font-family:Arial;" text-anchor="middle"><textPath startOffset="22.20632615414155" xlink:href="#id37">January</textPath></text><path d="M 100.0 79.0 l 0.0 -14.670010449320792 a35.67001044932079,35.67001044932079 0 0,0 0.6140005939465035,0.005284896959003197 l -0.25252011467397517 14.667836928970347" fill="#ffae10" stroke="none" /><path d="M 100.72285384407766 79.0124445844662 l 0.7561388591201779 -21.953962530104885 a42.966980146290496,42.966980146290496 0 0,0 0.7389485135418282,0.03182067741260018 l -1.1339282050513377 21.93769412616809" fill="#f3ff19" stroke="none" /><path d="M 103.2404852339499 79.25152402106235 l 1.6079398343033904 -10.295464604526149 a31.420271682340648,31.420271682340648 0 0,0 0.533652059251079,0.08805716228371588 l -1.7849210996933447 10.26626117930281" fill="#ff740a" stroke="none" /><path d="M 106.0581310904928 79.89281104454417 l 1.696529918758691 -5.630853333398288 a26.88087774294671,26.88087774294671 0 0,0 0.4418891519638142,0.13729711052132945 l -1.7932044434332235 5.6008160879944375" fill="#ff3404" stroke="none" /><path d="M 106.74666289553966 80.11325718540242 l 9.240413736621743 -27.237426017262493 a49.76217345872519,49.76217345872519 0 0,0 0.8087964437327541,0.2821731980838865 l -9.707892184417771 27.0743319660064" fill="#a3ff22" stroke="none" /><path d="M 108.43124777332544 80.76684994638697 l 5.878673560655816 -13.410282054100508 a35.642215256008356,35.642215256008356 0 0,0 0.5597828537565563,0.2511582492020364 l -6.108638532879152 13.30710347438194" fill="#ffad10" stroke="none" /><path d="M 109.08828744355905 81.06846463323043 l 7.599213805993686 -15.829691327574723 a38.559247648902826,38.559247648902826 0 0,0 0.5958849421204486,0.2923981531986137 l -7.870570015124566 15.696538014241277" fill="#ffd413" stroke="none" /><path d="M 109.73455568895987 81.39251694778311 l 6.83080316648504 -13.056995944617263 a35.73584117032393,35.73584117032393 0 0,0 0.5425976177921571,0.289836856079077 l -7.054545830805508 12.937480362036432" fill="#ffaf10" stroke="none" /><path d="M 110.05341064243156 81.56283822128135 l 16.11207002715294 -29.54826498649957 a54.65559038662487,54.65559038662487 0 0,0 0.8221135428895644,0.4575052965345955 l -16.618307659114535 29.266544292404795" fill="#6dff28" stroke="none" /><line stroke="#e1ed5e" stroke-width="0.3" x1="143.23703022742887" x2="145.7803849466894" y1="26.81831364943548" y2="22.513508569990506" /><path d="M 143.74570117128098 25.957352633546492 a86.0,86.0 0 0,1 28.547481713284135,27.462654790039103" fill="none" id="id38" stroke="none" /><text fill="#e1ed5e" style="font-size:6.75px; font-family:Arial;" text-anchor="middle"><textPath startOffset="19.985693538727396" xlink:href="#id38">February</textPath></text><path d="M 117.04232023915458 87.72973835380427 l 6.548619884303493 -4.714926035556647 a29.069383490073143,29.069383490073143 0 0,0 0.2888768325933154,0.40859579323628964 l -6.628809336700692 4.601503741988564" fill="#ff5307" stroke="none" /><path d="M 117.65298651832404 88.62581576622439 l 12.306056153874515 -7.9290464386898325 a35.639289446186,35.639289446186 0 0,0 0.32783462906694727,0.5185556535274475 l -12.440718379187418 7.716043137448178" fill="#ffad10" stroke="none" /><line stroke="#e1ed5e" stroke-width="0.3" x1="172.23445277983987" x2="176.4835382374775" y1="55.19839476539836" y2="52.563006222186495" /><path d="M 173.08426987136738 54.67131705675599 a86.0,86.0 0 0,1 12.851231095245387,41.99856678651699" fill="none" id="id39" stroke="none" /><text fill="#e1ed5e" style="font-size:6.75px; font-family:Arial;" text-anchor="middle"><textPath startOffset="22.20632615414155" xlink:href="#id39">March</textPath></text><path d="M 118.89224826269711 90.83032412892265 l 13.821413532207947 -6.708459491330843 a36.36342737722048,36.36342737722048 0 0,0 0.2684691170794473,0.5654644287302744 l -13.93484084312915 6.469552646960028" fill="#ffb711" stroke="none" /><path d="M 119.47837535516314 92.15188598940014 l 14.273286684845765 -5.750909876523846 a36.38829676071055,36.38829676071055 0 0,0 0.22908416859927436,0.5829942216804082 l -14.370164403326738 5.504366649947654" fill="#ffb711" stroke="none" /><path d="M 119.7369772167798 92.82701384747503 l 17.471108985971508 -6.349504356679539 a39.58913270637409,39.58913270637409 0 0,0 0.22725466576976203,0.6424795425735255 l -17.577816732551078 6.047827187679399" fill="#ffe115" stroke="none" /><path d="M 120.08093135843002 93.85539295169968 l 16.378094346534215 -5.011568047474754 a38.127690700104495,38.127690700104495 0 0,0 0.18663341717713017,0.6292351022797068 l -16.46193366082305 4.7289035584485175" fill="#ffce13" stroke="none" /><path d="M 120.28053869075195 94.5502522615342 l 22.605983949196936 -6.074636960166578 a44.407941483803555,44.407941483803555 0 0,0 0.19201923718181965,0.739928450438112 l -22.707199518249062 5.684612084179616" fill="#e1ff1b" stroke="none" /><path d="M 120.6074358757038 95.95851677861258 l 15.089150713307042 -2.9592497485199076 a36.37659352142111,36.37659352142111 0 0,0 0.11521727546202988,0.6154952926378205 l -15.13785371267893 2.699076378419524" fill="#ffb711" stroke="none" /><path d="M 120.78858239683441 97.02765380044208 l 2.3301169680603655 -0.33315952874180965 a23.353814002089862,23.353814002089862 0 0,0 0.05347356259426701,0.3984401523705815 l -2.3355065297124686 0.29300103430656377" fill="#ff0000" stroke="none" /><path d="M 120.83666639777658 97.38593545837742 l 26.139093590467475 -3.2792806872545706 a47.343991640543365,47.343991640543365 0 0,0 0.09448428462172428,0.8094836500587106 l -26.191668228092787 2.8288532988710076" fill="#bfff1e" stroke="none" /><path d="M 120.94382443527127 98.46500227214037 l 32.09781522646937 -2.35248693924848 a53.18390804597701,53.18390804597701 0 0,0 0.05905796684322356,0.9136006073898226 l -32.133553784317016 1.7996272676056222" fill="#7dff26" stroke="none" /><path d="M 120.98425023603335 99.18683210126433 l 14.631233759140216 -0.5669799720268409 a35.642215256008356,35.642215256008356 0 0,0 0.018480158570718472,0.6132664944714261 l -14.638825612166578 0.31504333013041574" fill="#ffad10" stroke="none" /><line stroke="#e1ed5e" stroke-width="0.3" x1="184.98032266829074" x2="189.97916517819016" y1="98.17113171792111" y2="98.06355123074" /><path d="M 185.9800911702706 98.14961562048488 a86.0,86.0 0 0,1 -9.607161424134198,41.387399972396054" fill="none" id="id40" stroke="none" /><text fill="#e1ed5e" style="font-size:6.75px; font-family:Arial;" text-anchor="middle"><textPath startOffset="21.466115282336823" xlink:href="#id40">April</textPath></text><path d="M 120.99513854157772 99.54816195383933 l 17.577121211611345 -0.378278623389683 a38.58119122257053,38.58119122257053 0 0,0 0.008574197372656758,0.6640810356092941 l -17.58102841610172 0.07566132971992623" fill="#ffd413" stroke="none" /><path d="M 120.8583938346157 102.4346265915055 l 5.836862976917537 0.6812884025132445 a26.876489028213165,26.876489028213165 0 0,0 -0.05759054490539228,0.4590533067385566 l -5.8242709227652965 -0.7816594635391961" fill="#ff3404" stroke="none" /><path d="M 120.76222939487914 103.15116336523771 l 15.195261722229214 2.306243282144711 a36.369278996865205,36.369278996865205 0 0,0 -0.09926777463072159,0.6181405273839939 l -15.153312193237204 -2.5674630392219098" fill="#ffb711" stroke="none" /><path d="M 120.70491114924044 103.5080841355445 l 14.885035392557388 2.522008239555502 a36.09717868338558,36.09717868338558 0 0,0 -0.10907116233232451,0.6117290021356905 l -14.839417787885875 -2.777855992424411" fill="#ffb310" stroke="none" /><path d="M 120.5718875245553 104.21870165774334 l 31.843074942223517 6.53009758516593 a53.50574712643678,53.50574712643678 0 0,0 -0.192788751908986,0.9006448662384965 l -31.725952151590086 -7.0772562708205955" fill="#79ff26" stroke="none" /><path d="M 120.41448212921028 104.9243191809786 l 14.251029287134541 3.4375898650356382 a35.65977011494253,35.65977011494253 0 0,0 -0.14907258813957483,0.595470887276146 l -14.189745384699904 -3.68238859170918" fill="#ffae10" stroke="none" /><path d="M 119.9155931802556 106.66101706037122 l 29.622970782641428 9.90776985531497 a52.23594566353187,52.23594566353187 0 0,0 -0.2925441030658348,0.8502701003685372 l -29.44803584863236 -10.416212658772807" fill="#87ff25" stroke="none" /><path d="M 118.64920377521936 109.65438752849418 l 12.994032473684712 6.726797914315489 a35.631974921630096,35.631974921630096 0 0,0 -0.2866634661906151,0.5422592460847807 l -12.876316499269205 -6.949472175486403" fill="#ffad10" stroke="none" /><line stroke="#e1ed5e" stroke-width="0.3" x1="174.80103733775053" x2="179.2010983576182" y1="140.37084112569926" y2="142.7455964860345" /><path d="M 175.68104954172406 140.8457921977663 a86.0,86.0 0 0,1 -30.038265399797805,32.042727171017184" fill="none" id="id41" stroke="none" /><text fill="#e1ed5e" style="font-size:6.75px; font-family:Arial;" text-anchor="middle"><textPath startOffset="22.206326154141568" xlink:href="#id41">May</textPath></text><path d="M 118.12598468904814 110.60418214915192 l 26.650437676562177 15.591213405782002 a51.8760710553814,51.8760710553814 0 0,0 -0.45754478348068023,0.7668713750403945 l -26.37811201738327 -16.047646874708498" fill="#8bff24" stroke="none" /><path d="M 117.94076556474637 110.91462005526583 l 13.330282515749548 8.109741379969718 a36.60334378265413,36.60334378265413 0 0,0 -0.33210625223740164,0.5354610235395019 l -13.188711623844183 -8.33799873487449" fill="#ffba11" stroke="none" /><path d="M 117.55443506779137 111.5257021239791 l 12.255698240989565 8.046714502718114 a35.66123301985371,35.66123301985371 0 0,0 -0.3413236711531032,0.5102325769700485 l -12.115371464425738 -8.25648399389397" fill="#ffae10" stroke="none" /><path d="M 115.80600337817218 113.82643327865902 l 11.063651824721282 9.678021705605422 a35.699268547544406,35.699268547544406 0 0,0 -0.408571584258558,0.45903450615211666 l -10.895421390814386 -9.867030381498406" fill="#ffae10" stroke="none" /><path d="M 115.07121518719521 114.62390073753431 l 19.368427570419854 18.793571633997423 a47.9876698014629,47.9876698014629 0 0,0 -0.5803294584676604,0.5878706775306344 l -19.04205748689666 -19.12418280550872" fill="#b7ff1f" stroke="none" /><path d="M 114.29624159901734 115.38237550388516 l 9.969026708893319 10.726407439490801 a35.64367816091954,35.64367816091954 0 0,0 -0.4530149409432156,0.4138184076710489 l -9.782912218483238 -10.896418613748432" fill="#ffad10" stroke="none" /><path d="M 113.20401910651253 116.32954008644616 l 11.05163981642271 13.667671483012928 a38.57680250783699,38.57680250783699 0 0,0 -0.5199464240364647,0.4130768852445021 l -10.814735899668895 -13.855882282262556" fill="#ffd413" stroke="none" /><path d="M 111.7513745106137 117.40417183066458 l 13.439381075635332 19.904165025706746 a45.01650992685475,45.01650992685475 0 0,0 -0.6459339721611859,0.4280898150454858 l -13.094772404734183 -20.13255286184355" fill="#daff1c" stroke="none" /><line stroke="#e1ed5e" stroke-width="0.3" x1="143.8653032363475" x2="146.44561519142675" y1="172.8068346515853" y2="177.08958963109032" /><path d="M 144.38136562736335 173.6633856474863 a86.0,86.0 0 0,1 -40.68145358897372,12.25698825130547" fill="none" id="id42" stroke="none" /><text fill="#e1ed5e" style="font-size:6.75px; font-family:Arial;" text-anchor="middle"><textPath startOffset="21.466115282336833" xlink:href="#id42">June</textPath></text><path d="M 110.5260780823613 118.17145234162733 l 8.148819625864233 14.06752698519711 a37.25726227795194,37.25726227795194 0 0,0 -0.5577079208673565,0.31668111275112526 l -7.905462938075678 -14.205711263742865" fill="#ffc312" stroke="none" /><path d="M 107.59598834532513 119.57807347666477 l 5.2915279312609735 13.63850468593854 a35.62904911180773,35.62904911180773 0 0,0 -0.5736782147950893,0.21691601314197176 l -5.05597949570561 -13.727568949187143" fill="#ffad10" stroke="none" /><path d="M 106.2309692047433 120.05430185196036 l 4.340626405254827 13.970255556921181 a35.62904911180773,35.62904911180773 0 0,0 -0.5872431206901993,0.1769315350351831 l -4.099508310124382 -14.04290246106209" fill="#ffad10" stroke="none" /><path d="M 103.7750983002368 120.6578951692458 l 2.6308661369257433 14.396487862983978 a35.634900731452454,35.634900731452454 0 0,0 -0.6043526927141996,0.10507446226449393 l -2.382664472739494 -14.439640903769478" fill="#ffad10" stroke="none" /><path d="M 103.06178313531738 120.77559828337769 l 2.1346099350927417 14.484304257752973 a35.64075235109718,35.64075235109718 0 0,0 -0.6077111621675548,0.08422322959970209 l -1.8849701817383566 -14.518902052845277" fill="#ffad10" stroke="none" /><path d="M 100.90346689309514 120.98055641714683 l 0.6300037338824366 14.630119800462543 a35.64367816091954,35.64367816091954 0 0,0 -0.613206452904709,0.021120070104369552 l -0.3780769293030753 -14.638796668993006" fill="#ffad10" stroke="none" /><line stroke="#e1ed5e" stroke-width="0.3" x1="102.19456741930631" x2="102.32365962044197" y1="184.97166512339345" y2="189.96999836594603" /><path d="M 102.22038585953345 185.97133177190398 a86.0,86.0 0 0,1 -42.740103519485714,-10.115201625700543" fill="none" id="id43" stroke="none" /><text fill="#e1ed5e" style="font-size:6.75px; font-family:Arial;" text-anchor="middle"><textPath startOffset="22.20632615414155" xlink:href="#id43">July</textPath></text><path d="M 100.18074693466247 120.99922214144158 l 0.12596254506187923 14.634358641795995 a35.634900731452454,35.634900731452454 0 0,0 -0.6134189594486593,0.0 l 0.12596254506186913 -14.634358641795995" fill="#ffad10" stroke="none" /><path d="M 98.37488393609728 120.93702456842531 l -0.5678566476165818 7.315925826208385 a28.337931034482757,28.337931034482757 0 0,0 -0.48600318502463224,-0.041934399798677184 l 0.6937041503827558 -7.305067174131045" fill="#ff4906" stroke="none" /><path d="M 96.93821686468263 120.77559828337769 l -2.1399421941232397 14.520486072945207 a35.6773249738767,35.6773249738767 0 0,0 -0.6067933791929979,-0.0947686464938199 l 2.3895714369247547 -14.481499119104281" fill="#ffae10" stroke="none" /><path d="M 95.51606077576429 120.51570834832081 l -1.5624287007751334 7.148698931264417 a28.317450365726227,28.317450365726227 0 0,0 -0.4753014606898194,-0.10817706500429938 l 1.6852503108578154 -7.120745132682432" fill="#ff4906" stroke="none" /><path d="M 94.46302465271185 120.25689768951611 l -1.9791167193964125 7.24055325983331 a28.506165099268546,28.506165099268546 0 0,0 -0.4722098264237891,-0.1334512137238295 l 2.1034577139248154 -7.205413252770959" fill="#ff4b07" stroke="none" /><path d="M 93.42475214034765 119.94407469862007 l -0.7420342412146853 2.2507419722580635 a23.369905956112852,23.369905956112852 0 0,0 -0.3809631498660967,-0.1292433844864148 l 0.7806671240180078 -2.2376356008735256" fill="#ff0000" stroke="none" /><path d="M 93.08242187328487 119.8279376855182 l -2.4094664321543453 6.906282718745451 a28.314524555903866,28.314524555903866 0 0,0 -0.4588037550687315,-0.16451070311192037 l 2.5279897478528035 -6.863784474593572" fill="#ff4806" stroke="none" /><path d="M 92.7421414339146 119.70592522655815 l -2.5279897478528035 6.863784474593572 a28.314524555903866,28.314524555903866 0 0,0 -0.45590399701739626,-0.1723838815176673 l 2.6457639656304823 -6.819252342969272" fill="#ff4806" stroke="none" /><path d="M 92.40401165467489 119.57807347666478 l -1.5996288936201897 4.1229199665592215 a25.422361546499477,25.422361546499477 0 0,0 -0.40661121146252804,-0.16179899253997737 l 1.6703611811245758 -4.094774129613178" fill="#ff1f03" stroke="none" /><path d="M 92.06813273071674 119.44442032107085 l -5.259731420153767 12.893865345612916 a34.92539184952978,34.92539184952978 0 0,0 -0.5546959509548998,-0.23186295248632255 l 5.4808988306061295 -12.80141735010662" fill="#ffa40f" stroke="none" /><path d="M 91.07499286063937 119.00905698771935 l -2.8798769118438496 6.133747960091678 a27.776175548589343,27.776175548589343 0 0,0 -0.43104303536603306,-0.20692685141782022 l 2.9850326152101245 -6.083266832174296" fill="#ff4106" stroke="none" /><line stroke="#e1ed5e" stroke-width="0.3" x1="58.666819895761336" x2="56.23545636021788" y1="174.27360380694188" y2="178.64263932499728" /><path d="M 58.180547188652646 175.14741091055294 a86.0,86.0 0 0,1 -31.652253787137756,-30.449443065178592" fill="none" id="id44" stroke="none" /><text fill="#e1ed5e" style="font-size:6.75px; font-family:Arial;" text-anchor="middle"><textPath startOffset="22.20632615414155" xlink:href="#id44">August</textPath></text><path d="M 88.8546689885994 117.79835938074946 l -7.776498461176479 12.418555733722503 a35.65245559038662,35.65245559038662 0 0,0 -0.5173310485764143,-0.3301851518728713 l 7.9891113117998165 -12.282856153025827" fill="#ffae10" stroke="none" /><path d="M 87.65650970185807 116.9893568818739 l -4.729306627640587 6.509332138649001 a29.04597701149425,29.04597701149425 0 0,0 -0.40196178421033824,-0.29736171840974474 l 4.8406533822694895 -6.426960471499488" fill="#ff5307" stroke="none" /><path d="M 86.51685102203217 116.09983520530335 l -10.810940072198521 12.909028436993486 a37.8380355276907,37.8380355276907 0 0,0 -0.49574047010340866,-0.42248078348194773 l 11.031546018878988 -12.721023263288586" fill="#ffca12" stroke="none" /><path d="M 84.9287848128048 114.62390073753433 l -12.600816766054802 12.226823869863251 a38.55778474399164,38.55778474399164 0 0,0 -0.45809117556982354,-0.48030676616057427 l 12.809414493003583 -12.008109987120177" fill="#ffd413" stroke="none" /><path d="M 84.67929136418377 114.36230785411682 l -8.609693943931005 8.071106754382475 a32.8012539184953,32.8012539184953 0 0,0 -0.38260880807521874,-0.41524629500831167 l 8.747349160001953 -7.921709204572822" fill="#ff870c" stroke="none" /><path d="M 83.72743513129214 113.27417163493432 l -18.139573878722608 14.797164367970677 a44.409404388714734,44.409404388714734 0 0,0 -0.47810337469526903,-0.5965074716868528 l 18.39159516547274 -14.482729062705564" fill="#e1ff1b" stroke="none" /><path d="M 83.28015986056508 112.70617746262583 l -8.290618050330743 6.3004229313110915 a31.412957157784746,31.412957157784746 0 0,0 -0.32346181262671114,-0.4333299573874385 l 8.397841129652539 -6.156780094414348" fill="#ff740a" stroke="none" /><path d="M 82.05923443525364 110.91462005526583 l -15.142481057643115 9.212228254238996 a38.724555903866246,38.724555903866246 0 0,0 -0.3415489682613796,-0.5724557166660225 l 15.298810901602726 -8.950210443686862" fill="#ffd614" stroke="none" /><line stroke="#e1ed5e" stroke-width="0.3" x1="26.63291911575756" x2="22.317208475507996" y1="142.92168965132927" y2="145.44649492493687" /><path d="M 25.769776987707644 143.4266507060508 a86.0,86.0 0 0,1 -11.730757126820373,-40.83630448921669" fill="none" id="id45" stroke="none" /><text fill="#e1ed5e" style="font-size:6.75px; font-family:Arial;" text-anchor="middle"><textPath startOffset="21.46611528233685" xlink:href="#id45">September</textPath></text><path d="M 81.51974371655577 109.97397251340807 l -6.4536067397357 3.4830737868139785 a28.333542319749217,28.333542319749217 0 0,0 -0.22794670990598442,-0.43118927118160283 l 6.512605957866571 -3.371469500546249" fill="#ff4906" stroke="none" /><path d="M 81.35079622478065 109.6543875284942 l -12.999229047359448 6.729488095444998 a35.63782654127482,35.63782654127482 0 0,0 -0.2773324294905438,-0.5472031939192521 l 13.113140146636258 -6.5047306898230595" fill="#ffad10" stroke="none" /><path d="M 80.58989483394504 108.01547362559985 l -13.521494368550995 5.583750348728559 a35.62904911180773,35.62904911180773 0 0,0 -0.2292091138809697,-0.568878223349946 l 13.615606096689351 -5.350172757535808" fill="#ffad10" stroke="none" /><path d="M 79.76711848015287 105.62410040840567 l -14.094657972725265 3.9178686230621187 a35.62904911180773,35.62904911180773 0 0,0 -0.15916331596629252,-0.5923059089174328 l 14.16000936503333 -3.674671780969147" fill="#ffad10" stroke="none" /><path d="M 79.18660465613746 102.79330883721812 l -9.144554819487363 1.2272656799954516 a30.226541274817137,30.226541274817137 0 0,0 -0.0647689875264106,-0.5162725573607498 l 9.164325316260621 -1.069675368347293" fill="#ff6409" stroke="none" /><line stroke="#e1ed5e" stroke-width="0.3" x1="15.007084014347285" x2="10.007500721073583" y1="101.09737516637583" y2="101.16192664675087" /><path d="M 14.007167355692545 101.11028546245083 a86.0,86.0 0 0,1 10.666146001902534,-42.60595125391555" fill="none" id="id46" stroke="none" /><text fill="#e1ed5e" style="font-size:6.75px; font-family:Arial;" text-anchor="middle"><textPath startOffset="22.20632615414155" xlink:href="#id46">October</textPath></text><path d="M 80.803312248108 91.48605970444005 l -13.428989091222538 -5.95590306151257 a35.690491118077325,35.690491118077325 0 0,0 0.2539084133086109,-0.5594535318899335 l 13.324478360950577 6.186178602244575" fill="#ffae10" stroke="none" /><line stroke="#e1ed5e" stroke-width="0.3" x1="26.266209847984257" x2="21.92892807433627" y1="57.711370442889674" y2="55.22380399835377" /><path d="M 25.39875349325466 57.213857153982495 a86.0,86.0 0 0,1 29.58750427330802,-30.492523968695096" fill="none" id="id47" stroke="none" /><text fill="#e1ed5e" style="font-size:6.75px; font-family:Arial;" text-anchor="middle"><textPath startOffset="21.46611528233685" xlink:href="#id47">November</textPath></text><path d="M 82.15384107792192 88.93136811851018 l -13.713756814311619 -8.505613255640139 a37.13730407523511,37.13730407523511 0 0,0 0.34161439510275105,-0.5403519341781208 l 13.565314822962906 8.740412837532475" fill="#ffc112" stroke="none" /><path d="M 82.7489923806493 88.02491185347247 l -12.05106962081845 -8.365460392433157 a35.67001044932079,35.67001044932079 0 0,0 0.35447052534462115,-0.501373419882275 l 11.90528647566995 8.571660312647218" fill="#ffae10" stroke="none" /><path d="M 83.39014120810768 87.1503855733568 l -22.02382809090063 -17.037935283645197 a48.84493207941484,48.84493207941484 0 0,0 0.5201890353917034,-0.6605872489238377 l 21.727284974914955 17.414514926522084" fill="#adff20" stroke="none" /><path d="M 84.5562425177563 85.77008943001954 l -14.806857138845006 -13.643069256331668 a41.13396029258098,41.13396029258098 0 0,0 0.48426948386170116,-0.5165849206703578 l 14.569820333012848 13.895923593880076" fill="#fff417" stroke="none" /><path d="M 85.31137513191541 84.99185889309783 l -44.06587460425377 -45.02442332070653 a84.0,84.0 0 0,0 1.0420670255502897,-1.002467652950755 l 43.28432433509105 45.776274060419595" fill="#4dd2ff" stroke="none" /><path d="M 86.93701828274178 83.55741782278169 l -14.579033792559672 -18.35086095863564 a44.43719958202717,44.43719958202717 0 0,0 0.6030073914648058,-0.4706568337830314 l 14.260993845935442 18.599096181641894" fill="#e1ff1b" stroke="none" /><path d="M 88.70189139769569 82.29822771554957 l -7.88703213540171 -12.35732915795735 a35.65977011494253,35.65977011494253 0 0,0 0.5202605044774798,-0.32578708017500896 l 7.673152478551988 12.49126057945529" fill="#ffae10" stroke="none" /><line stroke="#e1ed5e" stroke-width="0.3" x1="56.762969772571076" x2="54.21961505331055" y1="26.818313649435495" y2="22.513508569990535" /><path d="M 56.25429882871897 25.957352633546506 a86.0,86.0 0 0,1 42.265352541879196,-11.944610805530505" fill="none" id="id48" stroke="none" /><text fill="#e1ed5e" style="font-size:6.75px; font-family:Arial;" text-anchor="middle"><textPath startOffset="22.20632615414155" xlink:href="#id48">December</textPath></text><path d="M 92.91201910852362 80.23233633223022 l -4.9509707000232455 -13.807757826313315 a35.66854754440961,35.66854754440961 0 0,0 0.5797293888491102,-0.2022562004845088 l 4.71255930711085 13.890934879970036" fill="#ffae10" stroke="none" /><path d="M 93.94186890950719 79.89281104454417 l -4.229508170596929 -14.037913459531747 a35.66123301985371,35.66123301985371 0 0,0 0.5892760336158941,-0.1720258332252789 l 3.987241919257613 14.108637621675724" fill="#ffae10" stroke="none" /><path d="M 97.83486435360386 79.11191278185805 l -1.4931969975145818 -14.405577391822025 a35.48275862068965,35.48275862068965 0 0,0 0.6080644404337385,-0.05774304547435011 l 1.2450074299906069 14.429145981811557" fill="#ffab0f" stroke="none" /><path d="M 98.19473922651362 79.07773832637324 l -0.6321871061174529 -7.326799681875426 a28.354022988505747,28.354022988505747 0 0,0 0.48662228838587523,-0.03777125519075067 l 0.5059746283692435 7.336596199254638" fill="#ff4906" stroke="none" /><path d="M 98.91598698831166 79.02799685794201 l -0.7554487056029349 -14.61538972017751 a35.634900731452454,35.634900731452454 0 0,0 0.6128510040981159,-0.02639065340280017 l 0.5037568691154949 14.626228100104502" fill="#ffad10" stroke="none" /></svg>