<?xml version="1.0" encoding="utf-8" ?>
<svg baseProfile="full" height="200mm" version="1.1" viewBox="0,0,200,200" width="200mm" xmlns="http://www.w3.org/2000/svg" xmlns:ev="http://www.w3.org/2001/xml-events" xmlns:xlink="http://www.w3.org/1999/xlink"><defs /><rect fill="#1a1a1a" height="200" width="200" x="0" y="0" /><text alignment-baseline="middle" fill="#e1ed5e" style="dominant-baseline: central; font-size:9.0px; font-family:Arial;" text-anchor="middle" x="100.0" y="100.0">2020</text><line stroke="#e1ed5e" stroke-width="0.3" x1="100.0" x2="100.0" y1="15.0" y2="10.0" /><path d="M 100.0 14.0 a86.0,86.0 0 0,1 42.35913384403234,11.155469271406648" fill="none" id="id1" stroke="none" /><text fill="#e1ed5e" style="font-size:6.75px; font-family:Arial;" text-anchor="middle"><textPath startOffset="22.145653131862478" xlink:href="#id1">January</textPath></text><line stroke="#e1ed5e" stroke-width="0.3" x1="143.13028292997686" x2="145.6673583964461" y1="26.7553504044142" y2="22.446841604673864" /><path d="M 143.63769802327073 25.89364864446614 a86.0,86.0 0 0,1 29.32050498858742,28.57503671076993" fill="none" id="id2" stroke="none" /><text fill="#e1ed5e" style="font-size:6.75px; font-family:Arial;" text-anchor="middle"><textPath startOffset="20.669276256404974" xlink:href="#id2">February</textPath></text><line stroke="#e1ed5e" stroke-width="0.3" x1="172.87174338648825" x2="177.1583165268699" y1="56.24261187166439" y2="53.66864786411523" /><path d="M 173.72905801456457 55.72781907015455 a86.0,86.0 0 0,1 12.242430191666344,42.057860355516425" fill="none" id="id3" stroke="none" /><text fill="#e1ed5e" style="font-size:6.75px; font-family:Arial;" text-anchor="middle"><textPath startOffset="22.145653131862474" xlink:href="#id3">March</textPath></text><line stroke="#e1ed5e" stroke-width="0.3" x1="184.99686870605535" x2="189.99668451229388" y1="99.2704041080226" y2="99.22748670261217" /><path d="M 185.99683186730306 99.26182062694052 a86.0,86.0 0 0,1 -10.086455211305974,41.156179273409016" fill="none" id="id4" stroke="none" /><text fill="#e1ed5e" style="font-size:6.75px; font-family:Arial;" text-anchor="middle"><textPath startOffset="21.40746469413373" xlink:href="#id4">April</textPath></text><line stroke="#e1ed5e" stroke-width="0.3" x1="174.33088141563837" x2="178.70328620479359" y1="141.23008692659167" y2="143.65538615756765" /><path d="M 175.20536237346943 141.71514677278685 a86.0,86.0 0 0,1 -30.301960400862466,31.631185727798858" fill="none" id="id5" stroke="none" /><text fill="#e1ed5e" style="font-size:6.75px; font-family:Arial;" text-anchor="middle"><textPath startOffset="22.145653131862474" xlink:href="#id5">May</textPath></text><line stroke="#e1ed5e" stroke-width="0.3" x1="143.1302829299769" x2="145.66735839644613" y1="173.24464959558577" y2="177.55315839532614" /><path d="M 143.63769802327073 174.10635135553383 a86.0,86.0 0 0,1 -40.68552437913181,11.842963189579606" fill="none" id="id6" stroke="none" /><text fill="#e1ed5e" style="font-size:6.75px; font-family:Arial;" text-anchor="middle"><textPath startOffset="21.407464694133747" xlink:href="#id6">June</textPath></text><line stroke="#e1ed5e" stroke-width="0.3" x1="101.45913802915013" x2="101.54496967792366" y1="184.9874750549273" y2="189.98673829345242" /><path d="M 101.47630435890484 185.9873277026323 a86.0,86.0 0 0,1 -42.54439059252881,-10.42667462771756" fill="none" id="id7" stroke="none" /><text fill="#e1ed5e" style="font-size:6.75px; font-family:Arial;" text-anchor="middle"><textPath startOffset="22.145653131862474" xlink:href="#id7">July</textPath></text><line stroke="#e1ed5e" stroke-width="0.3" x1="58.13341422392154" x2="55.670673884152215" y1="173.97424548756322" y2="178.32567169271397" /><path d="M 57.64086615596767 174.84453072859336 a86.0,86.0 0 0,1 -31.369924170532244,-30.572349798747897" fill="none" id="id8" stroke="none" /><text fill="#e1ed5e" style="font-size:6.75px; font-family:Arial;" text-anchor="middle"><textPath startOffset="22.145653131862474" xlink:href="#id8">August</textPath></text><line stroke="#e1ed5e" stroke-width="0.3" x1="26.387840678322732" x2="22.057713659400548" y1="142.50000000000003" y2="145.00000000000006" /><path d="M 25.521815274538298 143.00000000000003 a86.0,86.0 0 0,1 -11.493303480769221,-40.785679425670985" fill="none" id="id9" stroke="none" /><text fill="#e1ed5e" style="font-size:6.75px; font-family:Arial;" text-anchor="middle"><textPath startOffset="21.40746469413373" xlink:href="#id9">September</textPath></text><line stroke="#e1ed5e" stroke-width="0.3" x1="15.003131293944662" x2="10.003315487706104" y1="100.72959589197737" y2="100.7725132973878" /><path d="M 14.003168132696942 100.73817937305945 a86.0,86.0 0 0,1 10.791469493833615,-42.45332614584628" fill="none" id="id10" stroke="none" /><text fill="#e1ed5e" style="font-size:6.75px; font-family:Arial;" text-anchor="middle"><textPath startOffset="22.145653131862435" xlink:href="#id10">October</textPath></text><path d="M 80.41425534168474 92.42381321644754 l -33.34006868243015 -12.896654792613122 a56.7475017950764,56.7475017950764 0 0,0 0.35924228957139487,-0.9055252441524041 l 33.11376771789262 13.467081053979108" fill="#beff1e" stroke="none" /><path d="M 80.9802524753101 91.09779779509293 l -26.479289449959403 -12.393644480285728 a50.23619662812604,50.23619662812604 0 0,0 0.3722759141210044,-0.777913480346029 l 26.262634277878494 12.846370462696845" fill="#ffd413" stroke="none" /><path d="M 81.29705330413844 90.45014215332179 l -26.775790019246887 -13.671909168884794 a51.06433154881441,51.06433154881441 0 0,0 0.4053339063036081,-0.7772812106160295 l 26.53714804396834 14.12953662260531" fill="#ffe315" stroke="none" /><path d="M 81.63589988554816 89.8137432299009 l -31.575512709967796 -17.51440463222832 a57.10771901572791,57.10771901572791 0 0,0 0.4828774046156119,-0.8531981055365343 l 31.270201940330814 18.053859507863958" fill="#b9ff1f" stroke="none" /><line stroke="#e1ed5e" stroke-width="0.3" x1="26.387840678322718" x2="22.05771365940052" y1="57.49999999999999" y2="54.99999999999999" /><path d="M 25.521815274538284 56.99999999999999 a86.0,86.0 0 0,1 29.574782752854787,-30.34633250058573" fill="none" id="id11" stroke="none" /><text fill="#e1ed5e" style="font-size:6.75px; font-family:Arial;" text-anchor="middle"><textPath startOffset="21.40746469413373" xlink:href="#id11">November</textPath></text><path d="M 84.58840730492382 85.73525988315684 l -13.1225747454335 -12.146059275707643 a38.880959814240754,38.880959814240754 0 0,0 0.45758106651543135,-0.4859352356572266 l 12.912137845181796 12.36953597130938" fill="#ff0000" stroke="none" /><path d="M 85.08716467003674 85.21462403516908 l -21.782271235141053 -21.596099095414342 a51.67342231150951,51.67342231150951 0 0,0 0.629943506013441,-0.6245594058360373 l 21.408335808997634 21.966838511479054" fill="#ffed16" stroke="none" /><path d="M 85.86807049272753 84.46653392183569 l -21.639931238950737 -23.786075189595707 a53.15686547149172,53.15686547149172 0 0,0 0.6802432769825664,-0.6082777328660075 l 21.228422935144778 24.154048452345116" fill="#f8ff18" stroke="none" /><path d="M 86.13680546590413 84.22622945171909 l -24.1223145312571 -27.446765864367723 a57.54053933316145,57.54053933316145 0 0,0 0.7475352321713991,-0.6457031292859333 l 23.64759981932285 27.856813126118368" fill="#b2ff20" stroke="none" /><path d="M 88.12776184653039 82.6780497279521 l -17.964699737129692 -26.211033798028275 a52.77654369824711,52.77654369824711 0 0,0 0.7516981010265312,-0.5057760295910206 l 17.512105348006173 26.515559501676403" fill="#ffff18" stroke="none" /><path d="M 88.4268655584334 82.4767994020092 l -26.207446276941 -39.68141393246784 a68.55465121351014,68.55465121351014 0 0,0 0.987560331795006,-0.6401246757040876 l 25.522400312888966 40.12545244987584" fill="#33ff4f" stroke="none" /><line stroke="#e1ed5e" stroke-width="0.3" x1="56.869717070023135" x2="54.33264160355391" y1="26.7553504044142" y2="22.446841604673864" /><path d="M 56.362301976729285 25.89364864446614 a86.0,86.0 0 0,1 42.16139366436587,-11.88097634709845" fill="none" id="id12" stroke="none" /><text fill="#e1ed5e" style="font-size:6.75px; font-family:Arial;" text-anchor="middle"><textPath startOffset="22.145653131862474" xlink:href="#id12">December</textPath></text><path d="M 91.26138138417902 80.90454125486306 l -12.529870622669597 -27.380028592152065 a51.11085557615232,51.11085557615232 0 0,0 0.8009475018425661,-0.3582536299332487 l 12.058009717971412 27.59108597299516" fill="#ffe315" stroke="none" /><path d="M 91.5904679813234 80.7573450057729 l -11.973385034197724 -27.397448135570183 a50.89953366723983,50.89953366723983 0 0,0 0.803642859725642,-0.3430273492585278 l 11.501307099301652 27.598950134488113" fill="#ffe015" stroke="none" /><path d="M 94.30408787586887 79.78721728523814 l -9.722324347398276 -34.50109925043432 a56.84479655688302,56.84479655688302 0 0,0 0.941508452503253,-0.256612315431877 l 9.128634493960345 34.662912060010335" fill="#bdff1f" stroke="none" /><path d="M 97.48249496171623 79.15144685158666 l -7.552515114851333 -62.54565944524002 a84.0,84.0 0 0,0 1.4330563935968041,-0.16057695797211657 l 6.477722819653731 62.666092163719114" fill="#4dd2ff" stroke="none" /></svg>