<?xml version="1.0" encoding="utf-8" ?>
<svg baseProfile="full" height="200mm" version="1.1" viewBox="0,0,200,200" width="200mm" xmlns="http://www.w3.org/2000/svg" xmlns:ev="http://www.w3.org/2001/xml-events" xmlns:xlink="http://www.w3.org/1999/xlink"><defs /><rect fill="#1a1a1a" height="200" width="200" x="0" y="0" /><text alignment-baseline="middle" fill="#e1ed5e" style="dominant-baseline: central; font-size:9.0px; font-family:Arial;" text-anchor="middle" x="100.0" y="100.0">2017</text><line stroke="#e1ed5e" stroke-width="0.3" x1="100.0" x2="100.0" y1="15.0" y2="10.0" /><path d="M 100.0 14.0 a86.0,86.0 0 0,1 42.46469731375804,11.215312516191453" fill="none" id="id13" stroke="none" /><text fill="#e1ed5e" style="font-size:6.75px; font-family:Arial;" text-anchor="middle"><textPath startOffset="22.20632615414155" xlink:href="#id13">January</textPath></text><path d="M 103.59715602781102 79.31037775812273 l 3.3584374396547294 -19.316593834745976 a40.60637394860714,40.60637394860714 0 0,0 0.6876106995449888,0.1256564602448641 l -3.690443260302619 19.255921893150372" fill="#ffdc14" stroke="none" /><line stroke="#e1ed5e" stroke-width="0.3" x1="143.23703022742887" x2="145.7803849466894" y1="26.81831364943548" y2="22.513508569990506" /><path d="M 143.74570117128098 25.957352633546492 a86.0,86.0 0 0,1 28.547481713284135,27.462654790039103" fill="none" id="id14" stroke="none" /><text fill="#e1ed5e" style="font-size:6.75px; font-family:Arial;" text-anchor="middle"><textPath startOffset="19.985693538727396" xlink:href="#id14">February</textPath></text><path d="M 112.19680574252982 82.90503203632743 l 5.695105451658919 -7.982224797297842 a30.805617717416467,30.805617717416467 0 0,0 0.4290117706701502,0.3116952964067452 l -5.831662538682858 7.883010266074423" fill="#ff5307" stroke="none" /><path d="M 114.94478906791727 85.2469230424477 l 3.0341646761085217 -2.9952423393255723 a25.263523420016977,25.263523420016977 0 0,0 0.30284436521865343,0.31210773912907486 l -3.085273305030284 2.9425704046463808" fill="#ff0000" stroke="none" /><path d="M 115.4437574822437 85.77008943001954 l 17.87609863675094 -16.471074816707077 a45.30743112894513,45.30743112894513 0 0,0 0.5235302995614058,0.5780952327132246 l -18.15697257692838 16.1609267967243" fill="#e6ff1a" stroke="none" /><line stroke="#e1ed5e" stroke-width="0.3" x1="172.23445277983987" x2="176.4835382374775" y1="55.19839476539836" y2="52.563006222186495" /><path d="M 173.08426987136738 54.67131705675599 a86.0,86.0 0 0,1 12.851231095245387,41.99856678651699" fill="none" id="id15" stroke="none" /><text fill="#e1ed5e" style="font-size:6.75px; font-family:Arial;" text-anchor="middle"><textPath startOffset="22.20632615414155" xlink:href="#id15">March</textPath></text><path d="M 119.34039704204932 91.81776055985345 l 6.7293657120611465 -2.846957144503494 a28.306813797360906,28.306813797360906 0 0,0 0.18598697225649383,0.45038220567340853 l -6.7773743712038375 2.730700368376782" fill="#ff2e04" stroke="none" /><path d="M 120.87857604477298 97.74499172005257 l 21.76952847572904 -2.3512363514661367 a42.896133960953776,42.896133960953776 0 0,0 0.07297015248597305,0.7347994773302648 l -21.80677575389724 1.976161343431437" fill="#fffa17" stroke="none" /><line stroke="#e1ed5e" stroke-width="0.3" x1="184.98032266829074" x2="189.97916517819016" y1="98.17113171792111" y2="98.06355123074" /><path d="M 185.9800911702706 98.14961562048488 a86.0,86.0 0 0,1 -9.607161424134198,41.387399972396054" fill="none" id="id16" stroke="none" /><text fill="#e1ed5e" style="font-size:6.75px; font-family:Arial;" text-anchor="middle"><textPath startOffset="21.466115282336823" xlink:href="#id16">April</textPath></text><path d="M 120.49622156327973 104.57218783832717 l 7.155251666971025 1.5961553962954012 a28.331121228489852,28.331121228489852 0 0,0 -0.11027475313188864,0.47506075033374795 l -7.126716347908584 -1.719084803977714" fill="#ff2f04" stroke="none" /><path d="M 119.67450827220406 107.3425965602758 l 59.02352481661219 22.027789680827375 a84.0,84.0 0 0,0 -0.517222881625973,1.3503057326674246 l -58.635607655392704 -23.040518980327946" fill="#4dd2ff" stroke="none" /><line stroke="#e1ed5e" stroke-width="0.3" x1="174.80103733775053" x2="179.2010983576182" y1="140.37084112569926" y2="142.7455964860345" /><path d="M 175.68104954172406 140.8457921977663 a86.0,86.0 0 0,1 -30.038265399797805,32.042727171017184" fill="none" id="id17" stroke="none" /><text fill="#e1ed5e" style="font-size:6.75px; font-family:Arial;" text-anchor="middle"><textPath startOffset="22.206326154141568" xlink:href="#id17">May</textPath></text><path d="M 118.12598468904814 110.60418214915192 l 5.25148618836571 3.0722588069288457 a27.084150011574966,27.084150011574966 0 0,0 -0.2388810736953221,0.4003784199270467 l -5.19782423897216 -3.1621993207419963" fill="#ff1c02" stroke="none" /><path d="M 116.71984013943494 112.70617746262583 l 15.527040370246912 11.799713918818622 a40.501851994752684,40.501851994752684 0 0,0 -0.4266063595848605,0.5514462268794212 l -15.321627193443982 -12.065238139811296" fill="#ffda14" stroke="none" /><path d="M 115.32070863581623 114.36230785411682 l 28.453673515896853 26.67372824129614 a60.00127324639247,60.00127324639247 0 0,0 -0.7128535516140729,0.7474240989164134 l -27.990313412903816 -27.15955945679506" fill="#3eff2e" stroke="none" /><path d="M 113.75828350139079 115.86535959552629 l 4.110285868943163 4.73977464882167 a27.27374797438074,27.27374797438074 0 0,0 -0.3573309357566175,0.3045251755808854 l -4.028089456609498 -4.809824214625502" fill="#ff1f03" stroke="none" /><line stroke="#e1ed5e" stroke-width="0.3" x1="143.8653032363475" x2="146.44561519142675" y1="172.8068346515853" y2="177.08958963109032" /><path d="M 144.38136562736335 173.6633856474863 a86.0,86.0 0 0,1 -40.68145358897372,12.25698825130547" fill="none" id="id18" stroke="none" /><text fill="#e1ed5e" style="font-size:6.75px; font-family:Arial;" text-anchor="middle"><textPath startOffset="21.466115282336833" xlink:href="#id18">June</textPath></text><path d="M 110.5260780823613 118.17145234162733 l 3.138572861350724 5.418202936032718 a27.261594258816267,27.261594258816267 0 0,0 -0.4080817033787073,0.23171944145666837 l -3.0448423910508176 -5.471425543284014" fill="#ff1f03" stroke="none" /><path d="M 105.53697534728816 120.25689768951611 l 3.2109244335882776 11.747093613451156 a33.17802299560151,33.17802299560151 0 0,0 -0.5521921964563161,0.14583897788088754 l -3.008241794320464 -11.800623940635628" fill="#ff760a" stroke="none" /><line stroke="#e1ed5e" stroke-width="0.3" x1="102.19456741930631" x2="102.32365962044197" y1="184.97166512339345" y2="189.96999836594603" /><path d="M 102.22038585953345 185.97133177190398 a86.0,86.0 0 0,1 -42.740103519485714,-10.115201625700543" fill="none" id="id19" stroke="none" /><text fill="#e1ed5e" style="font-size:6.75px; font-family:Arial;" text-anchor="middle"><textPath startOffset="22.20632615414155" xlink:href="#id19">July</textPath></text><path d="M 94.81253420990036 120.34920634021253 l -4.650465608186017 18.242681121801 a39.82610540936801,39.82610540936801 0 0,0 -0.6628383079129126,-0.17506162156343283 l 4.963794358910419 -18.159928150933986" fill="#ffd113" stroke="none" /><path d="M 94.46302465271185 120.25689768951611 l -5.170165150849623 18.914930973994114 a40.60880469172004,40.60880469172004 0 0,0 -0.672692259656025,-0.19010955192015772 l 5.494988578610262 -18.823132628735436" fill="#ffdc14" stroke="none" /><path d="M 91.7346041902142 119.30500536409082 l -7.33227797123987 17.125576176062044 a39.629215217223546,39.629215217223546 0 0,0 -0.6247816113314983,-0.2738858977686682 l 7.625980257229112 -16.996825724998924" fill="#ffcf13" stroke="none" /><path d="M 91.07499286063937 119.00905698771935 l -8.080647331284691 17.21068490137442 a40.013272629060886,40.013272629060886 0 0,0 -0.6209437457935044,-0.2980907326701756 l 8.375703745078438 -17.06903989220468" fill="#ffd413" stroke="none" /><line stroke="#e1ed5e" stroke-width="0.3" x1="58.666819895761336" x2="56.23545636021788" y1="174.27360380694188" y2="178.64263932499728" /><path d="M 58.180547188652646 175.14741091055294 a86.0,86.0 0 0,1 -31.652253787137756,-30.449443065178592" fill="none" id="id20" stroke="none" /><text fill="#e1ed5e" style="font-size:6.75px; font-family:Arial;" text-anchor="middle"><textPath startOffset="22.20632615414155" xlink:href="#id20">August</textPath></text><line stroke="#e1ed5e" stroke-width="0.3" x1="26.63291911575756" x2="22.317208475507996" y1="142.92168965132927" y2="145.44649492493687" /><path d="M 25.769776987707644 143.4266507060508 a86.0,86.0 0 0,1 -11.730757126820373,-40.83630448921669" fill="none" id="id21" stroke="none" /><text fill="#e1ed5e" style="font-size:6.75px; font-family:Arial;" text-anchor="middle"><textPath startOffset="21.46611528233685" xlink:href="#id21">September</textPath></text><path d="M 79.76711848015287 105.62410040840567 l -11.77063768640539 3.271864571260928 a33.216914885407824,33.216914885407824 0 0,0 -0.14838774682817701,-0.5522060075443941 l 11.825213509575338 -3.0687676305409948" fill="#ff760a" stroke="none" /><path d="M 79.67330655649465 105.27499134158121 l -11.780510155679211 3.057166638702499 a33.17073076626283,33.17073076626283 0 0,0 -0.13866737418298106,-0.5539072298367997 l 11.831388844157253 -2.8539315694683074" fill="#ff750a" stroke="none" /><line stroke="#e1ed5e" stroke-width="0.3" x1="15.007084014347285" x2="10.007500721073583" y1="101.09737516637583" y2="101.16192664675087" /><path d="M 14.007167355692545 101.11028546245083 a86.0,86.0 0 0,1 10.666146001902534,-42.60595125391555" fill="none" id="id22" stroke="none" /><text fill="#e1ed5e" style="font-size:6.75px; font-family:Arial;" text-anchor="middle"><textPath startOffset="22.20632615414155" xlink:href="#id22">October</textPath></text><path d="M 79.16333360222342 97.38593545837743 l -6.372074151893557 -0.7994087335789967 a27.422023304267306,27.422023304267306 0 0,0 0.06278859973326148,-0.4678479987330684 l 6.357369553102462 0.9089750743767244" fill="#ff2103" stroke="none" /><path d="M 79.21141760316559 97.0276538004421 l -19.510050089536243 -2.789541976929024 a40.70846515934872,40.70846515934872 0 0,0 0.10515211057267451,-0.6928210276717537 l 19.459142085524267 3.12496211699287" fill="#ffdd14" stroke="none" /><path d="M 79.26566170972629 96.67025291283419 l -19.250342706954875 -3.091430826393661 a40.49699050852689,40.49699050852689 0 0,0 0.1164541843258636,-0.6873191879846671 l 19.194276661108788 3.4223358026941564" fill="#ffda14" stroke="none" /><line stroke="#e1ed5e" stroke-width="0.3" x1="26.266209847984257" x2="21.92892807433627" y1="57.711370442889674" y2="55.22380399835377" /><path d="M 25.39875349325466 57.213857153982495 a86.0,86.0 0 0,1 29.58750427330802,-30.492523968695096" fill="none" id="id23" stroke="none" /><text fill="#e1ed5e" style="font-size:6.75px; font-family:Arial;" text-anchor="middle"><textPath startOffset="21.46611528233685" xlink:href="#id23">November</textPath></text><line stroke="#e1ed5e" stroke-width="0.3" x1="56.762969772571076" x2="54.21961505331055" y1="26.818313649435495" y2="22.513508569990535" /><path d="M 56.25429882871897 25.957352633546506 a86.0,86.0 0 0,1 42.265352541879196,-11.944610805530505" fill="none" id="id24" stroke="none" /><text fill="#e1ed5e" style="font-size:6.75px; font-family:Arial;" text-anchor="middle"><textPath startOffset="22.20632615414155" xlink:href="#id24">December</textPath></text></svg>