<?xml version="1.0" encoding="utf-8" ?>
<svg baseProfile="full" height="200mm" version="1.1" viewBox="0,0,200,200" width="200mm" xmlns="http://www.w3.org/2000/svg" xmlns:ev="http://www.w3.org/2001/xml-events" xmlns:xlink="http://www.w3.org/1999/xlink"><defs /><rect fill="#1a1a1a" height="200" width="200" x="0" y="0" /><text alignment-baseline="middle" fill="#e1ed5e" style="dominant-baseline: central; font-size:9.0px; font-family:Arial;" text-anchor="middle" x="100.0" y="100.0">2020</text><line stroke="#e1ed5e" stroke-width="0.3" x1="100.0" x2="100.0" y1="15.0" y2="10.0" /><path d="M 100.0 14.0 a86.0,86.0 0 0,1 42.35913384403234,11.155469271406648" fill="none" id="id49" stroke="none" /><text fill="#e1ed5e" style="font-size:6.75px; font-family:Arial;" text-anchor="middle"><textPath startOffset="22.145653131862478" xlink:href="#id49">January</textPath></text><path d="M 100.0 79.0 l 0.0 -63.0 a84.0,84.0 0 0,0 1.441971699395419,0.012377592777739643 l -1.0814787745465644 62.990716805416696" fill="#4dd2ff" stroke="none" /><path d="M 101.44090949804482 79.04949213459386 l 2.351379620221855 -34.18854362113554 a55.26930844141273,55.26930844141273 0 0,0 0.9459763376749835,0.07322455130853492 l -2.937924952672072 34.14314130283195" fill="#62ff29" stroke="none" /><path d="M 105.69591212413111 79.78721728523813 l 0.5137900358795281 -1.8232595815945487 a22.89426917380963,22.89426917380963 0 0,0 0.3773629546835562,0.10984485636175471 l -0.5450130029446887 1.814171030930278" fill="#ff0701" stroke="none" /><path d="M 108.73861861582097 80.90454125486305 l 1.1882607551019844 -2.5965641968211175 a23.855540097832428,23.855540097832428 0 0,0 0.3709096704111023,0.17360445407957115 l -1.2326591393845916 2.5757835111710126" fill="#ff1502" stroke="none" /><path d="M 109.3889696526874 81.21577127319529 l 1.5421455337627714 -3.085324109864255 a24.449266256787684,24.449266256787684 0 0,0 0.37380923067291766,0.1908696566778113 l -1.594881986149268 3.05839650151361" fill="#ff1e03" stroke="none" /><line stroke="#e1ed5e" stroke-width="0.3" x1="143.13028292997686" x2="145.6673583964461" y1="26.7553504044142" y2="22.446841604673864" /><path d="M 143.63769802327073 25.89364864446614 a86.0,86.0 0 0,1 29.32050498858742,28.57503671076993" fill="none" id="id50" stroke="none" /><text fill="#e1ed5e" style="font-size:6.75px; font-family:Arial;" text-anchor="middle"><textPath startOffset="20.669276256404974" xlink:href="#id50">February</textPath></text><line stroke="#e1ed5e" stroke-width="0.3" x1="172.87174338648825" x2="177.1583165268699" y1="56.24261187166439" y2="53.66864786411523" /><path d="M 173.72905801456457 55.72781907015455 a86.0,86.0 0 0,1 12.242430191666344,42.057860355516425" fill="none" id="id51" stroke="none" /><text fill="#e1ed5e" style="font-size:6.75px; font-family:Arial;" text-anchor="middle"><textPath startOffset="22.145653131862474" xlink:href="#id51">March</textPath></text><path d="M 118.00360718960297 89.18935116829356 l 12.388336805555019 -7.438840305908313 a35.450163802001526,35.450163802001526 0 0,0 0.30879842569486415,0.5244072366139918 l -12.51420894137965 7.225081901000765" fill="#ffb510" stroke="none" /><path d="M 119.83427380445688 93.10060997987247 l 24.06362137802763 -8.37057665032256 a46.47792038773953,46.47792038773953 0 0,0 0.25566082760871023,0.7558158088731559 l -24.203767627208705 7.956259166975243" fill="#c2ff1e" stroke="none" /><path d="M 120.65975698304385 96.23510406497455 l 16.734653487656505 -3.0496113260890314 a38.010254454068125,38.010254454068125 0 0,0 0.11146992655811423,0.6429289144069558 l -16.784538231706854 2.7618893787614827" fill="#ffd513" stroke="none" /><path d="M 120.77682067341334 96.94652285012252 l 33.7666459757361 -4.962534140117497 a55.12935870394471,55.12935870394471 0 0,0 0.12956838813496632,0.9374923121242872 l -33.84685888042628 4.382153519793124" fill="#63ff29" stroke="none" /><line stroke="#e1ed5e" stroke-width="0.3" x1="184.99686870605535" x2="189.99668451229388" y1="99.2704041080226" y2="99.22748670261217" /><path d="M 185.99683186730306 99.26182062694052 a86.0,86.0 0 0,1 -10.086455211305974,41.156179273409016" fill="none" id="id52" stroke="none" /><text fill="#e1ed5e" style="font-size:6.75px; font-family:Arial;" text-anchor="middle"><textPath startOffset="21.40746469413373" xlink:href="#id52">April</textPath></text><path d="M 120.99922638620191 100.18025310272382 l 5.569511643066611 0.0478075589955486 a26.569716824485035,26.569716824485035 0 0,0 -0.007829929046301797,0.45605411291495673 l -5.567870282421641 -0.1434085878795764" fill="#ff3c05" stroke="none" /><path d="M 120.93736805541906 101.62068470465957 l 19.101836551749845 1.4786029575630177 a40.158977696001436,40.158977696001436 0 0,0 -0.05910326270217297,0.686869502253054 l -19.07363966634993 -1.806293507191729" fill="#fff016" stroke="none" /><path d="M 120.86939407059847 102.33845913500097 l 21.29740255645152 2.386418378581085 a42.4306870708612,42.4306870708612 0 0,0 -0.08732217970341351,0.7231529140545427 l -21.25329829048844 -2.751664969559036" fill="#f2ff19" stroke="none" /><path d="M 120.82617615685814 102.69636545807757 l 20.511675942489205 2.6556471088138687 a41.68287483731993,41.68287483731993 0 0,0 -0.09796563995069471,0.7088305691542583 l -20.4630657859833 -3.007365986168212" fill="#fbff18" stroke="none" /><path d="M 120.51834098615036 104.47187691870673 l 27.733323744171333 6.044348829873378 a49.384351299196695,49.384351299196695 0 0,0 -0.18763499250935986,0.8267543979757933 l -27.625477890104307 -6.519537561788189" fill="#a1ff22" stroke="none" /><path d="M 120.05942366710727 106.21446072829308 l 29.731301236527923 9.21083312270948 a52.12538706637347,52.12538706637347 0 0,0 -0.27213245839249806,0.8524510499721571 l -29.568804062358172 -9.71985320637302" fill="#83ff25" stroke="none" /><path d="M 119.83427380445688 106.89939002012753 l 2.456697738199569 0.8545669997555077 a23.601086029708746,23.601086029708746 0 0,0 -0.13639160892112953,0.38151160469203355 l -2.4416659592344963 -0.8966135608284627" fill="#ff1101" stroke="none" /><path d="M 119.4528033332814 107.91128576633889 l 10.488957144431897 4.265767557445662 a32.32320603150384,32.32320603150384 0 0,0 -0.21344729991866532,0.512195817043623 l -10.414183999976746 -4.445195883930563" fill="#ff8b0c" stroke="none" /><path d="M 119.31412917781788 108.2440532568976 l 26.09786709507281 11.139627587782547 a49.37586949692591,49.37586949692591 0 0,0 -0.33943821910991007,0.7767010729825005 l -25.902794993945935 -11.585990730540892" fill="#a1ff22" stroke="none" /><path d="M 118.70294669586154 109.54985784667822 l 22.584041051274365 11.53157227844415 a46.357761522236686,46.357761522236686 0 0,0 -0.36797451362573474,0.7056396491356417 l -22.382758468673682 -11.917558170684295" fill="#c4ff1e" stroke="none" /><path d="M 118.5362547648365 109.86951160357373 l 25.056760665037135 13.341313726475153 a49.38717856662029,49.38717856662029 0 0,0 -0.40486821236292103,0.7449119094906499 l -24.824047103058874 -13.769480469440406" fill="#a1ff22" stroke="none" /><line stroke="#e1ed5e" stroke-width="0.3" x1="174.33088141563837" x2="178.70328620479359" y1="141.23008692659167" y2="143.65538615756765" /><path d="M 175.20536237346943 141.71514677278685 a86.0,86.0 0 0,1 -30.301960400862466,31.631185727798858" fill="none" id="id53" stroke="none" /><text fill="#e1ed5e" style="font-size:6.75px; font-family:Arial;" text-anchor="middle"><textPath startOffset="22.145653131862474" xlink:href="#id53">May</textPath></text><path d="M 118.18653347947321 110.5 l 19.289168076734278 11.136606381546468 a43.27321276309294,43.27321276309294 0 0,0 -0.3769432505484703,0.6401320470971208 l -19.095151116056044 -11.466089596937136" fill="#e8ff1a" stroke="none" /><path d="M 117.423217284605 111.72311816256416 l 8.620516562526145 5.800268264698191 a31.390207781717002,31.390207781717002 0 0,0 -0.30464983378159627,0.4444932120579353 l -8.519676991929229 -5.947396211826171" fill="#ff7f0b" stroke="none" /><path d="M 116.79662413953412 112.60449989151573 l 22.639600041234896 16.989177937967476 a49.305187811336,49.305187811336 0 0,0 -0.5138258504135969,0.6726145322227888 l -22.344622213466995 -17.37531338343114" fill="#a2ff22" stroke="none" /><path d="M 116.1254893667686 113.45245675266167 l 10.865871868331485 9.064696770686847 a35.1504734551003,35.1504734551003 0 0,0 -0.3905141215416076,0.460024653242222 l -10.708663183282763 -9.249888206378627" fill="#ffb110" stroke="none" /><path d="M 115.89218393027572 113.72728997021213 l 7.499273617863355 6.477693938732685 a30.909572319705603,30.909572319705603 0 0,0 -0.35029220142199485,0.39856822296572303 l -7.386970352482774 -6.605474439509702" fill="#ff780b" stroke="none" /><path d="M 115.16444852881244 114.52719865689866 l 11.341180933117597 10.864594786034923 a36.70547053807836,36.70547053807836 0 0,0 -0.43978956463574764,0.45126283666228817 l -11.153004567331042 -11.057680314764948" fill="#ffc512" stroke="none" /><path d="M 110.96478420261333 117.91015095944535 l 3.7126642197512703 6.0643579854155725 a28.110577570345107,28.110577570345107 0 0,0 -0.41371708196404355,0.24842522066214054 l -3.6080143812297902 -6.127197206613636" fill="#ff5207" stroke="none" /><line stroke="#e1ed5e" stroke-width="0.3" x1="143.1302829299769" x2="145.66735839644613" y1="173.24464959558577" y2="177.55315839532614" /><path d="M 143.63769802327073 174.10635135553383 a86.0,86.0 0 0,1 -40.68552437913181,11.842963189579606" fill="none" id="id54" stroke="none" /><text fill="#e1ed5e" style="font-size:6.75px; font-family:Arial;" text-anchor="middle"><textPath startOffset="21.407464694133747" xlink:href="#id54">June</textPath></text><path d="M 110.34350942703117 118.27599006163325 l 5.577223253860764 9.854419090361421 a32.32320603150384,32.32320603150384 0 0,0 -0.48524183613616984,0.26915546678966196 l -5.4072372295685 -9.948707472584227" fill="#ff8b0c" stroke="none" /><path d="M 109.06512990194946 118.94263497670748 l 6.1144775131849585 12.776906327689877 a35.164609792218286,35.164609792218286 0 0,0 -0.5467448556887533,0.2559041992285007 l -5.894243943624699 -12.879986758488911" fill="#ffb110" stroke="none" /><path d="M 108.73861861582097 119.09545874513695 l 5.8883614646390425 12.867132480286822 a35.1504734551003,35.1504734551003 0 0,0 -0.5508356998739319,0.24638180220636377 l -5.6666123619094835 -12.966318033403034" fill="#ffb110" stroke="none" /><path d="M 105.69591212413111 120.21278271476187 l 4.60493905292025 16.341304160410854 a37.977740878696764,37.977740878696764 0 0,0 -0.6290173632425462,0.17144147946772711 l -4.323740288743009 -16.417946134022724" fill="#ffd513" stroke="none" /><path d="M 104.64783097203109 120.47920084513623 l 2.5061117950434606 11.042390977620242 a32.32320603150384,32.32320603150384 0 0,0 -0.5421641895075564,0.11816216168961602 l -2.3161851889167684 -11.083784597443575" fill="#ff8b0c" stroke="none" /><path d="M 103.58742460773223 120.69131181640829 l 2.4173217468518358 13.94246945758517 a35.1504734551003,35.1504734551003 0 0,0 -0.5954197231578562,0.0979760888618442 l -2.1776245206409075 -13.981911544942687" fill="#ffb110" stroke="none" /><line stroke="#e1ed5e" stroke-width="0.3" x1="101.45913802915013" x2="101.54496967792366" y1="184.9874750549273" y2="189.98673829345242" /><path d="M 101.47630435890484 185.9873277026323 a86.0,86.0 0 0,1 -42.54439059252881,-10.42667462771756" fill="none" id="id55" stroke="none" /><text fill="#e1ed5e" style="font-size:6.75px; font-family:Arial;" text-anchor="middle"><textPath startOffset="22.145653131862474" xlink:href="#id55">July</textPath></text><path d="M 100.36049292484886 120.99690560180557 l 0.1361373227394477 7.9293165480049295 a28.93048512318808,28.93048512318808 0 0,0 -0.496630247588299,0.004262973377586631 l -9.712043221797987e-16 -7.930485123188081" fill="#ff5d08" stroke="none" /><path d="M 99.63950707515114 120.99690560180557 l -0.25504514474003115 14.85510105517501 a35.85729031099942,35.85729031099942 0 0,0 -0.6153566676944907,-0.015849404939433438 l 0.5100151265052657 -14.848533932885529" fill="#ffba11" stroke="none" /><path d="M 99.27912038922189 120.98762331915562 l -0.4857517998399342 14.142133650635975 a35.1504734551003,35.1504734551003 0 0,0 -0.6028711924386265,-0.025889882998404393 l 0.7284487528793995 -14.131711199211741" fill="#ffb110" stroke="none" /><path d="M 96.41257539226777 120.69131181640829 l -1.6952646016882982 9.777835723501289 a30.923708656823585,30.923708656823585 0 0,0 -0.522265017636277,-0.09517408377642547 l 1.8628643528756323 -9.747293465793499" fill="#ff780b" stroke="none" /><path d="M 93.61358852112213 120.00534299687104 l -2.1624321055573112 6.773787771457703 a28.110577570345107,28.110577570345107 0 0,0 -0.4584396975920256,-0.1506982343679263 l 2.2783945407970805 -6.7356686156877545" fill="#ff5207" stroke="none" /><path d="M 91.92203290615298 119.3841803445677 l -10.331735501262848 24.792404066785412 a47.8590405241664,47.8590405241664 0 0,0 -0.7556371035147867,-0.3225365465308303 l 10.755807679948067 -24.61139287059518" fill="#b2ff20" stroke="none" /><path d="M 90.93487009805054 118.94263497670748 l -3.05723875659248 6.388453163844939 a28.082304896109143,28.082304896109143 0 0,0 -0.4330555532239311,-0.21182917177233473 l 3.1664545590784807 -6.335030241975381" fill="#ff5107" stroke="none" /><path d="M 90.28995756902619 118.62028667847754 l -8.020164741824397 15.379723390808202 a38.345285643764306,38.345285643764306 0 0,0 -0.5810427977954661,-0.30937256246034844 l 8.282996355406425 -15.23978036062528" fill="#ffda14" stroke="none" /><line stroke="#e1ed5e" stroke-width="0.3" x1="58.13341422392154" x2="55.670673884152215" y1="173.97424548756322" y2="178.32567169271397" /><path d="M 57.64086615596767 174.84453072859336 a86.0,86.0 0 0,1 -31.369924170532244,-30.572349798747897" fill="none" id="id56" stroke="none" /><text fill="#e1ed5e" style="font-size:6.75px; font-family:Arial;" text-anchor="middle"><textPath startOffset="22.145653131862474" xlink:href="#id56">August</textPath></text><path d="M 88.4268655584334 117.5232005979908 l -7.019293271901116 10.628104657444942 a33.73683974330207,33.73683974330207 0 0,0 -0.48051495214753287,-0.32331190450581954 l 7.200704512145652 -10.506043078882001" fill="#ff9e0e" stroke="none" /><path d="M 86.68645165197938 116.24036423190432 l -7.1786690930964285 8.756809058310393 a32.32320603150384,32.32320603150384 0 0,0 -0.42609014436635123,-0.35545955285153147 l 7.327933571624672 -8.632287321546993" fill="#ff8b0c" stroke="none" /><path d="M 85.86807049272751 115.53346607816431 l -4.775543202879409 5.249158532000953 a28.096441233227125,28.096441233227125 0 0,0 -0.3539753277304086,-0.3276342788024668 l 4.864948301923786 -5.166406507066107" fill="#ff5107" stroke="none" /><path d="M 85.08716467003676 114.78537596483092 l -9.7174693259914 9.634414531676393 a34.68397433020689,34.68397433020689 0 0,0 -0.4155688442869793,-0.42641024385545323 l 9.88142497142919 -9.466181595753202" fill="#ffab0f" stroke="none" /><path d="M 84.3458050057657 113.99807769240083 l -10.551459934295297 9.435180536777551 a35.154714356235694,35.154714356235694 0 0,0 -0.3984015745942917,-0.4533078583199738 l 10.711872572848181 -9.252660400646278" fill="#ffb110" stroke="none" /><path d="M 84.1078160697243 113.72728997021213 l -1.0794246905027287 0.9323813386849197 a22.426356415204417,22.426356415204417 0 0,0 -0.24915194630449244,-0.2935003662630337 l 1.0952712003143334 -0.9137141899723316" fill="#ff0000" stroke="none" /><path d="M 82.98947788004972 112.3143062007846 l -4.328396554329225 3.1334253089103226 a26.343535430597317,26.343535430597317 0 0,0 -0.2620365144187053,-0.368587173261645 l 4.381548167277891 -3.058660908939174" fill="#ff3905" stroke="none" /><line stroke="#e1ed5e" stroke-width="0.3" x1="26.387840678322732" x2="22.057713659400548" y1="142.50000000000003" y2="145.00000000000006" /><path d="M 25.521815274538298 143.00000000000003 a86.0,86.0 0 0,1 -11.493303480769221,-40.785679425670985" fill="none" id="id57" stroke="none" /><text fill="#e1ed5e" style="font-size:6.75px; font-family:Arial;" text-anchor="middle"><textPath startOffset="21.40746469413373" xlink:href="#id57">September</textPath></text><path d="M 81.81346652052679 110.50000000000001 l -12.291396768876117 7.096441233227131 a35.19288246645425,35.19288246645425 0 0,0 -0.2975753197507818,-0.5257870768832071 l 12.411405453648278 -6.884397386244803" fill="#ffb110" stroke="none" /><path d="M 80.83023694016515 108.57439118712176 l -10.323437450882652 4.617542262956568 a32.309069694385855,32.309069694385855 0 0,0 -0.22211118892484344,-0.5082338671576788 l 10.401182521824463 -4.439646326023039" fill="#ff8b0c" stroke="none" /><path d="M 80.68587082218212 108.24405325689762 l -9.114036184748684 3.8902400931776877 a30.909572319705603,30.909572319705603 0 0,0 -0.20411232557969516,-0.4897952769081746 l 9.179474354864864 -3.733212306828232" fill="#ff780b" stroke="none" /><path d="M 80.28708602549918 107.23885506374661 l -6.648231769437408 2.4413227933427173 a28.082304896109143,28.082304896109143 0 0,0 -0.16228874985552125,-0.45395051697533106 l 6.689160689336873 -2.3268373199864647" fill="#ff5107" stroke="none" /><path d="M 80.16572619554312 106.89939002012753 l -9.42624240852661 3.278936422974938 a30.980254005295517,30.980254005295517 0 0,0 -0.17041290385727098,-0.5037954698654079 l 9.481140733956249 -3.1166392786353683" fill="#ff790b" stroke="none" /><path d="M 79.94057633289273 106.21446072829308 l -12.166364980521235 3.769170970824441 a33.73683974330207,33.73683974330207 0 0,0 -0.16663376998205204,-0.5546696255737236 l 12.229275070506919 -3.559763741659994" fill="#ff9e0e" stroke="none" /><path d="M 79.407916724674 104.11899336999214 l -16.772710651490687 3.355011877456238 a38.10496791275861,38.10496791275861 0 0,0 -0.12279545052980075,-0.6425176855902704 l 16.827832394302646 -3.066591626832653" fill="#ffd714" stroke="none" /><path d="M 79.22317932658666 103.0534771498775 l -20.99313905048249 3.085268501974233 a42.21864201409146,42.21864201409146 0 0,0 -0.0992248327137095,-0.7179414607212926 l 21.04300839975141 -2.7244387330528546" fill="#f5ff19" stroke="none" /><path d="M 79.0935383218832 101.97986365728391 l -7.64184043298754 0.7236902341954616 a28.6760310550644,28.6760310550644 0 0,0 -0.042203439777101066,-0.4904679428467153 l 7.653137495462382 -0.5924012439730844" fill="#ff5908" stroke="none" /><path d="M 79.06263194458094 101.62068470465958 l -15.531781804787373 1.2022581415439022 a36.57824350401651,36.57824350401651 0 0,0 -0.04308575484900103,-0.6264574194811053 l 15.55013152080144 -0.9354572979084534" fill="#ffc312" stroke="none" /><line stroke="#e1ed5e" stroke-width="0.3" x1="15.003131293944662" x2="10.003315487706104" y1="100.72959589197737" y2="100.7725132973878" /><path d="M 14.003168132696942 100.73817937305945 a86.0,86.0 0 0,1 10.791469493833615,-42.45332614584628" fill="none" id="id58" stroke="none" /><text fill="#e1ed5e" style="font-size:6.75px; font-family:Arial;" text-anchor="middle"><textPath startOffset="22.145653131862435" xlink:href="#id58">October</textPath></text><path d="M 79.17382384314186 97.30363454192245 l -15.435277980097474 -1.9984057595544062 a36.56410716689853,36.56410716689853 0 0,0 0.08593519933092693,-0.6217842937869138 l 15.39869826421134 2.263078361541387" fill="#ffc312" stroke="none" /><path d="M 79.407916724674 95.88100663000787 l -13.86174434007495 -2.772737088806803 a35.13633711798232,35.13633711798232 0 0,0 0.12338256820603745,-0.5904302538583716 l 13.812104061044545 3.0102837939505838" fill="#ffb010" stroke="none" /><path d="M 79.48165901384962 95.52812308129327 l -13.812104061044545 -3.0102837939505838 a35.13633711798232,35.13633711798232 0 0,0 0.13349990793635047,-0.5882252267536668 l 13.758393291550533 3.2469433546432587" fill="#ffb010" stroke="none" /><path d="M 79.73907114497095 94.47779374421319 l -34.097061978350744 -9.2933058650992 a56.3408427949558,56.3408427949558 0 0,0 0.2623377412514142,-0.9309440957369369 l 33.93250574502475 9.87725788473915" fill="#57ff2a" stroke="none" /><path d="M 80.05021161711548 93.44210830539832 l -13.442807187946462 -4.418917730756373 a35.1504734551003,35.1504734551003 0 0,0 0.19335200584274306,-0.5716108488741515 l 13.364969760531352 4.649030254104686" fill="#ffb110" stroke="none" /><path d="M 80.41425534168474 92.42381321644754 l -15.821182239809488 -6.119973168062837 a37.96360454157878,37.96360454157878 0 0,0 0.24033009003901304,-0.6057888221328027 l 15.713793474804344 6.390663007409223" fill="#ffd513" stroke="none" /><path d="M 80.9802524753101 91.09779779509293 l -12.82891914446391 -6.004581929711139 a35.164609792218286,35.164609792218286 0 0,0 0.26058774616263813,-0.5445281654375713 l 12.723952140341366 6.2239225972137975" fill="#ffb110" stroke="none" /><path d="M 81.29705330413844 90.45014215332179 l -12.602645273902128 -6.4350004742572064 a35.1504734551003,35.1504734551003 0 0,0 0.279014299841704,-0.5350467093608966 l 12.490322905085485 6.65039342672259" fill="#ffb110" stroke="none" /><path d="M 81.63589988554816 89.8137432299009 l -15.056864385003598 -8.351788861002142 a38.21805860970247,38.21805860970247 0 0,0 0.32315486013051786,-0.5709836737499882 l 14.911276159851708 8.609029304851235" fill="#ffd814" stroke="none" /><line stroke="#e1ed5e" stroke-width="0.3" x1="26.387840678322718" x2="22.05771365940052" y1="57.49999999999999" y2="54.99999999999999" /><path d="M 25.521815274538284 56.99999999999999 a86.0,86.0 0 0,1 29.574782752854787,-30.34633250058573" fill="none" id="id59" stroke="none" /><text fill="#e1ed5e" style="font-size:6.75px; font-family:Arial;" text-anchor="middle"><textPath startOffset="21.40746469413373" xlink:href="#id59">November</textPath></text><path d="M 84.58840730492382 85.73525988315684 l -12.48357682312873 -11.554612338507411 a38.010254454068125,38.010254454068125 0 0,0 0.44733393554870643,-0.47505313767392204 l 12.283387053843752 11.767206936125845" fill="#ffd513" stroke="none" /><path d="M 85.08716467003674 85.21462403516908 l -20.320352695941942 -20.146675511383624 a49.61477359421981,49.61477359421981 0 0,0 0.6048468057639068,-0.5996772060091218 l 19.971513970048054 20.492532727621416" fill="#9fff22" stroke="none" /><path d="M 85.86807049272753 84.46653392183569 l -20.132434422816107 -22.129072114090878 a50.91673024278598,50.91673024278598 0 0,0 0.6515764826683658,-0.5826437086220237 l 19.74959291332435 22.471411352596302" fill="#90ff24" stroke="none" /><path d="M 86.13680546590413 84.22622945171909 l -21.953842710672177 -24.979442993423802 a54.2557330700534,54.2557330700534 0 0,0 0.7048608248580948,-0.6088419926374534 l 21.521802406051233 25.352629118525968" fill="#6cff28" stroke="none" /><path d="M 88.12776184653039 82.6780497279521 l -16.95162523941416 -24.73292782976315 a50.984584660952294,50.984584660952294 0 0,0 0.7261751677106729,-0.4886030610037878 l 16.524553783606496 25.020280564824045" fill="#8fff24" stroke="none" /><path d="M 88.4268655584334 82.4767994020092 l -24.749046466343472 -37.473210738924635 a65.90831575640624,65.90831575640624 0 0,0 0.9494386890501679,-0.6154146874495047 l 24.102122145036276 37.892539268078046" fill="#36ff72" stroke="none" /><line stroke="#e1ed5e" stroke-width="0.3" x1="56.869717070023135" x2="54.33264160355391" y1="26.7553504044142" y2="22.446841604673864" /><path d="M 56.362301976729285 25.89364864446614 a86.0,86.0 0 0,1 42.16139366436587,-11.88097634709845" fill="none" id="id60" stroke="none" /><text fill="#e1ed5e" style="font-size:6.75px; font-family:Arial;" text-anchor="middle"><textPath startOffset="22.145653131862474" xlink:href="#id60">December</textPath></text><path d="M 91.26138138417902 80.90454125486306 l -5.88836146463905 -12.867132480286818 a35.1504734551003,35.1504734551003 0 0,0 0.5508356998739455,-0.24638180220637157 l 5.666612361909485 12.966318033403034" fill="#ffb110" stroke="none" /><path d="M 91.5904679813234 80.7573450057729 l -5.666612361909485 -12.966318033403034 a35.1504734551003,35.1504734551003 0 0,0 0.5549840042316231,-0.23688967001766156 l 5.443193282507431 13.0616823530801" fill="#ffb110" stroke="none" /><path d="M 94.30408787586887 79.78721728523814 l -4.601104798921166 -16.32769774562283 a37.96360454157878,37.96360454157878 0 0,0 0.6287832260534211,-0.17137766433566484 l 4.320140171933067 16.404275904102636" fill="#ffd513" stroke="none" /><path d="M 94.6519064749342 79.69241777938228 l -3.9925295422281444 -15.160284981374858 a36.677197863842395,36.677197863842395 0 0,0 0.6102294663310477,-0.15511794405758805 l 3.731694782671718 15.226588157267708" fill="#ffc412" stroke="none" /><path d="M 96.05791012581881 79.37332000966035 l -1.8363278236323979 -9.608443131522936 a30.782345285643764,30.782345285643764 0 0,0 0.5198775567931799,-0.09473900888030992 l 1.6711155332881795 9.638550314334607" fill="#ff760a" stroke="none" /><path d="M 97.12497278360702 79.19773525538626 l -2.0263116471503753 -14.66138167276214 a35.80074496252749,35.80074496252749 0 0,0 0.609502872235,-0.07891234948343609 l 1.7743309530245808 14.69400561844597" fill="#ffb911" stroke="none" /><path d="M 97.48249496171623 79.15144685158666 l -3.592723610708797 -29.752905359222016 a50.96903469012251,50.96903469012251 0 0,0 0.8695416790254449,-0.09743395882518041 l 3.0814460300825535 29.81019507855417" fill="#90ff24" stroke="none" /><path d="M 98.5590905019552 79.04949213459386 l -0.8089475304286033 -11.761919552853328 a32.789705156397254,32.789705156397254 0 0,0 0.5618838377352462,-0.0338015363974967 l 0.6069193405608733 11.77407306707552" fill="#ff910d" stroke="none" /></svg>